<svg width="19" height="20" viewBox="0 0 19 20" fill="none" xmlns="http://www.w3.org/2000/svg">
<path d="M9.66667 0.833313C4.60667 0.833313 0.5 4.93998 0.5 9.99998C0.5 15.06 4.60667 19.1666 9.66667 19.1666C14.7267 19.1666 18.8333 15.06 18.8333 9.99998C18.8333 4.93998 14.7267 0.833313 9.66667 0.833313ZM9.66667 17.3333C5.62417 17.3333 2.33333 14.0425 2.33333 9.99998C2.33333 5.95748 5.62417 2.66665 9.66667 2.66665C13.7092 2.66665 17 5.95748 17 9.99998C17 14.0425 13.7092 17.3333 9.66667 17.3333ZM13.8742 5.94831L7.83333 11.9891L5.45917 9.62415L4.16667 10.9166L7.83333 14.5833L15.1667 7.24998L13.8742 5.94831Z" fill="#59AE9B"/>
</svg>
