<svg width="20" height="20" viewBox="0 0 20 20" fill="none" xmlns="http://www.w3.org/2000/svg">
<g clip-path="url(#clip0_699_2979)">
<path d="M17.6747 13.2416C17.1445 14.4953 16.3153 15.6001 15.2596 16.4594C14.2038 17.3186 12.9537 17.9061 11.6184 18.1706C10.2831 18.4351 8.90337 18.3684 7.59981 17.9764C6.29624 17.5845 5.10854 16.8792 4.14053 15.9222C3.17253 14.9651 2.4537 13.7856 2.04688 12.4866C1.64006 11.1876 1.55765 9.80868 1.80685 8.47047C2.05605 7.13226 2.62926 5.87547 3.47639 4.80997C4.32351 3.74447 5.41875 2.90271 6.66635 2.35828" stroke="#4E9AE2" stroke-width="2" stroke-linecap="round" stroke-linejoin="round"/>
<path d="M18.3333 9.99996C18.3333 8.90561 18.1178 7.82198 17.699 6.81093C17.2802 5.79988 16.6664 4.88122 15.8926 4.1074C15.1187 3.33358 14.2001 2.71975 13.189 2.30096C12.178 1.88217 11.0943 1.66663 10 1.66663V9.99996H18.3333Z" stroke="#4E9AE2" stroke-width="2" stroke-linecap="round" stroke-linejoin="round"/>
</g>
<defs>
<clipPath id="clip0_699_2979">
<rect width="20" height="20" fill="white"/>
</clipPath>
</defs>
</svg>
