<svg width="266" height="264" viewBox="0 0 266 264" fill="none" xmlns="http://www.w3.org/2000/svg">
<path d="M239.177 101.23C253.572 130.352 263.595 153.375 153.97 208.961C44.4728 264.483 31.0302 240.356 16.6353 211.234C2.24034 182.113 59.0717 167.465 120.525 137.089C181.978 106.712 224.782 72.1089 239.177 101.23Z" fill="#D1B052"/>
<path d="M238.729 101.452C242.332 108.743 245.623 115.579 246.86 122.619C248.091 129.629 247.286 136.855 242.647 144.922C237.998 153.009 229.485 161.959 215.261 172.37C201.04 182.778 181.138 194.625 153.744 208.515C126.384 222.389 105.042 231.277 88.1974 236.356C71.3494 241.436 59.0335 242.695 49.7111 241.344C31.1486 238.654 24.2892 225.59 17.0835 211.013C15.3178 207.44 14.6571 204.118 14.9438 200.979C15.2305 197.838 16.4685 194.841 18.5596 191.927C22.7546 186.079 30.3446 180.613 40.3788 175.07C50.4015 169.533 62.7964 163.953 76.5451 157.851C77.6978 157.339 78.8599 156.824 80.0308 156.305C92.8196 150.636 106.661 144.499 120.746 137.537C134.951 130.516 148.159 123.269 160.242 116.64C161.238 116.093 162.226 115.551 163.206 115.014C176.09 107.951 187.631 101.699 197.698 97.306C207.776 92.9075 216.306 90.4053 223.179 90.7752C226.605 90.9595 229.607 91.8565 232.188 93.58C234.77 95.3039 236.96 97.8746 238.729 101.452Z" stroke="#BD9435"/>
<g filter="url(#filter0_i_997_12644)">
<ellipse cx="124.73" cy="151.092" rx="122.754" ry="33.1411" transform="rotate(-26.3035 124.73 151.092)" fill="#F2EDCF"/>
</g>
<path d="M234.326 96.9183C236.235 100.781 235.203 106.008 231.415 112.277C227.64 118.522 221.207 125.668 212.597 133.262C195.382 148.445 169.554 165.347 139.194 180.354C108.834 195.361 79.7215 205.617 57.2042 210.073C45.9418 212.302 36.3581 213.075 29.1042 212.281C21.8227 211.484 17.0432 209.129 15.1339 205.266C13.2247 201.404 14.2564 196.177 18.0451 189.908C21.8194 183.662 28.253 176.517 36.8633 168.923C54.0782 153.74 79.9057 136.838 110.266 121.831C140.626 106.824 169.738 96.568 192.256 92.1114C203.518 89.8824 213.102 89.1101 220.356 89.9041C227.637 90.7011 232.417 93.0558 234.326 96.9183Z" stroke="#BD9435"/>
<g filter="url(#filter1_i_997_12644)">
<ellipse cx="133.055" cy="146.829" rx="108.843" ry="27.9666" transform="rotate(-26.3035 133.055 146.829)" fill="#E7DBA1"/>
</g>
<path d="M87.0311 194.941L131.943 116.917L145.645 110.446L165.056 103.215L122.808 181.62L106.823 188.09L87.0311 194.941Z" fill="#D1B052" fill-opacity="0.3"/>
<path d="M129.66 179.086L170.004 101.692L182.564 97.8864L198.93 94.0801L164.676 161.448L148.69 169.822L129.66 179.086Z" fill="#D1B052" fill-opacity="0.3"/>
<path d="M230.18 98.8196C231.767 102.031 230.798 106.469 227.362 111.879C223.945 117.26 218.176 123.456 210.486 130.073C195.112 143.304 172.144 158.146 145.226 171.452C118.308 184.757 92.5682 193.992 72.7201 198.172C62.7922 200.263 54.3669 201.083 48.0166 200.531C41.6317 199.975 37.5172 198.05 35.9299 194.839C34.3425 191.627 35.3118 187.189 38.7477 181.779C42.1649 176.398 47.9331 170.203 55.6233 163.585C70.9978 150.354 93.9659 135.512 120.884 122.206C147.801 108.901 173.541 99.6663 193.389 95.486C203.317 93.3951 211.743 92.5749 218.093 93.1276C224.478 93.6834 228.592 95.6083 230.18 98.8196Z" stroke="#BD9435"/>
<path d="M210.824 92.0433C215.031 99.4206 188.401 122.531 151.346 143.662C114.29 164.793 80.84 175.942 76.6331 168.565C72.4262 161.187 97.2993 131.888 134.355 110.758C173.558 94.0109 207.605 86.3988 210.824 92.0433Z" fill="#BD9435" fill-opacity="0.6"/>
<path d="M150.979 27.4862C168.687 38.4647 181.948 47.6044 141.095 115.028C100.289 182.373 84.7912 173.791 67.0827 162.812C49.3741 151.834 75.3559 124.596 98.5231 87.2268C121.69 49.8576 133.27 16.5077 150.979 27.4862Z" fill="#D1B052"/>
<path d="M150.715 27.9112C155.152 30.662 159.238 33.2564 162.278 36.6484C165.297 40.0184 167.291 44.1861 167.498 50.1076C167.705 56.0514 166.113 63.7836 161.901 74.2624C157.69 84.7372 150.873 97.9245 140.667 114.768C130.474 131.591 121.871 143.655 114.43 152.119C106.986 160.585 100.727 165.424 95.2265 167.833C84.3014 172.618 76.2161 167.886 67.3461 162.387C65.1971 161.055 63.7367 159.493 62.8459 157.721C61.9545 155.947 61.6163 153.929 61.7655 151.658C62.0652 147.095 64.3282 141.575 67.911 135.16C71.4874 128.756 76.341 121.523 81.7603 113.539C82.2146 112.87 82.6728 112.195 83.1346 111.516C88.1766 104.094 93.6361 96.0586 98.9481 87.4903C104.305 78.8493 109.043 70.4234 113.375 62.7187C113.732 62.0836 114.087 61.4535 114.438 60.8285C119.061 52.6144 123.223 45.3057 127.21 39.5095C131.204 33.7022 134.981 29.4791 138.811 27.3721C140.715 26.3243 142.622 25.8057 144.575 25.8682C146.528 25.9306 148.561 26.5758 150.715 27.9112Z" stroke="#BD9435"/>
<g filter="url(#filter2_i_997_12644)">
<ellipse cx="105.559" cy="93.4266" rx="78.7335" ry="21.2564" transform="rotate(-58.203 105.559 93.4266)" fill="#F2EDCF"/>
</g>
<path d="M146.781 26.9344C149.048 28.34 150.255 31.4523 150.317 36.1343C150.378 40.7884 149.302 46.8399 147.19 53.8852C142.967 67.9686 134.64 85.9111 123.2 104.363C111.761 122.816 99.3938 138.254 88.6574 148.299C83.2865 153.324 78.345 156.979 74.1493 158.994C69.9284 161.021 66.6042 161.324 64.3369 159.919C62.0696 158.513 60.8629 155.401 60.8013 150.719C60.7401 146.065 61.8163 140.013 63.9284 132.968C68.1506 118.885 76.4781 100.942 87.9177 82.4898C99.3573 64.0375 111.724 48.5993 122.461 38.5544C127.831 33.5293 132.773 29.8742 136.969 27.8592C141.19 25.8321 144.514 25.5288 146.781 26.9344Z" stroke="#BD9435"/>
<g filter="url(#filter3_i_997_12644)">
<ellipse cx="108.647" cy="88.2839" rx="69.8108" ry="17.9375" transform="rotate(-58.203 108.647 88.2839)" fill="#E7DBA1"/>
</g>
<path d="M99.8927 130.081L97.9035 72.3723L103.172 64.205L111.29 53.6883L114.859 110.701L108.348 119.642L99.8927 130.081Z" fill="#D1B052" fill-opacity="0.3"/>
<path d="M117.731 106.999L113.469 51.1825L119.018 44.8531L126.64 37.2335L130.82 85.5271L124.954 95.5046L117.731 106.999Z" fill="#D1B052" fill-opacity="0.3"/>
<path d="M145.168 29.3752C147.036 30.5331 148.012 33.1896 147.975 37.2874C147.938 41.3505 146.903 46.6602 144.961 52.8625C141.079 65.2596 133.61 81.1124 123.468 97.4719C113.326 113.831 102.448 127.571 93.0711 136.561C88.3796 141.059 84.0844 144.348 80.4616 146.188C76.8078 148.044 73.9942 148.35 72.1266 147.193C70.2589 146.035 69.2824 143.378 69.3196 139.28C69.3564 135.217 70.3918 129.908 72.3339 123.705C76.2158 111.308 83.6846 95.4554 93.8267 79.0959C103.969 62.7363 114.846 48.9967 124.223 40.0064C128.915 35.5086 133.21 32.2198 136.833 30.3799C140.487 28.5242 143.3 28.2174 145.168 29.3752Z" stroke="#BD9435"/>
<defs>
<filter id="filter0_i_997_12644" x="13.6972" y="89.1006" width="222.065" height="123.983" filterUnits="userSpaceOnUse" color-interpolation-filters="sRGB">
<feFlood flood-opacity="0" result="BackgroundImageFix"/>
<feBlend mode="normal" in="SourceGraphic" in2="BackgroundImageFix" result="shape"/>
<feColorMatrix in="SourceAlpha" type="matrix" values="0 0 0 0 0 0 0 0 0 0 0 0 0 0 0 0 0 0 127 0" result="hardAlpha"/>
<feOffset dx="8"/>
<feComposite in2="hardAlpha" operator="arithmetic" k2="-1" k3="1"/>
<feColorMatrix type="matrix" values="0 0 0 0 0.928467 0 0 0 0 0.863676 0 0 0 0 0.6186 0 0 0 1 0"/>
<feBlend mode="normal" in2="shape" result="effect1_innerShadow_997_12644"/>
</filter>
<filter id="filter1_i_997_12644" x="34.6872" y="92.46" width="196.735" height="108.738" filterUnits="userSpaceOnUse" color-interpolation-filters="sRGB">
<feFlood flood-opacity="0" result="BackgroundImageFix"/>
<feBlend mode="normal" in="SourceGraphic" in2="BackgroundImageFix" result="shape"/>
<feColorMatrix in="SourceAlpha" type="matrix" values="0 0 0 0 0 0 0 0 0 0 0 0 0 0 0 0 0 0 127 0" result="hardAlpha"/>
<feOffset dx="20"/>
<feComposite in2="hardAlpha" operator="arithmetic" k2="-1" k3="1"/>
<feColorMatrix type="matrix" values="0 0 0 0 0.819608 0 0 0 0 0.690196 0 0 0 0 0.321569 0 0 0 1 0"/>
<feBlend mode="normal" in2="shape" result="effect1_innerShadow_997_12644"/>
</filter>
<filter id="filter2_i_997_12644" x="60.2989" y="25.5684" width="90.5203" height="135.717" filterUnits="userSpaceOnUse" color-interpolation-filters="sRGB">
<feFlood flood-opacity="0" result="BackgroundImageFix"/>
<feBlend mode="normal" in="SourceGraphic" in2="BackgroundImageFix" result="shape"/>
<feColorMatrix in="SourceAlpha" type="matrix" values="0 0 0 0 0 0 0 0 0 0 0 0 0 0 0 0 0 0 127 0" result="hardAlpha"/>
<feOffset dx="8"/>
<feComposite in2="hardAlpha" operator="arithmetic" k2="-1" k3="1"/>
<feColorMatrix type="matrix" values="0 0 0 0 0.928467 0 0 0 0 0.863676 0 0 0 0 0.6186 0 0 0 1 0"/>
<feBlend mode="normal" in2="shape" result="effect1_innerShadow_997_12644"/>
</filter>
<filter id="filter3_i_997_12644" x="68.8185" y="28.1934" width="79.6574" height="120.181" filterUnits="userSpaceOnUse" color-interpolation-filters="sRGB">
<feFlood flood-opacity="0" result="BackgroundImageFix"/>
<feBlend mode="normal" in="SourceGraphic" in2="BackgroundImageFix" result="shape"/>
<feColorMatrix in="SourceAlpha" type="matrix" values="0 0 0 0 0 0 0 0 0 0 0 0 0 0 0 0 0 0 127 0" result="hardAlpha"/>
<feOffset dx="20"/>
<feComposite in2="hardAlpha" operator="arithmetic" k2="-1" k3="1"/>
<feColorMatrix type="matrix" values="0 0 0 0 0.819608 0 0 0 0 0.690196 0 0 0 0 0.321569 0 0 0 1 0"/>
<feBlend mode="normal" in2="shape" result="effect1_innerShadow_997_12644"/>
</filter>
</defs>
</svg>
