<svg width="609" height="400" viewBox="0 0 609 400" fill="none" xmlns="http://www.w3.org/2000/svg">
<g clip-path="url(#clip0_988_9860)">
<path d="M914.088 220.762C914.088 323.908 830.66 407.524 727.747 407.524C624.833 407.524 541.405 323.908 541.405 220.762C541.405 117.616 624.833 34 727.747 34C830.66 34 914.088 117.616 914.088 220.762ZM590.802 220.762C590.802 296.565 652.114 358.015 727.747 358.015C803.379 358.015 864.691 296.565 864.691 220.762C864.691 144.959 803.379 83.5084 727.747 83.5084C652.114 83.5084 590.802 144.959 590.802 220.762Z" fill="url(#paint0_linear_988_9860)"/>
<path d="M847.128 216.135C847.128 281.601 793.869 334.675 728.167 334.675C662.466 334.675 609.207 281.601 609.207 216.135C609.207 150.669 662.466 97.5952 728.167 97.5952C793.869 97.5952 847.128 150.669 847.128 216.135Z" stroke="#59AE9B"/>
<rect x="416.057" y="284.698" width="622.54" height="22.7143" fill="#1B4A44"/>
<path d="M622.783 224.735C624.204 224.331 625.674 224.127 627.151 224.127H827.938C829.418 224.127 830.891 224.332 832.314 224.737L1040.99 284.068C1041.83 284.306 1041.66 285.54 1040.79 285.54H413.876C413.006 285.54 412.834 284.306 413.671 284.068L622.783 224.735Z" fill="#8ACBBA"/>
<path d="M622.561 232.628C622.751 232.569 622.949 232.54 623.149 232.54H826.941C827.135 232.54 827.329 232.568 827.515 232.624L957.382 271.529C959.59 272.19 959.113 275.444 956.808 275.444H496.664C494.368 275.444 493.881 272.208 496.076 271.533L622.561 232.628Z" fill="#59AE9B"/>
<path d="M629.734 238.708C629.802 238.689 629.872 238.679 629.942 238.679H822.315C822.385 238.679 822.455 238.688 822.522 238.708L924.011 267.835C924.847 268.074 924.674 269.306 923.804 269.306H529.121C528.253 269.306 528.079 268.076 528.913 267.835L629.734 238.708Z" stroke="#8ACBBA" stroke-width="0.5"/>
<path d="M328.923 308.126C334.581 306.528 340.432 305.718 346.311 305.718H1107.98C1113.82 305.718 1119.62 306.516 1125.24 308.09L1495.24 411.718H-38.0283L328.923 308.126Z" fill="#8ACBBA"/>
<path d="M330.595 327.889C336.626 326.057 342.893 325.127 349.195 325.127H1101.44C1107.65 325.127 1113.82 326.029 1119.77 327.806L1435.52 422.169H20.1973L330.595 327.889Z" fill="#59AE9B"/>
<path d="M339.778 340.495C341.254 340.041 342.79 339.81 344.334 339.81H1104.75C1106.24 339.81 1107.72 340.026 1109.16 340.45L1401.39 427.14C1418.54 432.226 1414.87 457.5 1396.99 457.5H62.4551C44.6625 457.5 40.8922 432.415 57.8988 427.185L339.778 340.495Z" stroke="#8ACBBA"/>
<path d="M329.059 308.607C334.673 307.022 340.478 306.218 346.311 306.218H1107.98C1113.77 306.218 1119.53 307.01 1125.11 308.571L1491.6 411.218H-34.4168L329.059 308.607Z" stroke="#8ACBBA"/>
<path d="M509.478 106.725L527.405 101.264C527.955 101.096 528.551 101.174 529.04 101.476L537.159 106.502C538.337 107.231 539.053 108.518 539.053 109.903V294.508C539.053 296.315 537.843 297.897 536.1 298.369L266.967 371.304C266.263 371.495 265.52 371.489 264.818 371.288L253.47 368.034C252.217 367.674 251.637 366.232 252.293 365.105L262.751 347.14C263.114 346.517 263.638 346.004 264.268 345.654L281.264 336.225C282.133 335.743 282.791 334.954 283.111 334.013L294.749 299.742C295.206 298.396 296.343 297.394 297.735 297.109L345.436 287.359C346.94 287.051 348.136 285.91 348.512 284.421L363.086 226.797C363.367 225.687 364.11 224.75 365.127 224.224L386.302 213.276C387.038 212.895 387.638 212.295 388.019 211.558L409.837 169.32C410.217 168.586 410.815 167.987 411.549 167.606L425.221 160.512C426.802 159.691 428.735 160.015 429.963 161.306L445.746 177.912C447.462 179.717 450.394 179.532 451.869 177.525L473.312 148.342C473.675 147.847 474.148 147.442 474.693 147.16L490.224 139.101C490.947 138.726 491.538 138.139 491.919 137.419L507.107 108.683C507.605 107.74 508.458 107.036 509.478 106.725Z" stroke="#277467"/>
<path d="M509.478 106.725L527.405 101.264C527.955 101.096 528.551 101.174 529.04 101.476L537.159 106.502C538.337 107.231 539.053 108.518 539.053 109.903V294.508C539.053 296.315 537.843 297.897 536.1 298.369L266.967 371.304C266.263 371.495 265.52 371.489 264.818 371.288L253.47 368.034C252.217 367.674 251.637 366.232 252.293 365.105L262.751 347.14C263.114 346.517 263.638 346.004 264.268 345.654L281.264 336.225C282.133 335.743 282.791 334.954 283.111 334.013L294.749 299.742C295.206 298.396 296.343 297.394 297.735 297.109L345.436 287.359C346.94 287.051 348.136 285.91 348.512 284.421L363.086 226.797C363.367 225.687 364.11 224.75 365.127 224.224L386.302 213.276C387.038 212.895 387.638 212.295 388.019 211.558L409.837 169.32C410.217 168.586 410.815 167.987 411.549 167.606L425.221 160.512C426.802 159.691 428.735 160.015 429.963 161.306L445.746 177.912C447.462 179.717 450.394 179.532 451.869 177.525L473.312 148.342C473.675 147.847 474.148 147.442 474.693 147.16L490.224 139.101C490.947 138.726 491.538 138.139 491.919 137.419L507.107 108.683C507.605 107.74 508.458 107.036 509.478 106.725Z" fill="#59AE9B"/>
<path d="M535.811 304.483L266.335 371.215C262.904 372.065 260.138 368.374 261.916 365.32L268.913 353.301C269.276 352.678 269.8 352.165 270.43 351.816L287.426 342.386C288.295 341.904 288.953 341.116 289.273 340.175L300.911 305.903C301.368 304.557 302.505 303.555 303.897 303.271L351.598 293.52C353.102 293.213 354.298 292.071 354.675 290.582L369.248 232.958C369.529 231.848 370.272 230.912 371.289 230.386L392.464 219.437C393.2 219.056 393.8 218.456 394.181 217.72L415.999 175.482C416.379 174.747 416.977 174.148 417.711 173.767L431.383 166.673C432.964 165.853 434.898 166.177 436.125 167.468L451.908 184.073C453.624 185.879 456.556 185.693 458.031 183.686L479.474 154.503C479.837 154.008 480.31 153.604 480.855 153.321L496.387 145.262C497.109 144.887 497.7 144.301 498.081 143.581L513.256 114.869C513.762 113.912 514.633 113.201 515.672 112.898L533.729 107.629C536.289 106.882 538.849 108.802 538.849 111.469V300.6C538.849 302.439 537.596 304.041 535.811 304.483Z" stroke="#277467"/>
<path d="M535.811 304.483L266.335 371.215C262.904 372.065 260.138 368.374 261.916 365.32L268.913 353.301C269.276 352.678 269.8 352.165 270.43 351.816L287.426 342.386C288.295 341.904 288.953 341.116 289.273 340.175L300.911 305.903C301.368 304.557 302.505 303.555 303.897 303.271L351.598 293.52C353.102 293.213 354.298 292.071 354.675 290.582L369.248 232.958C369.529 231.848 370.272 230.912 371.289 230.386L392.464 219.437C393.2 219.056 393.8 218.456 394.181 217.72L415.999 175.482C416.379 174.747 416.977 174.148 417.711 173.767L431.383 166.673C432.964 165.853 434.898 166.177 436.125 167.468L451.908 184.073C453.624 185.879 456.556 185.693 458.031 183.686L479.474 154.503C479.837 154.008 480.31 153.604 480.855 153.321L496.387 145.262C497.109 144.887 497.7 144.301 498.081 143.581L513.256 114.869C513.762 113.912 514.633 113.201 515.672 112.898L533.729 107.629C536.289 106.882 538.849 108.802 538.849 111.469V300.6C538.849 302.439 537.596 304.041 535.811 304.483Z" fill="#389181"/>
<path d="M263.323 345.922L269.485 352.084" stroke="#277467" stroke-width="0.6"/>
<path d="M282.321 335.14L288.483 341.301" stroke="#277467" stroke-width="0.6"/>
<path d="M295.671 298.17L301.832 303.818" stroke="#277467" stroke-width="0.6"/>
<path d="M347.018 286.36L353.179 292.522" stroke="#277467" stroke-width="0.6"/>
<path d="M363.448 225.258L369.61 231.42" stroke="#277467" stroke-width="0.6"/>
<path d="M387.068 212.422L393.23 218.583" stroke="#277467" stroke-width="0.6"/>
<path d="M410.688 168.264L416.336 174.425" stroke="#277467" stroke-width="0.6"/>
<path d="M473.844 147.725L480.005 153.887" stroke="#277467" stroke-width="0.6"/>
<path d="M490.788 138.483L497.463 144.131" stroke="#277467" stroke-width="0.6"/>
<path d="M508.245 107.162L514.407 113.323" stroke="#277467" stroke-width="0.6"/>
<path d="M573.147 127.264L591.074 121.802C591.624 121.635 592.22 121.712 592.709 122.015L600.828 127.041C602.005 127.77 602.722 129.057 602.722 130.442V315.047C602.722 316.853 601.512 318.435 599.768 318.908L330.636 391.842C329.932 392.033 329.189 392.028 328.487 391.827L317.139 388.572C315.886 388.213 315.306 386.77 315.962 385.644L326.42 367.678C326.783 367.056 327.306 366.542 327.936 366.193L344.932 356.763C345.801 356.281 346.46 355.493 346.779 354.552L358.418 320.28C358.875 318.935 360.011 317.932 361.404 317.648L409.105 307.898C410.609 307.59 411.805 306.448 412.181 304.959L426.755 247.335C427.036 246.225 427.779 245.289 428.796 244.763L449.971 233.814C450.707 233.433 451.307 232.833 451.688 232.097L473.506 189.859C473.886 189.124 474.484 188.525 475.218 188.144L488.89 181.05C490.471 180.23 492.404 180.554 493.632 181.845L509.415 198.45C511.131 200.256 514.063 200.071 515.538 198.063L536.981 168.88C537.344 168.385 537.817 167.981 538.362 167.698L553.893 159.639C554.616 159.264 555.207 158.678 555.588 157.958L570.776 129.221C571.274 128.279 572.127 127.574 573.147 127.264Z" stroke="#277467"/>
<path d="M573.147 127.264L591.074 121.802C591.624 121.635 592.22 121.712 592.709 122.015L600.828 127.041C602.005 127.77 602.722 129.057 602.722 130.442V315.047C602.722 316.853 601.512 318.435 599.768 318.908L330.636 391.842C329.932 392.033 329.189 392.028 328.487 391.827L317.139 388.572C315.886 388.213 315.306 386.77 315.962 385.644L326.42 367.678C326.783 367.056 327.306 366.542 327.936 366.193L344.932 356.763C345.801 356.281 346.46 355.493 346.779 354.552L358.418 320.28C358.875 318.935 360.011 317.932 361.404 317.648L409.105 307.898C410.609 307.59 411.805 306.448 412.181 304.959L426.755 247.335C427.036 246.225 427.779 245.289 428.796 244.763L449.971 233.814C450.707 233.433 451.307 232.833 451.688 232.097L473.506 189.859C473.886 189.124 474.484 188.525 475.218 188.144L488.89 181.05C490.471 180.23 492.404 180.554 493.632 181.845L509.415 198.45C511.131 200.256 514.063 200.071 515.538 198.063L536.981 168.88C537.344 168.385 537.817 167.981 538.362 167.698L553.893 159.639C554.616 159.264 555.207 158.678 555.588 157.958L570.776 129.221C571.274 128.279 572.127 127.574 573.147 127.264Z" fill="#8ACBBA"/>
<path d="M599.48 325.021L330.004 391.754C326.573 392.604 323.807 388.913 325.585 385.859L332.582 373.84C332.945 373.217 333.469 372.704 334.099 372.355L351.095 362.925C351.964 362.443 352.622 361.654 352.942 360.713L364.58 326.442C365.037 325.096 366.174 324.094 367.566 323.809L415.267 314.059C416.771 313.752 417.967 312.61 418.343 311.121L432.917 253.497C433.198 252.387 433.941 251.45 434.958 250.925L456.133 239.976C456.869 239.595 457.469 238.995 457.85 238.258L479.668 196.021C480.048 195.286 480.646 194.687 481.38 194.306L495.052 187.212C496.633 186.391 498.567 186.715 499.794 188.006L515.577 204.612C517.293 206.418 520.225 206.232 521.7 204.225L543.143 175.042C543.506 174.547 543.979 174.143 544.524 173.86L560.056 165.801C560.778 165.426 561.369 164.839 561.75 164.12L576.925 135.407C577.431 134.451 578.302 133.74 579.341 133.436L597.398 128.167C599.958 127.42 602.518 129.34 602.518 132.007V321.139C602.518 322.977 601.265 324.579 599.48 325.021Z" stroke="#277467"/>
<path d="M599.48 325.021L330.004 391.754C326.573 392.604 323.807 388.913 325.585 385.859L332.582 373.84C332.945 373.217 333.469 372.704 334.099 372.355L351.095 362.925C351.964 362.443 352.622 361.654 352.942 360.713L364.58 326.442C365.037 325.096 366.174 324.094 367.566 323.809L415.267 314.059C416.771 313.752 417.967 312.61 418.343 311.121L432.917 253.497C433.198 252.387 433.941 251.45 434.958 250.925L456.133 239.976C456.869 239.595 457.469 238.995 457.85 238.258L479.668 196.021C480.048 195.286 480.646 194.687 481.38 194.306L495.052 187.212C496.633 186.391 498.567 186.715 499.794 188.006L515.577 204.612C517.293 206.418 520.225 206.232 521.7 204.225L543.143 175.042C543.506 174.547 543.979 174.143 544.524 173.86L560.056 165.801C560.778 165.426 561.369 164.839 561.75 164.12L576.925 135.407C577.431 134.451 578.302 133.74 579.341 133.436L597.398 128.167C599.958 127.42 602.518 129.34 602.518 132.007V321.139C602.518 322.977 601.265 324.579 599.48 325.021Z" fill="#59AE9B"/>
<path d="M326.992 366.461L333.154 372.622" stroke="#277467" stroke-width="0.6"/>
<path d="M345.99 355.678L352.152 361.84" stroke="#277467" stroke-width="0.6"/>
<path d="M359.341 318.709L365.502 324.357" stroke="#277467" stroke-width="0.6"/>
<path d="M410.688 306.899L416.849 313.061" stroke="#277467" stroke-width="0.6"/>
<path d="M427.118 245.797L433.28 251.958" stroke="#277467" stroke-width="0.6"/>
<path d="M450.737 232.96L456.899 239.122" stroke="#277467" stroke-width="0.6"/>
<path d="M474.356 188.802L480.005 194.964" stroke="#277467" stroke-width="0.6"/>
<path d="M537.513 168.264L543.674 174.425" stroke="#277467" stroke-width="0.6"/>
<path d="M554.457 159.021L561.132 164.669" stroke="#277467" stroke-width="0.6"/>
<path d="M571.915 127.7L578.077 133.862" stroke="#277467" stroke-width="0.6"/>
<path d="M640.925 164.233L658.852 158.772C659.402 158.604 659.998 158.682 660.487 158.985L668.606 164.01C669.784 164.739 670.501 166.026 670.501 167.411V352.016C670.501 353.823 669.29 355.405 667.547 355.877L398.414 428.812C397.71 429.003 396.967 428.997 396.265 428.796L384.917 425.542C383.664 425.182 383.084 423.74 383.74 422.613L394.198 404.648C394.561 404.025 395.085 403.512 395.715 403.162L412.711 393.733C413.58 393.251 414.238 392.462 414.558 391.521L426.196 357.25C426.653 355.904 427.79 354.902 429.182 354.617L476.883 344.867C478.387 344.559 479.583 343.418 479.96 341.929L494.533 284.305C494.814 283.195 495.557 282.258 496.574 281.732L517.749 270.784C518.486 270.403 519.086 269.803 519.466 269.066L541.285 226.828C541.664 226.094 542.262 225.495 542.996 225.114L556.668 218.02C558.25 217.199 560.183 217.523 561.41 218.814L577.193 235.42C578.909 237.226 581.841 237.04 583.316 235.033L604.759 205.85C605.123 205.355 605.595 204.951 606.14 204.668L621.672 196.609C622.394 196.234 622.985 195.647 623.366 194.927L638.554 166.191C639.052 165.248 639.905 164.544 640.925 164.233Z" stroke="#277467"/>
<path d="M640.925 164.233L658.852 158.772C659.402 158.604 659.998 158.682 660.487 158.985L668.606 164.01C669.784 164.739 670.501 166.026 670.501 167.411V352.016C670.501 353.823 669.29 355.405 667.547 355.877L398.414 428.812C397.71 429.003 396.967 428.997 396.265 428.796L384.917 425.542C383.664 425.182 383.084 423.74 383.74 422.613L394.198 404.648C394.561 404.025 395.085 403.512 395.715 403.162L412.711 393.733C413.58 393.251 414.238 392.462 414.558 391.521L426.196 357.25C426.653 355.904 427.79 354.902 429.182 354.617L476.883 344.867C478.387 344.559 479.583 343.418 479.96 341.929L494.533 284.305C494.814 283.195 495.557 282.258 496.574 281.732L517.749 270.784C518.486 270.403 519.086 269.803 519.466 269.066L541.285 226.828C541.664 226.094 542.262 225.495 542.996 225.114L556.668 218.02C558.25 217.199 560.183 217.523 561.41 218.814L577.193 235.42C578.909 237.226 581.841 237.04 583.316 235.033L604.759 205.85C605.123 205.355 605.595 204.951 606.14 204.668L621.672 196.609C622.394 196.234 622.985 195.647 623.366 194.927L638.554 166.191C639.052 165.248 639.905 164.544 640.925 164.233Z" fill="#A8DACA"/>
<path d="M667.257 361.991L397.781 428.724C394.351 429.573 391.585 425.883 393.363 422.828L400.36 410.809C400.722 410.187 401.246 409.674 401.876 409.324L418.872 399.894C419.741 399.412 420.399 398.624 420.719 397.683L432.357 363.412C432.814 362.066 433.951 361.063 435.343 360.779L483.044 351.029C484.549 350.721 485.744 349.579 486.121 348.09L500.695 290.466C500.975 289.356 501.718 288.42 502.735 287.894L523.91 276.945C524.647 276.565 525.247 275.964 525.627 275.228L547.446 232.99C547.825 232.255 548.423 231.656 549.157 231.275L562.83 224.181C564.411 223.361 566.344 223.685 567.571 224.976L583.354 241.581C585.071 243.387 588.002 243.202 589.477 241.194L610.92 212.011C611.284 211.517 611.756 211.112 612.301 210.829L627.833 202.77C628.556 202.395 629.147 201.809 629.527 201.089L644.702 172.377C645.208 171.42 646.08 170.709 647.118 170.406L665.175 165.137C667.735 164.39 670.296 166.31 670.296 168.977V358.108C670.296 359.947 669.042 361.549 667.257 361.991Z" stroke="#277467"/>
<path d="M667.257 361.991L397.781 428.724C394.351 429.573 391.585 425.883 393.363 422.828L400.36 410.809C400.722 410.187 401.246 409.673 401.876 409.324L418.872 399.894C419.741 399.412 420.399 398.624 420.719 397.683L432.357 363.411C432.814 362.066 433.951 361.063 435.343 360.779L483.044 351.029C484.549 350.721 485.744 349.579 486.121 348.09L500.695 290.466C500.975 289.356 501.718 288.42 502.735 287.894L523.91 276.945C524.647 276.565 525.247 275.964 525.627 275.228L547.446 232.99C547.825 232.255 548.423 231.656 549.157 231.275L562.83 224.181C564.411 223.361 566.344 223.685 567.571 224.976L583.354 241.581C585.071 243.387 588.002 243.202 589.477 241.194L610.92 212.011C611.284 211.517 611.756 211.112 612.301 210.829L627.833 202.77C628.556 202.395 629.147 201.809 629.527 201.089L644.702 172.377C645.208 171.42 646.08 170.709 647.118 170.406L665.175 165.137C667.735 164.39 670.296 166.31 670.296 168.977V358.108C670.296 359.947 669.042 361.549 667.257 361.991Z" fill="#8ACBBA"/>
<path d="M413.769 392.648L419.93 398.809" stroke="#277467" stroke-width="0.6"/>
<path d="M427.118 355.678L433.28 361.326" stroke="#277467" stroke-width="0.6"/>
<path d="M478.465 343.869L484.626 350.03" stroke="#277467" stroke-width="0.6"/>
<path d="M494.896 282.766L501.057 288.928" stroke="#277467" stroke-width="0.6"/>
<path d="M518.515 269.93L524.676 276.091" stroke="#277467" stroke-width="0.6"/>
<path d="M542.134 225.772L547.782 231.933" stroke="#277467" stroke-width="0.6"/>
<path d="M605.29 205.233L611.452 211.395" stroke="#277467" stroke-width="0.6"/>
<g filter="url(#filter0_d_988_9860)">
<path d="M274.5 355.153V351.153L367.5 323.653L369 327.153L274.5 355.153Z" fill="#D1B052"/>
<path d="M367.329 324.016L368.591 326.961L274.8 354.751V351.377L367.329 324.016Z" stroke="#BD9435" stroke-width="0.6"/>
</g>
<g filter="url(#filter1_d_988_9860)">
<path d="M367.5 329.653L367 324.153L436.5 250.153V256.653L367.5 329.653Z" fill="#D1B052"/>
<path d="M436.2 256.534L367.739 328.964L367.311 324.26L436.2 250.911V256.534Z" stroke="#BD9435" stroke-width="0.6"/>
</g>
<g filter="url(#filter2_d_988_9860)">
<path d="M548 239.153L546 233.653L610 136.653L613 140.653L548 239.153Z" fill="#D1B052"/>
<path d="M612.633 140.664L548.078 238.49L546.334 233.692L610.016 137.174L612.633 140.664Z" stroke="#BD9435" stroke-width="0.6"/>
</g>
<g filter="url(#filter3_d_988_9860)">
<path d="M438 254.653L437 250.153L549 230.153L546 235.153L438 254.653Z" fill="#D1B052"/>
<path d="M545.813 234.882L438.23 254.307L437.361 250.393L548.403 230.564L545.813 234.882Z" stroke="#BD9435" stroke-width="0.6"/>
</g>
<ellipse cx="275.456" cy="351.451" rx="7.54511" ry="11.1472" transform="rotate(-16.0339 275.456 351.451)" fill="#D1B052"/>
<path d="M282.227 349.505C283.053 352.38 283.005 355.189 282.285 357.398C281.564 359.61 280.192 361.168 278.396 361.684C276.601 362.199 274.611 361.608 272.826 360.116C271.042 358.627 269.511 356.272 268.684 353.396C267.858 350.521 267.906 347.712 268.626 345.504C269.347 343.291 270.719 341.734 272.515 341.218C274.31 340.702 276.3 341.293 278.085 342.785C279.869 344.275 281.4 346.629 282.227 349.505Z" stroke="#BD9435"/>
<ellipse cx="273.062" cy="352.064" rx="7.29954" ry="11.0304" transform="rotate(-16.0339 273.062 352.064)" fill="#E7DBA1"/>
<path d="M279.597 350.185C280.415 353.032 280.385 355.807 279.7 357.984C279.014 360.166 277.696 361.689 275.971 362.184C274.246 362.68 272.32 362.09 270.58 360.605C268.844 359.124 267.345 356.788 266.527 353.942C265.709 351.095 265.739 348.32 266.424 346.143C267.11 343.961 268.429 342.438 270.154 341.943C271.879 341.447 273.804 342.038 275.544 343.522C277.28 345.003 278.779 347.339 279.597 350.185Z" stroke="#BD9435"/>
<ellipse cx="272.76" cy="352.028" rx="3.36267" ry="5.08139" transform="rotate(-16.0339 272.76 352.028)" fill="#D1B052"/>
<ellipse cx="370.456" cy="324.451" rx="7.54511" ry="11.1472" transform="rotate(-16.0339 370.456 324.451)" fill="#D1B052"/>
<path d="M377.227 322.505C378.053 325.38 378.005 328.189 377.285 330.398C376.564 332.61 375.192 334.168 373.396 334.684C371.601 335.199 369.611 334.608 367.826 333.116C366.042 331.627 364.511 329.272 363.684 326.396C362.858 323.521 362.906 320.712 363.626 318.504C364.347 316.291 365.719 314.734 367.515 314.218C369.31 313.702 371.3 314.293 373.085 315.785C374.869 317.275 376.4 319.629 377.227 322.505Z" stroke="#BD9435"/>
<ellipse cx="368.062" cy="325.064" rx="7.29954" ry="11.0304" transform="rotate(-16.0339 368.062 325.064)" fill="#E7DBA1"/>
<path d="M374.597 323.185C375.415 326.032 375.385 328.807 374.7 330.984C374.014 333.166 372.696 334.689 370.971 335.184C369.246 335.68 367.32 335.09 365.58 333.605C363.844 332.124 362.345 329.788 361.527 326.942C360.709 324.095 360.739 321.32 361.424 319.143C362.11 316.961 363.429 315.438 365.154 314.943C366.879 314.447 368.804 315.038 370.544 316.522C372.28 318.003 373.779 320.339 374.597 323.185Z" stroke="#BD9435"/>
<ellipse cx="367.76" cy="325.028" rx="3.36267" ry="5.08139" transform="rotate(-16.0339 367.76 325.028)" fill="#D1B052"/>
<ellipse cx="438.456" cy="251.451" rx="7.54511" ry="11.1472" transform="rotate(-16.0339 438.456 251.451)" fill="#D1B052"/>
<path d="M445.227 249.505C446.053 252.38 446.005 255.189 445.285 257.398C444.564 259.61 443.192 261.168 441.396 261.684C439.601 262.199 437.611 261.608 435.826 260.116C434.042 258.627 432.511 256.272 431.684 253.396C430.858 250.521 430.906 247.712 431.626 245.504C432.347 243.291 433.719 241.734 435.515 241.218C437.31 240.702 439.3 241.293 441.085 242.785C442.869 244.275 444.4 246.629 445.227 249.505Z" stroke="#BD9435"/>
<ellipse cx="436.062" cy="252.064" rx="7.29954" ry="11.0304" transform="rotate(-16.0339 436.062 252.064)" fill="#E7DBA1"/>
<path d="M442.597 250.185C443.415 253.032 443.385 255.807 442.7 257.984C442.014 260.166 440.696 261.689 438.971 262.184C437.246 262.68 435.32 262.09 433.58 260.605C431.844 259.124 430.345 256.788 429.527 253.942C428.709 251.095 428.739 248.32 429.424 246.143C430.11 243.961 431.429 242.438 433.154 241.943C434.879 241.447 436.804 242.038 438.544 243.522C440.28 245.003 441.779 247.339 442.597 250.185Z" stroke="#BD9435"/>
<ellipse cx="435.76" cy="252.028" rx="3.36267" ry="5.08139" transform="rotate(-16.0339 435.76 252.028)" fill="#D1B052"/>
<ellipse cx="549.456" cy="233.451" rx="7.54511" ry="11.1472" transform="rotate(-16.0339 549.456 233.451)" fill="#D1B052"/>
<path d="M556.227 231.505C557.053 234.38 557.005 237.189 556.285 239.398C555.564 241.61 554.192 243.168 552.396 243.684C550.601 244.199 548.611 243.608 546.826 242.116C545.042 240.627 543.511 238.272 542.684 235.396C541.858 232.521 541.906 229.712 542.626 227.504C543.347 225.291 544.719 223.734 546.515 223.218C548.31 222.702 550.3 223.293 552.085 224.785C553.869 226.275 555.4 228.629 556.227 231.505Z" stroke="#BD9435"/>
<ellipse cx="547.062" cy="234.064" rx="7.29954" ry="11.0304" transform="rotate(-16.0339 547.062 234.064)" fill="#E7DBA1"/>
<path d="M553.597 232.185C554.415 235.032 554.385 237.807 553.7 239.984C553.014 242.166 551.696 243.689 549.971 244.184C548.246 244.68 546.32 244.09 544.58 242.605C542.844 241.124 541.345 238.788 540.527 235.942C539.709 233.095 539.739 230.32 540.424 228.143C541.11 225.961 542.429 224.438 544.154 223.943C545.879 223.447 547.804 224.038 549.544 225.522C551.28 227.003 552.779 229.339 553.597 232.185Z" stroke="#BD9435"/>
<ellipse cx="546.76" cy="234.028" rx="3.36267" ry="5.08139" transform="rotate(-16.0339 546.76 234.028)" fill="#D1B052"/>
<ellipse cx="613.456" cy="136.451" rx="7.54511" ry="11.1472" transform="rotate(-16.0339 613.456 136.451)" fill="#D1B052"/>
<path d="M620.227 134.505C621.053 137.38 621.005 140.189 620.285 142.398C619.564 144.61 618.192 146.168 616.396 146.684C614.601 147.199 612.611 146.608 610.826 145.116C609.042 143.627 607.511 141.272 606.684 138.396C605.858 135.521 605.906 132.712 606.626 130.504C607.347 128.291 608.719 126.734 610.515 126.218C612.31 125.702 614.3 126.293 616.085 127.785C617.869 129.275 619.4 131.629 620.227 134.505Z" stroke="#BD9435"/>
<ellipse cx="611.062" cy="137.064" rx="7.29954" ry="11.0304" transform="rotate(-16.0339 611.062 137.064)" fill="#E7DBA1"/>
<path d="M617.597 135.185C618.415 138.032 618.385 140.807 617.7 142.984C617.014 145.166 615.696 146.689 613.971 147.184C612.246 147.68 610.32 147.09 608.58 145.605C606.844 144.124 605.345 141.788 604.527 138.942C603.709 136.095 603.739 133.32 604.424 131.143C605.11 128.961 606.429 127.438 608.154 126.943C609.879 126.447 611.804 127.038 613.544 128.522C615.28 130.003 616.779 132.339 617.597 135.185Z" stroke="#BD9435"/>
<ellipse cx="610.76" cy="137.028" rx="3.36267" ry="5.08139" transform="rotate(-16.0339 610.76 137.028)" fill="#D1B052"/>
</g>
<defs>
<filter id="filter0_d_988_9860" x="270.5" y="323.653" width="98.5" height="31.5" filterUnits="userSpaceOnUse" color-interpolation-filters="sRGB">
<feFlood flood-opacity="0" result="BackgroundImageFix"/>
<feColorMatrix in="SourceAlpha" type="matrix" values="0 0 0 0 0 0 0 0 0 0 0 0 0 0 0 0 0 0 127 0" result="hardAlpha"/>
<feOffset dx="-4"/>
<feComposite in2="hardAlpha" operator="out"/>
<feColorMatrix type="matrix" values="0 0 0 0 0.905882 0 0 0 0 0.858824 0 0 0 0 0.631373 0 0 0 1 0"/>
<feBlend mode="normal" in2="BackgroundImageFix" result="effect1_dropShadow_988_9860"/>
<feBlend mode="normal" in="SourceGraphic" in2="effect1_dropShadow_988_9860" result="shape"/>
</filter>
<filter id="filter1_d_988_9860" x="365" y="250.153" width="71.5" height="79.5" filterUnits="userSpaceOnUse" color-interpolation-filters="sRGB">
<feFlood flood-opacity="0" result="BackgroundImageFix"/>
<feColorMatrix in="SourceAlpha" type="matrix" values="0 0 0 0 0 0 0 0 0 0 0 0 0 0 0 0 0 0 127 0" result="hardAlpha"/>
<feOffset dx="-2"/>
<feComposite in2="hardAlpha" operator="out"/>
<feColorMatrix type="matrix" values="0 0 0 0 0.905882 0 0 0 0 0.858824 0 0 0 0 0.631373 0 0 0 1 0"/>
<feBlend mode="normal" in2="BackgroundImageFix" result="effect1_dropShadow_988_9860"/>
<feBlend mode="normal" in="SourceGraphic" in2="effect1_dropShadow_988_9860" result="shape"/>
</filter>
<filter id="filter2_d_988_9860" x="544" y="136.653" width="69" height="102.5" filterUnits="userSpaceOnUse" color-interpolation-filters="sRGB">
<feFlood flood-opacity="0" result="BackgroundImageFix"/>
<feColorMatrix in="SourceAlpha" type="matrix" values="0 0 0 0 0 0 0 0 0 0 0 0 0 0 0 0 0 0 127 0" result="hardAlpha"/>
<feOffset dx="-2"/>
<feComposite in2="hardAlpha" operator="out"/>
<feColorMatrix type="matrix" values="0 0 0 0 0.905882 0 0 0 0 0.858824 0 0 0 0 0.631373 0 0 0 1 0"/>
<feBlend mode="normal" in2="BackgroundImageFix" result="effect1_dropShadow_988_9860"/>
<feBlend mode="normal" in="SourceGraphic" in2="effect1_dropShadow_988_9860" result="shape"/>
</filter>
<filter id="filter3_d_988_9860" x="429" y="230.153" width="120" height="24.5" filterUnits="userSpaceOnUse" color-interpolation-filters="sRGB">
<feFlood flood-opacity="0" result="BackgroundImageFix"/>
<feColorMatrix in="SourceAlpha" type="matrix" values="0 0 0 0 0 0 0 0 0 0 0 0 0 0 0 0 0 0 127 0" result="hardAlpha"/>
<feOffset dx="-8"/>
<feComposite in2="hardAlpha" operator="out"/>
<feColorMatrix type="matrix" values="0 0 0 0 0.905882 0 0 0 0 0.858824 0 0 0 0 0.631373 0 0 0 1 0"/>
<feBlend mode="normal" in2="BackgroundImageFix" result="effect1_dropShadow_988_9860"/>
<feBlend mode="normal" in="SourceGraphic" in2="effect1_dropShadow_988_9860" result="shape"/>
</filter>
<linearGradient id="paint0_linear_988_9860" x1="727.747" y1="34" x2="727.747" y2="407.524" gradientUnits="userSpaceOnUse">
<stop offset="0.115" stop-color="#59AE9B"/>
<stop offset="1" stop-color="#1B4A44"/>
</linearGradient>
<clipPath id="clip0_988_9860">
<rect width="609" height="400" fill="white"/>
</clipPath>
</defs>
</svg>
