<svg width="421" height="419" viewBox="0 0 421 419" fill="none" xmlns="http://www.w3.org/2000/svg">
<path d="M379.604 160.665C402.45 206.885 418.358 243.426 244.37 331.648C70.584 419.768 49.2489 381.475 26.4023 335.255C3.55569 289.036 93.7543 265.789 191.288 217.577C288.822 169.366 356.757 114.446 379.604 160.665Z" fill="#D1B052"/>
<path d="M379.156 160.887C384.872 172.452 390.115 183.339 392.087 194.561C394.053 205.753 392.764 217.291 385.367 230.156C377.958 243.041 364.411 257.275 341.819 273.809C319.231 290.341 287.629 309.153 244.144 331.202C200.711 353.225 166.822 367.34 140.065 375.408C113.305 383.477 93.7109 385.487 78.8556 383.334C49.2274 379.04 38.282 358.16 26.8505 335.034C24.0283 329.324 22.9646 323.998 23.4253 318.952C23.886 313.905 25.875 309.1 29.2178 304.441C35.9164 295.104 48.0124 286.403 63.9443 277.601C79.8647 268.806 99.549 259.944 121.368 250.261C123.197 249.449 125.041 248.632 126.9 247.808C147.198 238.809 169.161 229.073 191.51 218.026C214.048 206.885 235.006 195.386 254.184 184.864C255.764 183.997 257.332 183.137 258.887 182.284C279.333 171.076 297.662 161.147 313.654 154.168C329.657 147.184 343.248 143.188 354.23 143.779C359.709 144.073 364.528 145.51 368.675 148.279C372.824 151.049 376.331 155.172 379.156 160.887Z" stroke="#BD9435"/>
<g filter="url(#filter0_i_906_20974)">
<ellipse cx="197.962" cy="239.803" rx="194.827" ry="52.5991" transform="rotate(-26.3035 197.962 239.803)" fill="#F2EDCF"/>
</g>
<path d="M372.168 153.692C375.268 159.963 373.562 168.378 367.536 178.35C361.524 188.298 351.288 199.661 337.612 211.724C310.265 235.843 269.25 262.681 221.049 286.508C172.847 310.334 126.617 326.622 90.8473 333.701C72.9587 337.241 57.715 338.473 46.1602 337.208C34.5776 335.94 26.856 332.185 23.7563 325.914C20.6565 319.643 22.362 311.228 28.3886 301.256C34.4008 291.307 44.6363 279.944 58.3125 267.882C85.6592 243.763 126.674 216.924 174.876 193.098C223.077 169.272 269.307 152.984 305.077 145.905C322.966 142.364 338.209 141.133 349.764 142.398C361.347 143.665 369.068 147.421 372.168 153.692Z" stroke="#BD9435"/>
<g filter="url(#filter1_i_906_20974)">
<ellipse cx="211.175" cy="233.036" rx="172.747" ry="44.3865" transform="rotate(-26.3035 211.175 233.036)" fill="#E7DBA1"/>
</g>
<path d="M138.129 309.396L209.41 185.561L231.157 175.292L261.965 163.815L194.912 288.254L169.541 298.523L138.129 309.396Z" fill="#D1B052" fill-opacity="0.3"/>
<path d="M205.786 284.231L269.818 161.398L289.753 155.358L315.728 149.317L261.361 256.238L235.99 269.528L205.786 284.231Z" fill="#D1B052" fill-opacity="0.3"/>
<path d="M365.588 156.709C368.18 161.953 366.564 169.119 361.1 177.723C355.654 186.298 346.475 196.153 334.26 206.665C309.835 227.684 273.359 251.253 230.622 272.379C187.885 293.504 147.008 308.17 115.476 314.811C99.7067 318.133 86.3026 319.441 76.1829 318.56C66.0286 317.676 59.354 314.607 56.7621 309.364C54.1701 304.12 55.7854 296.953 61.2497 288.349C66.6953 279.774 75.8744 269.919 88.0897 259.407C112.515 238.388 148.99 214.819 191.728 193.694C234.465 172.568 275.341 157.902 306.873 151.261C322.643 147.94 336.047 146.632 346.167 147.513C356.321 148.397 362.996 151.465 365.588 156.709Z" stroke="#BD9435"/>
<path d="M334.604 146.084C341.281 157.792 299.017 194.472 240.205 228.009C181.393 261.546 128.303 279.242 121.626 267.533C114.95 255.824 154.426 209.323 213.238 175.786C275.458 149.207 329.495 137.125 334.604 146.084Z" fill="#BD9435" fill-opacity="0.6"/>
<path d="M239.622 43.6245C267.728 61.0488 288.775 75.5547 223.935 182.564C159.171 289.449 134.574 275.828 106.469 258.404C78.363 240.98 119.599 197.75 156.369 138.44C193.138 79.1307 211.516 26.2002 239.622 43.6245Z" fill="#D1B052"/>
<path d="M239.359 44.0495C246.395 48.4117 252.917 52.5501 257.774 57.9702C262.611 63.3682 265.803 70.048 266.134 79.5173C266.465 89.0089 263.922 101.324 257.229 117.974C250.537 134.619 239.711 155.564 223.508 182.305C207.325 209.013 193.661 228.175 181.836 241.626C170.007 255.08 160.04 262.794 151.254 266.642C133.76 274.304 120.801 266.701 106.732 257.979C103.284 255.841 100.924 253.324 99.4821 250.455C98.0394 247.584 97.4973 244.327 97.7367 240.682C98.2171 233.37 101.837 224.562 107.527 214.373C113.211 204.196 120.921 192.705 129.521 180.037C130.242 178.974 130.969 177.904 131.702 176.826C139.705 165.046 148.366 152.297 156.794 138.704C165.292 124.995 172.809 111.627 179.686 99.3984C180.252 98.3907 180.814 97.3908 181.372 96.3991C188.708 83.3646 195.319 71.7528 201.656 62.5406C208.001 53.3174 214.027 46.5653 220.168 43.1863C223.229 41.5025 226.308 40.662 229.468 40.7631C232.628 40.8642 235.905 41.9084 239.359 44.0495Z" stroke="#BD9435"/>
<g filter="url(#filter2_i_906_20974)">
<ellipse cx="167.536" cy="148.281" rx="124.96" ry="33.7366" transform="rotate(-58.203 167.536 148.281)" fill="#F2EDCF"/>
</g>
<path d="M233.115 42.4997C236.847 44.8132 238.767 49.8899 238.865 57.3468C238.963 64.7757 237.246 74.4126 233.89 85.6078C227.179 107.991 213.95 136.492 195.784 165.793C177.618 195.095 157.975 219.619 140.911 235.584C132.377 243.569 124.509 249.393 117.812 252.609C111.089 255.838 105.688 256.375 101.956 254.062C98.2243 251.748 96.304 246.672 96.2059 239.215C96.1083 231.786 97.8251 222.149 101.181 210.954C107.892 188.57 121.121 160.07 139.287 130.768C157.453 101.466 177.096 76.942 194.16 60.9772C202.695 52.9922 210.562 47.1687 217.26 43.9523C223.982 40.7238 229.383 40.1861 233.115 42.4997Z" stroke="#BD9435"/>
<g filter="url(#filter3_i_906_20974)">
<ellipse cx="172.437" cy="140.118" rx="110.799" ry="28.4691" transform="rotate(-58.203 172.437 140.118)" fill="#E7DBA1"/>
</g>
<path d="M158.542 206.455L155.385 114.865L163.746 101.902L176.632 85.2108L182.296 175.697L171.962 189.888L158.542 206.455Z" fill="#D1B052" fill-opacity="0.3"/>
<path d="M186.854 169.822L180.089 81.2337L188.897 71.1881L200.994 59.0948L207.629 135.743L198.318 151.579L186.854 169.822Z" fill="#D1B052" fill-opacity="0.3"/>
<path d="M230.554 46.3732C233.658 48.2972 235.208 52.6584 235.148 59.183C235.09 65.6728 233.437 74.1312 230.351 83.9876C224.181 103.693 212.314 128.876 196.208 154.855C180.102 180.835 162.824 202.662 147.919 216.953C140.463 224.1 133.622 229.342 127.836 232.281C122.018 235.236 117.423 235.787 114.319 233.863C111.216 231.939 109.666 227.578 109.725 221.053C109.784 214.564 111.437 206.105 114.523 196.249C120.693 176.543 132.559 151.36 148.665 125.381C164.771 99.4016 182.05 77.574 196.955 63.2838C204.411 56.136 211.252 50.8943 217.038 47.9554C222.856 45.0008 227.451 44.4491 230.554 46.3732Z" stroke="#BD9435"/>
<defs>
<filter id="filter0_i_906_20974" x="21.7393" y="141.414" width="352.446" height="196.778" filterUnits="userSpaceOnUse" color-interpolation-filters="sRGB">
<feFlood flood-opacity="0" result="BackgroundImageFix"/>
<feBlend mode="normal" in="SourceGraphic" in2="BackgroundImageFix" result="shape"/>
<feColorMatrix in="SourceAlpha" type="matrix" values="0 0 0 0 0 0 0 0 0 0 0 0 0 0 0 0 0 0 127 0" result="hardAlpha"/>
<feOffset dx="8"/>
<feComposite in2="hardAlpha" operator="arithmetic" k2="-1" k3="1"/>
<feColorMatrix type="matrix" values="0 0 0 0 0.928467 0 0 0 0 0.863676 0 0 0 0 0.6186 0 0 0 1 0"/>
<feBlend mode="normal" in2="shape" result="effect1_innerShadow_906_20974"/>
</filter>
<filter id="filter1_i_906_20974" x="55.053" y="146.745" width="312.244" height="172.582" filterUnits="userSpaceOnUse" color-interpolation-filters="sRGB">
<feFlood flood-opacity="0" result="BackgroundImageFix"/>
<feBlend mode="normal" in="SourceGraphic" in2="BackgroundImageFix" result="shape"/>
<feColorMatrix in="SourceAlpha" type="matrix" values="0 0 0 0 0 0 0 0 0 0 0 0 0 0 0 0 0 0 127 0" result="hardAlpha"/>
<feOffset dx="20"/>
<feComposite in2="hardAlpha" operator="arithmetic" k2="-1" k3="1"/>
<feColorMatrix type="matrix" values="0 0 0 0 0.819608 0 0 0 0 0.690196 0 0 0 0 0.321569 0 0 0 1 0"/>
<feBlend mode="normal" in2="shape" result="effect1_innerShadow_906_20974"/>
</filter>
<filter id="filter2_i_906_20974" x="95.702" y="40.5804" width="143.667" height="215.401" filterUnits="userSpaceOnUse" color-interpolation-filters="sRGB">
<feFlood flood-opacity="0" result="BackgroundImageFix"/>
<feBlend mode="normal" in="SourceGraphic" in2="BackgroundImageFix" result="shape"/>
<feColorMatrix in="SourceAlpha" type="matrix" values="0 0 0 0 0 0 0 0 0 0 0 0 0 0 0 0 0 0 127 0" result="hardAlpha"/>
<feOffset dx="8"/>
<feComposite in2="hardAlpha" operator="arithmetic" k2="-1" k3="1"/>
<feColorMatrix type="matrix" values="0 0 0 0 0.928467 0 0 0 0 0.863676 0 0 0 0 0.6186 0 0 0 1 0"/>
<feBlend mode="normal" in2="shape" result="effect1_innerShadow_906_20974"/>
</filter>
<filter id="filter3_i_906_20974" x="109.224" y="44.7468" width="126.426" height="190.743" filterUnits="userSpaceOnUse" color-interpolation-filters="sRGB">
<feFlood flood-opacity="0" result="BackgroundImageFix"/>
<feBlend mode="normal" in="SourceGraphic" in2="BackgroundImageFix" result="shape"/>
<feColorMatrix in="SourceAlpha" type="matrix" values="0 0 0 0 0 0 0 0 0 0 0 0 0 0 0 0 0 0 127 0" result="hardAlpha"/>
<feOffset dx="20"/>
<feComposite in2="hardAlpha" operator="arithmetic" k2="-1" k3="1"/>
<feColorMatrix type="matrix" values="0 0 0 0 0.819608 0 0 0 0 0.690196 0 0 0 0 0.321569 0 0 0 1 0"/>
<feBlend mode="normal" in2="shape" result="effect1_innerShadow_906_20974"/>
</filter>
</defs>
</svg>
