<svg width="609" height="400" viewBox="0 0 609 400" fill="none" xmlns="http://www.w3.org/2000/svg">
<g clip-path="url(#clip0_988_8252)">
<path d="M913.088 220.762C913.088 323.908 829.66 407.524 726.747 407.524C623.833 407.524 540.405 323.908 540.405 220.762C540.405 117.616 623.833 34 726.747 34C829.66 34 913.088 117.616 913.088 220.762ZM589.802 220.762C589.802 296.565 651.114 358.015 726.747 358.015C802.379 358.015 863.691 296.565 863.691 220.762C863.691 144.959 802.379 83.5084 726.747 83.5084C651.114 83.5084 589.802 144.959 589.802 220.762Z" fill="url(#paint0_linear_988_8252)"/>
<path d="M846.128 216.135C846.128 281.601 792.869 334.675 727.167 334.675C661.466 334.675 608.207 281.601 608.207 216.135C608.207 150.669 661.466 97.5952 727.167 97.5952C792.869 97.5952 846.128 150.669 846.128 216.135Z" stroke="#277DD0"/>
<g filter="url(#filter0_f_988_8252)">
<circle cx="422" cy="279" r="50.7454" transform="rotate(21.8779 422 279)" fill="url(#paint1_linear_988_8252)"/>
<circle cx="422" cy="279" r="50.2454" transform="rotate(21.8779 422 279)" stroke="#144E8F"/>
<path d="M388.91 240.887C388.91 240.887 392.735 258.34 403.481 265.005C417.36 273.613 429.388 254.474 444.934 259.478C458.59 263.873 472.318 282.591 472.318 282.591" stroke="#144E8F"/>
<path d="M387.403 242.394C387.403 242.394 383.709 265.522 390.92 277.064C400.857 292.966 427.519 277.116 435.89 293.896C441.853 305.847 434.383 328.063 434.383 328.063" stroke="#144E8F"/>
</g>
<rect x="413" y="285" width="625" height="22" fill="#15345A"/>
<path d="M621.782 224.735C623.203 224.331 624.673 224.127 626.15 224.127H826.937C828.417 224.127 829.89 224.332 831.313 224.737L1039.99 284.068C1040.83 284.306 1040.66 285.54 1039.79 285.54H412.875C412.005 285.54 411.833 284.306 412.671 284.068L621.782 224.735Z" fill="#4E9AE2"/>
<path d="M621.56 232.628C621.75 232.569 621.949 232.54 622.148 232.54H825.94C826.135 232.54 826.328 232.568 826.514 232.624L956.381 271.528C958.589 272.19 958.112 275.444 955.807 275.444H495.663C493.367 275.444 492.88 272.208 495.075 271.533L621.56 232.628Z" fill="#277DD0"/>
<path d="M628.734 238.708C628.802 238.689 628.872 238.679 628.942 238.679H821.315C821.385 238.679 821.455 238.689 821.522 238.708L923.011 267.835C923.847 268.075 923.674 269.306 922.804 269.306H528.121C527.253 269.306 527.079 268.076 527.913 267.835L628.734 238.708Z" stroke="#4E9AE2" stroke-width="0.5"/>
<path d="M327.923 308.126C333.581 306.528 339.432 305.718 345.311 305.718H1106.98C1112.82 305.718 1118.62 306.516 1124.24 308.09L1494.24 411.718H-39.0283L327.923 308.126Z" fill="#4E9AE2"/>
<path d="M329.595 327.889C335.626 326.058 341.893 325.127 348.195 325.127H1100.44C1106.65 325.127 1112.82 326.029 1118.77 327.806L1434.52 422.169H19.1973L329.595 327.889Z" fill="#277DD0"/>
<path d="M338.778 340.495C340.254 340.041 341.79 339.81 343.334 339.81H1103.75C1105.24 339.81 1106.72 340.026 1108.16 340.45L1400.39 427.14C1417.54 432.226 1413.87 457.5 1395.99 457.5H61.4551C43.6625 457.5 39.8922 432.415 56.8988 427.185L338.778 340.495Z" stroke="#4E9AE2"/>
<path d="M328.059 308.607C333.673 307.022 339.478 306.218 345.311 306.218H1106.98C1112.77 306.218 1118.53 307.01 1124.11 308.571L1490.6 411.218H-35.4168L328.059 308.607Z" stroke="#4E9AE2"/>
<path d="M267 362H391L285.5 400H144L267 362Z" fill="#4E9AE2"/>
<path d="M507 362H631L525.5 400H384L507 362Z" fill="#4E9AE2"/>
<path d="M465.5 339.5H599L508 362H365L465.5 339.5Z" fill="#4E9AE2"/>
<g filter="url(#filter1_f_988_8252)">
<path d="M31.6221 356L47.9777 392.8L62.2887 425.511L3 419.378L31.6221 356Z" fill="#277467"/>
<path d="M31.6221 356L62.2887 425.511L94.9997 386.667L31.6221 356Z" fill="#389181"/>
<path d="M62.2891 425.511L72.5113 448L95.0001 386.666L62.2891 425.511Z" fill="#A8DACA"/>
</g>
<path d="M621 341.5H676L598.669 401.808C597.263 402.905 595.532 403.5 593.749 403.5H417L621 341.5Z" fill="#205D9C" fill-opacity="0.2"/>
</g>
<defs>
<filter id="filter0_f_988_8252" x="367.241" y="224.241" width="109.518" height="109.518" filterUnits="userSpaceOnUse" color-interpolation-filters="sRGB">
<feFlood flood-opacity="0" result="BackgroundImageFix"/>
<feBlend mode="normal" in="SourceGraphic" in2="BackgroundImageFix" result="shape"/>
<feGaussianBlur stdDeviation="2" result="effect1_foregroundBlur_988_8252"/>
</filter>
<filter id="filter1_f_988_8252" x="-3" y="350" width="104" height="104" filterUnits="userSpaceOnUse" color-interpolation-filters="sRGB">
<feFlood flood-opacity="0" result="BackgroundImageFix"/>
<feBlend mode="normal" in="SourceGraphic" in2="BackgroundImageFix" result="shape"/>
<feGaussianBlur stdDeviation="3" result="effect1_foregroundBlur_988_8252"/>
</filter>
<linearGradient id="paint0_linear_988_8252" x1="726.747" y1="34" x2="726.747" y2="407.524" gradientUnits="userSpaceOnUse">
<stop offset="0.115" stop-color="#277DD0"/>
<stop offset="1" stop-color="#15345A"/>
</linearGradient>
<linearGradient id="paint1_linear_988_8252" x1="422" y1="228.255" x2="422" y2="329.745" gradientUnits="userSpaceOnUse">
<stop stop-color="#277DD0"/>
<stop offset="1" stop-color="#154377"/>
</linearGradient>
<clipPath id="clip0_988_8252">
<rect width="609" height="400" fill="white"/>
</clipPath>
</defs>
</svg>
