<svg width="400" height="400" viewBox="0 0 400 400" fill="none" xmlns="http://www.w3.org/2000/svg">
<g clip-path="url(#clip0_988_10951)">
<path d="M473.818 185.93C424.956 172.316 337.407 230.179 329.427 235.551C329.009 235.832 328.779 236.221 328.668 236.713L318.853 280.158C318.853 280.158 390.664 225.684 442.48 216.782C514.788 204.36 508.755 266.876 508.755 266.876C508.755 266.876 556.189 208.88 473.818 185.93Z" fill="#154377"/>
<path d="M473.818 185.93C424.956 172.316 337.407 230.179 329.427 235.551C329.009 235.832 328.779 236.221 328.668 236.713L318.853 280.158C318.853 280.158 390.664 225.684 442.48 216.782C514.788 204.361 509.214 266.29 509.214 266.29C509.214 266.29 556.189 208.88 473.818 185.93Z" stroke="#15345A"/>
<path d="M509.63 265.545C509.63 265.545 513.799 200.881 441.49 213.303C389.675 222.205 320.433 274.694 320.433 274.694" stroke="#15345A" stroke-width="0.75"/>
<path d="M344.492 275.542C337.722 274.993 327.881 275.674 324.187 275.971C323.307 276.042 322.593 276.689 322.418 277.554L318.894 295.002C318.696 295.982 319.247 296.952 320.201 297.251C324.517 298.604 336.331 301.948 344.132 300.716C363.928 297.592 369.827 280.871 369.827 280.871C369.827 280.871 354.57 276.359 344.492 275.542Z" fill="#144E8F"/>
<path d="M344.492 275.542C337.722 274.993 327.881 275.674 324.187 275.971C323.307 276.042 322.593 276.689 322.418 277.554L318.894 295.002C318.696 295.982 319.247 296.952 320.201 297.251C324.517 298.604 336.331 301.948 344.132 300.716C363.928 297.592 369.827 280.871 369.827 280.871C369.827 280.871 354.57 276.359 344.492 275.542Z" fill="#144E8F" stroke="#15345A"/>
<path d="M319.733 274.438L315.914 293.342C315.716 294.322 316.268 295.293 317.222 295.592C321.538 296.945 333.352 300.288 341.153 299.057C360.948 295.933 363.113 285.915 363.113 285.915" stroke="#15345A" stroke-width="0.75" stroke-linecap="round"/>
<path d="M170.323 89.8564C171.471 84.1917 176.494 80.1501 182.273 80.2409L356.232 82.9754C363.726 83.0932 369.279 89.975 367.811 97.3243L313.876 367.354C312.733 373.073 307.645 377.143 301.815 377L127.386 372.738C119.922 372.555 114.435 365.675 115.918 358.358L170.323 89.8564Z" fill="#BD9435"/>
<path d="M164.025 88.1256C165.125 82.697 169.938 78.8237 175.477 78.9108L349.436 81.6453C356.618 81.7581 361.94 88.3532 360.533 95.3963L306.597 365.426C305.503 370.907 300.626 374.807 295.039 374.67L120.61 370.408C113.458 370.233 108.199 363.64 109.62 356.628L164.025 88.1256Z" fill="url(#paint0_linear_988_10951)" stroke="#BD9435"/>
<path d="M167.969 93.5421C169.057 88.1032 173.872 84.2161 179.419 84.2997L348.247 86.8456C352.925 86.9162 356.398 91.2059 355.492 95.7962L303.257 360.602C302.174 366.094 297.295 370.008 291.699 369.874L122.457 365.821C117.798 365.709 114.368 361.421 115.282 356.851L167.969 93.5421Z" stroke="#BD9435"/>
<path d="M198.299 140.302C199.462 134.665 204.463 130.648 210.218 130.728L296.988 131.934C302.057 132.004 305.784 136.713 304.687 141.663L286.696 222.891C285.467 228.438 280.517 232.363 274.836 232.295L189.254 231.271C184.225 231.211 180.498 226.581 181.515 221.655L198.299 140.302Z" fill="#D9C26B"/>
<path d="M375.571 254.792C381.465 216.615 360.621 196.897 346.706 177.882C345.815 176.665 346.581 174.961 348.08 174.784L377.544 171.297C378.275 171.21 378.97 171.498 379.381 172.108C384.331 179.451 415.533 227.616 403.31 257.557C393.983 280.401 366.778 292.178 359.896 294.842C358.899 295.398 358.3 295.433 358.3 295.433C358.3 295.433 358.874 295.238 359.896 294.842C363.191 293.007 370.832 285.491 375.571 254.792Z" fill="#144E8F"/>
<path d="M375.571 254.792C383.757 218.347 360.816 197.044 346.709 177.878C345.814 176.662 346.581 174.961 348.08 174.784L377.514 171.3C378.26 171.212 378.971 171.516 379.377 172.149C384.143 179.568 413.352 226.902 403.309 257.556C394.251 285.205 357.72 295.597 357.72 295.597C357.72 295.597 366.998 292.958 375.571 254.792Z" fill="#144E8F" stroke="#15345A"/>
<path d="M156.721 249.085L165.991 249.088C169.12 249.089 171.241 249.63 172.357 250.709C173.473 251.788 173.597 253.37 172.731 255.454L171.675 257.991C170.809 260.075 169.369 261.656 167.357 262.734C165.344 263.812 162.774 264.35 159.645 264.349L156.67 264.348L152.312 274.828L146.017 274.826L156.721 249.085ZM161.174 260.672C162.204 260.672 163.044 260.488 163.693 260.121C164.38 259.753 164.907 259.128 165.274 258.246L166.543 255.194C166.91 254.311 166.903 253.686 166.522 253.318C166.179 252.95 165.492 252.766 164.462 252.765L161.487 252.764L158.199 260.67L161.174 260.672Z" fill="#D1B052"/>
<path d="M178.795 249.093L188.122 249.097C191.365 249.098 193.526 249.589 194.606 250.57C195.697 251.527 195.824 253.011 194.988 255.021L194.33 256.602C193.219 259.274 191.142 260.965 188.1 261.675L188.069 261.749C189.473 262.044 190.291 262.645 190.524 263.552C190.796 264.459 190.615 265.673 189.983 267.193L188.102 271.716C187.797 272.451 187.585 273.052 187.468 273.518C187.36 273.959 187.368 274.4 187.489 274.842L181.08 274.839C181.025 274.422 181.035 274.03 181.112 273.662C181.188 273.295 181.426 272.633 181.823 271.677L183.78 266.97C184.27 265.793 184.306 264.972 183.889 264.506C183.511 264.04 182.597 263.806 181.147 263.806L178.973 263.805L174.385 274.837L168.091 274.834L178.795 249.093ZM182.791 260.128C184.05 260.129 185.071 259.921 185.855 259.504C186.677 259.088 187.291 258.389 187.699 257.409L188.525 255.423C188.912 254.491 188.926 253.817 188.565 253.4C188.242 252.983 187.528 252.774 186.421 252.774L183.56 252.773L180.502 260.128L182.791 260.128Z" fill="#D1B052"/>
<path d="M201.874 249.102L208.169 249.105L197.465 274.846L191.17 274.843L201.874 249.102Z" fill="#D1B052"/>
<path d="M211.125 275.219C208.034 275.218 205.904 274.653 204.732 273.525C203.561 272.396 203.403 270.802 204.26 268.743L209.887 255.211C210.743 253.151 212.226 251.558 214.335 250.431C216.445 249.304 219.045 248.741 222.135 248.742C225.225 248.743 227.355 249.308 228.527 250.437C229.698 251.565 229.856 253.159 229 255.218L223.372 268.751C222.516 270.81 221.033 272.403 218.924 273.53C216.814 274.657 214.215 275.22 211.125 275.219ZM212.654 271.542C214.828 271.542 216.267 270.697 216.971 269.005L222.812 254.958C223.515 253.267 222.78 252.42 220.605 252.42C218.431 252.419 216.992 253.264 216.289 254.956L210.447 269.003C209.744 270.694 210.479 271.541 212.654 271.542Z" fill="#D1B052"/>
<path d="M235.795 249.115L245.122 249.119C248.365 249.12 250.526 249.612 251.607 250.593C252.697 251.549 252.824 253.033 251.988 255.043L251.33 256.624C250.219 259.297 248.142 260.988 245.1 261.697L245.069 261.771C246.473 262.066 247.291 262.667 247.525 263.574C247.796 264.481 247.616 265.695 246.984 267.215L245.103 271.738C244.797 272.474 244.585 273.074 244.468 273.54C244.361 273.981 244.368 274.423 244.49 274.864L238.081 274.862C238.025 274.445 238.035 274.052 238.112 273.685C238.189 273.317 238.426 272.655 238.823 271.699L240.781 266.992C241.27 265.815 241.306 264.994 240.89 264.528C240.511 264.062 239.597 263.828 238.147 263.828L235.973 263.827L231.385 274.859L225.091 274.857L235.795 249.115ZM239.791 260.151C241.05 260.151 242.071 259.943 242.855 259.527C243.677 259.11 244.292 258.412 244.699 257.431L245.525 255.445C245.912 254.514 245.926 253.839 245.565 253.422C245.242 253.005 244.528 252.797 243.422 252.796L240.56 252.795L237.502 260.15L239.791 260.151Z" fill="#D1B052"/>
<path d="M258.874 249.124L265.169 249.127L254.465 274.868L248.17 274.866L258.874 249.124Z" fill="#D1B052"/>
<path d="M273.275 252.808L266.695 252.805L268.224 249.128L287.68 249.136L286.151 252.813L279.57 252.81L270.395 274.874L264.1 274.872L273.275 252.808Z" fill="#D1B052"/>
<path d="M290.583 263.922L289.12 249.136L295.815 249.139L296.177 258.591L296.291 258.591L304.513 249.142L310.636 249.145L296.878 263.924L292.321 274.883L286.026 274.88L290.583 263.922Z" fill="#D1B052"/>
<path d="M418.351 211.282C393.055 163.168 347.427 125.312 339.116 118.655C338.358 118.047 337.276 118.092 336.559 118.748L311.246 141.899C310.172 142.881 310.441 144.688 311.722 145.379C317.626 148.563 332.181 157.66 347.752 176.835C368.012 201.784 368.716 207.32 381.399 226.808C457.121 343.162 507.06 267.529 507.06 267.529C507.06 267.529 464.79 299.612 418.351 211.282Z" fill="#154377"/>
<path d="M418.351 211.282C392.921 163.252 347.42 125.342 339.118 118.661C338.36 118.051 337.274 118.093 336.556 118.75L311.246 141.899C310.172 142.881 310.441 144.688 311.722 145.379C317.626 148.563 332.181 157.66 347.752 176.835C368.012 201.784 368.716 207.32 381.399 226.808C457.121 343.162 509.629 265.545 509.629 265.545C509.629 265.545 466.516 302.255 418.351 211.282Z" stroke="#15345A"/>
<path d="M506.23 269.018C506.23 269.018 458.781 340.182 383.059 223.829C370.376 204.34 369.672 198.804 349.412 173.855C329.151 148.906 311.521 142.012 311.521 142.012" stroke="#15345A" stroke-width="0.75"/>
<rect x="325.316" y="142.509" width="19.6423" height="4.07787" rx="2.03893" transform="rotate(-51.1657 325.316 142.509)" fill="#277DD0" stroke="#15345A"/>
<g filter="url(#filter0_i_988_10951)">
<circle cx="259.478" cy="102.286" r="7.2345" transform="rotate(-15.88 259.478 102.286)" fill="white"/>
<circle cx="259.478" cy="102.286" r="6.7345" transform="rotate(-15.88 259.478 102.286)" fill="white" stroke="#15345A"/>
</g>
<path d="M282.913 103.141C285.535 99.5808 282.497 92.1845 282 91.0353C281.954 90.9306 281.901 90.8365 281.836 90.7423L276.794 83.355C276.639 83.1278 276.439 82.9351 276.206 82.7888L270.011 78.898C269.799 78.7649 269.564 78.6728 269.318 78.6264L263.794 77.584C263.325 77.4955 262.84 77.5777 262.426 77.8158L259.211 79.6656C258.914 79.8365 258.578 79.9282 258.236 79.932L251.885 80.0012L262.053 73.5036C262.341 73.3195 262.672 73.2123 263.013 73.1923L267.523 72.9283C267.863 72.9084 268.202 72.9756 268.509 73.1235L274.268 75.9019C274.474 76.0014 274.662 76.1355 274.823 76.2984L304.084 105.951C304.37 106.24 304.737 106.436 305.137 106.511L305.847 106.645L308.607 107.166C309.351 107.306 309.952 107.855 310.16 108.584L310.811 110.874L313.417 110.991C314.157 111.024 314.819 111.463 315.136 112.133L316.19 114.359L317.469 114.6C318.292 114.755 318.932 115.407 319.07 116.234L319.604 119.409C319.694 119.942 319.564 120.488 319.245 120.923L312.106 130.661C311.792 131.089 311.321 131.375 310.797 131.456L308.058 131.878C307.297 131.995 306.536 131.664 306.101 131.028L304.663 128.92L302.473 129.166C301.607 129.264 300.777 128.789 300.423 127.993L299.284 125.436L296.529 125.313C295.869 125.284 295.266 124.931 294.918 124.37L294.317 123.401L293.439 121.986C293.256 121.691 293 121.45 292.696 121.284L255.426 100.977C254.261 100.342 254.026 98.77 254.954 97.8218L255.435 97.3294C256.066 96.6847 257.05 96.542 257.838 96.9809L270.47 104.017C270.593 104.086 270.708 104.167 270.822 104.251C271.326 104.622 272.96 105.66 275.483 105.668C278.316 105.677 281.426 105.16 282.913 103.141Z" fill="#E3EDFB"/>
<path d="M282.653 113.244L254.514 98.0577L254.429 99.9623L293.16 121.537L294.73 124.852L299.284 125.437L300.689 128.171L304.663 128.921L306.812 132.07L311.616 131.33L312.446 129.841C312.446 129.841 309.672 130.118 308.472 129.091C307.56 128.31 307.067 126.356 307.067 126.356C307.067 126.356 304.176 127.185 302.678 126.351C301.181 125.517 300.364 122.622 300.364 122.622C300.364 122.622 298.247 122.896 297.135 122.287C295.828 121.573 294.985 119.138 294.985 119.138L282.653 113.244Z" fill="#C2DBF5"/>
<path d="M299.283 125.436L296.528 125.313C295.868 125.284 295.266 124.931 294.918 124.37L294.317 123.402M299.283 125.436L300.422 127.993C300.777 128.789 301.606 129.264 302.473 129.167L304.662 128.92M299.283 125.436C299.283 125.436 301.261 119.634 303.682 116.663C305.948 113.884 310.811 110.875 310.811 110.875M304.662 128.92L306.101 131.029C306.535 131.665 307.296 131.995 308.057 131.878L310.797 131.456C311.321 131.375 311.791 131.09 312.105 130.662L319.244 120.924C319.563 120.488 319.693 119.942 319.604 119.41L319.07 116.234C318.931 115.408 318.292 114.755 317.468 114.6L316.189 114.359M304.662 128.92C304.662 128.92 306.533 123.683 308.646 120.892C310.998 117.785 316.189 114.359 316.189 114.359M316.189 114.359L315.135 112.133C314.818 111.463 314.157 111.024 313.417 110.991L310.811 110.875M310.811 110.875L310.159 108.584C309.952 107.856 309.351 107.307 308.606 107.166L305.847 106.646M275.483 105.668C278.316 105.677 281.425 105.16 282.912 103.141C285.542 99.5702 282.478 92.1396 281.995 91.0252C281.952 90.9275 281.905 90.8437 281.845 90.7557C281.077 89.6304 275.345 81.4247 269.69 78.6969C264.521 76.203 260.329 78.5243 258.801 79.6057C258.385 79.8999 257.894 80.0874 257.385 80.0802L251.884 80.0015C251.884 80.0015 257.677 74.2141 262.492 73.2231V73.2231C270.218 71.6329 277.092 77.8515 282.558 83.5393L304.079 105.935C304.367 106.234 304.742 106.437 305.15 106.514L305.847 106.646M275.483 105.668C272.994 105.661 271.37 104.651 270.842 104.267C270.714 104.174 270.584 104.084 270.444 104.01L257.09 97.014C256.382 96.6431 255.521 96.7292 254.901 97.233L254.675 97.4164C253.571 98.3133 253.729 100.044 254.979 100.725L292.696 121.284C293 121.45 293.256 121.692 293.438 121.986L294.317 123.402M275.483 105.668L274.808 107.004C274.3 108.011 274.725 109.24 275.748 109.717L295.574 118.97M294.317 123.402C294.317 123.402 295.792 116.651 298.303 113.179C300.587 110.021 305.847 106.646 305.847 106.646" stroke="#15345A"/>
<path d="M299.186 133.692L310.299 142.01C311.164 142.658 312.387 142.501 313.061 141.656L313.822 140.701C314.511 139.838 314.341 138.576 313.449 137.926L303.438 130.633C301.726 129.386 299.352 127.566 297.79 128.996C295.49 131.1 298.496 133.232 299.031 133.584C299.084 133.619 299.135 133.654 299.186 133.692Z" fill="#E3EDFB"/>
<path d="M313.84 141.353L297.374 129.74L296.379 130.65L297.619 132.805L310.361 142.343L312.265 142.428L313.84 141.353Z" fill="#C2DBF5"/>
<path d="M299.186 133.692L310.299 142.01C311.164 142.658 312.387 142.501 313.061 141.656L313.822 140.701C314.511 139.838 314.341 138.576 313.449 137.926L303.438 130.633C301.726 129.386 299.352 127.566 297.79 128.996C295.49 131.1 298.496 133.232 299.031 133.584C299.084 133.619 299.135 133.654 299.186 133.692Z" stroke="#15345A"/>
<path d="M333.111 117.853L321.743 109.645L319.244 107.865C318.83 107.57 318.318 107.444 317.814 107.512L316.66 107.67C315.454 107.834 314.673 109.028 315.006 110.198L315.32 111.301C315.455 111.777 315.761 112.185 316.18 112.448L328.829 120.393C329.116 120.573 329.352 120.823 329.516 121.12L332.68 126.857C332.977 127.396 333.009 128.042 332.768 128.608L327.335 141.339C326.991 142.144 327.181 143.188 328.027 143.414C328.522 143.546 328.896 143.46 329.129 143.359C329.326 143.273 329.46 143.097 329.564 142.909L337.237 129.136C337.532 128.605 337.571 127.968 337.341 127.406L333.792 118.718C333.651 118.372 333.415 118.072 333.111 117.853Z" fill="#E3EDFB" stroke="#15345A"/>
<ellipse cx="316.541" cy="126.188" rx="7.83737" ry="3.61725" transform="rotate(-48.2762 316.541 126.188)" fill="#E3EDFB"/>
<ellipse cx="317.302" cy="126.938" rx="7.27911" ry="2.00287" transform="rotate(-48.2762 317.302 126.938)" fill="#C2DBF5"/>
<path d="M321.424 120.711C321.936 121.168 322.103 122.153 321.66 123.608C321.23 125.019 320.271 126.689 318.867 128.262C317.464 129.836 315.914 130.98 314.562 131.568C313.167 132.174 312.17 132.121 311.658 131.664C311.145 131.207 310.978 130.223 311.422 128.767C311.852 127.357 312.811 125.687 314.214 124.113C315.618 122.539 317.167 121.396 318.52 120.808C319.915 120.201 320.912 120.255 321.424 120.711Z" stroke="#15345A"/>
<path d="M314.744 292.153L167.389 104.666L159.14 148.381L304.666 342.657L314.744 292.153Z" fill="#E7DBA1" fill-opacity="0.4"/>
<path d="M304.166 345.306L158.31 149.871L155.396 163.863L301.417 359.878L304.166 345.306Z" fill="#E7DBA1" fill-opacity="0.4"/>
</g>
<defs>
<filter id="filter0_i_988_10951" x="252.241" y="95.0503" width="14.4727" height="14.4727" filterUnits="userSpaceOnUse" color-interpolation-filters="sRGB">
<feFlood flood-opacity="0" result="BackgroundImageFix"/>
<feBlend mode="normal" in="SourceGraphic" in2="BackgroundImageFix" result="shape"/>
<feColorMatrix in="SourceAlpha" type="matrix" values="0 0 0 0 0 0 0 0 0 0 0 0 0 0 0 0 0 0 127 0" result="hardAlpha"/>
<feOffset dx="4" dy="4"/>
<feComposite in2="hardAlpha" operator="arithmetic" k2="-1" k3="1"/>
<feColorMatrix type="matrix" values="0 0 0 0 0.0823529 0 0 0 0 0.203922 0 0 0 0 0.352941 0 0 0 1 0"/>
<feBlend mode="normal" in2="shape" result="effect1_innerShadow_988_10951"/>
</filter>
<linearGradient id="paint0_linear_988_10951" x1="170.149" y1="81.3161" x2="302.067" y2="370.975" gradientUnits="userSpaceOnUse">
<stop stop-color="#E7DBA1"/>
<stop offset="1" stop-color="#D1B052"/>
</linearGradient>
<clipPath id="clip0_988_10951">
<rect width="400" height="400" fill="white"/>
</clipPath>
</defs>
</svg>
