<svg width="609" height="400" viewBox="0 0 609 400" fill="none" xmlns="http://www.w3.org/2000/svg">
<g clip-path="url(#clip0_988_11144)">
<path d="M916.088 220.762C916.088 323.908 832.66 407.524 729.747 407.524C626.833 407.524 543.405 323.908 543.405 220.762C543.405 117.616 626.833 34 729.747 34C832.66 34 916.088 117.616 916.088 220.762ZM592.802 220.762C592.802 296.565 654.114 358.015 729.747 358.015C805.379 358.015 866.691 296.565 866.691 220.762C866.691 144.959 805.379 83.5084 729.747 83.5084C654.114 83.5084 592.802 144.959 592.802 220.762Z" fill="url(#paint0_linear_988_11144)"/>
<rect x="418.057" y="284.698" width="622.54" height="22.7143" fill="#6E4825"/>
<path d="M624.783 224.735C626.204 224.331 627.674 224.127 629.151 224.127H829.938C831.418 224.127 832.891 224.332 834.314 224.737L1042.99 284.068C1043.83 284.306 1043.66 285.54 1042.79 285.54H415.876C415.006 285.54 414.834 284.306 415.671 284.068L624.783 224.735Z" fill="#D9C26B"/>
<path d="M624.561 232.628C624.751 232.569 624.949 232.54 625.149 232.54H828.941C829.135 232.54 829.329 232.568 829.515 232.624L959.382 271.528C961.59 272.19 961.113 275.444 958.808 275.444H498.664C496.368 275.444 495.881 272.208 498.076 271.533L624.561 232.628Z" fill="#D1B052"/>
<path d="M631.734 238.708C631.802 238.689 631.872 238.679 631.942 238.679H824.315C824.385 238.679 824.455 238.689 824.522 238.708L926.011 267.835C926.847 268.075 926.674 269.306 925.804 269.306H531.121C530.253 269.306 530.079 268.076 530.913 267.835L631.734 238.708Z" stroke="#D9C26B" stroke-width="0.5"/>
<path d="M330.923 308.126C336.581 306.528 342.432 305.718 348.311 305.718H1109.98C1115.82 305.718 1121.62 306.516 1127.24 308.09L1497.24 411.718H-36.0283L330.923 308.126Z" fill="#D9C26B"/>
<path d="M332.595 327.889C338.626 326.057 344.893 325.126 351.195 325.126H1103.44C1109.65 325.126 1115.82 326.029 1121.77 327.806L1437.52 422.169H22.1973L332.595 327.889Z" fill="#D1B052"/>
<path d="M341.778 340.495C343.254 340.041 344.79 339.81 346.334 339.81H1106.75C1108.24 339.81 1109.72 340.026 1111.16 340.45L1403.39 427.14C1420.54 432.226 1416.87 457.5 1398.99 457.5H64.4551C46.6625 457.5 42.8922 432.415 59.8988 427.185L341.778 340.495Z" stroke="#D9C26B"/>
<path d="M331.059 308.607C336.673 307.022 342.478 306.218 348.311 306.218H1109.98C1115.77 306.218 1121.53 307.01 1127.11 308.571L1493.6 411.218H-32.4168L331.059 308.607Z" stroke="#D9C26B"/>
</g>
<defs>
<linearGradient id="paint0_linear_988_11144" x1="729.747" y1="34" x2="729.747" y2="407.524" gradientUnits="userSpaceOnUse">
<stop offset="0.115" stop-color="#D1B052"/>
<stop offset="1" stop-color="#6E4825"/>
</linearGradient>
<clipPath id="clip0_988_11144">
<rect width="609" height="400" fill="white"/>
</clipPath>
</defs>
</svg>
