<svg width="1197" height="398" viewBox="0 0 1197 398" fill="none" xmlns="http://www.w3.org/2000/svg">
<g clip-path="url(#clip0_739_8890)">
<g opacity="0.74">
<mask id="mask0_739_8890" style="mask-type:luminance" maskUnits="userSpaceOnUse" x="-24" y="-8" width="1245" height="742">
<path d="M1220.21 -7.28857H-23.2231V733.376H1220.21V-7.28857Z" fill="white"/>
</mask>
<g mask="url(#mask0_739_8890)">
<path d="M529.069 279.315V232.249H611.148V149.93H658.27V279.315H529.069Z" stroke="white" stroke-opacity="0.4" stroke-width="0.5889" stroke-miterlimit="10"/>
<path d="M134.565 20.5447V67.6108H52.4865V149.93H5.36475V20.5447H134.565Z" stroke="white" stroke-opacity="0.4" stroke-width="0.5889" stroke-miterlimit="10"/>
<path d="M-97.5264 494.251V452.759C-97.5264 378.028 -36.6545 317.228 38.1645 317.228H181.481V364.294H38.1645C-10.6737 364.294 -50.4046 403.978 -50.4046 452.759V494.251H-97.5264Z" stroke="white" stroke-opacity="0.4" stroke-width="0.5889" stroke-miterlimit="10"/>
<path d="M235.693 312.404V205.765C235.693 85.3824 331.691 -12.5535 449.692 -12.5535H516.698V34.5127H449.692C357.672 34.5127 282.815 111.332 282.815 205.765V312.404H235.693Z" stroke="white" stroke-opacity="0.4" stroke-width="0.5889" stroke-miterlimit="10"/>
</g>
<mask id="mask1_739_8890" style="mask-type:luminance" maskUnits="userSpaceOnUse" x="-24" y="-8" width="1245" height="742">
<path d="M1220.21 -7.28857H-23.2231V733.376H1220.21V-7.28857Z" fill="white"/>
</mask>
<g mask="url(#mask1_739_8890)">
<path d="M1023.86 155.935V114.443C1023.86 39.7119 962.986 -21.0881 888.167 -21.0881H788.68V25.978H888.167C937.005 25.978 976.736 65.662 976.736 114.443V155.935H1023.86Z" stroke="white" stroke-opacity="0.4" stroke-width="0.5889" stroke-miterlimit="10"/>
<path d="M766.77 175.542V217.035C766.77 291.765 827.642 352.565 902.461 352.565H1045.78V305.499H902.461C853.623 305.499 813.892 265.815 813.892 217.035V175.542H766.77Z" stroke="white" stroke-opacity="0.4" stroke-width="0.5889" stroke-miterlimit="10"/>
<path d="M1099.99 357.39V464.029C1099.99 584.411 1195.99 682.347 1313.99 682.347H1380.99V635.281H1313.99C1221.97 635.281 1147.11 558.461 1147.11 464.029V357.39H1099.99Z" stroke="white" stroke-opacity="0.4" stroke-width="0.5889" stroke-miterlimit="10"/>
</g>
<mask id="mask2_739_8890" style="mask-type:luminance" maskUnits="userSpaceOnUse" x="-24" y="-8" width="1245" height="742">
<path d="M1220.21 -7.28857H-23.2231V733.376H1220.21V-7.28857Z" fill="white"/>
</mask>
<g mask="url(#mask2_739_8890)">
<path d="M503.436 210.346H456.314V128.364H373.898V81.2979H503.436V210.346Z" fill="#E3EDFB" fill-opacity="0.4"/>
<path d="M193.655 159.523H64.4546V112.457H146.533V-27.0649H193.655V159.523Z" fill="#E3EDFB" fill-opacity="0.4"/>
<path d="M658.861 339.403V210.346H705.983V292.337H845.669V339.403H658.861Z" fill="#E3EDFB" fill-opacity="0.4"/>
<path d="M1292.67 274.874V403.922H1245.55V321.94H1105.85V274.874H1292.67Z" fill="#E3EDFB" fill-opacity="0.4"/>
<path d="M977.871 223.958V182.466C977.871 107.735 1038.74 46.9351 1113.56 46.9351H1256.88V94.0012H1113.56C1064.72 94.0012 1024.99 133.685 1024.99 182.466V223.958H977.871Z" fill="#E3EDFB" fill-opacity="0.4"/>
<path d="M810.937 112.279H769.396C694.577 112.279 633.705 51.4786 633.705 -23.2521V-166.399H680.827V-23.2521C680.827 25.5285 720.558 65.2125 769.396 65.2125H810.937V112.279Z" fill="#E3EDFB" fill-opacity="0.4"/>
<path d="M536.564 503.376H429.808C309.283 503.376 211.232 407.491 211.232 289.629V222.702H258.354V289.629C258.354 381.541 335.264 456.309 429.808 456.309H536.573V503.376H536.564Z" fill="#E3EDFB" fill-opacity="0.4"/>
<path d="M-174.493 329.903H-67.7282C52.7962 329.903 150.848 425.788 150.848 543.65V610.577H103.726V543.65C103.726 451.738 26.8155 376.97 -67.7282 376.97H-174.493V329.903Z" fill="#E3EDFB" fill-opacity="0.4"/>
</g>
<mask id="mask3_739_8890" style="mask-type:luminance" maskUnits="userSpaceOnUse" x="-24" y="-8" width="1245" height="742">
<path d="M1220.21 -7.28857H-23.2231V733.376H1220.21V-7.28857Z" fill="white"/>
</mask>
<g mask="url(#mask3_739_8890)">
<path opacity="0.05" d="M146.599 195.684V242.75H64.5207V325.06H17.3989V195.684H146.599Z" fill="#15345A" fill-opacity="0.4"/>
</g>
<mask id="mask4_739_8890" style="mask-type:luminance" maskUnits="userSpaceOnUse" x="-24" y="-8" width="1245" height="742">
<path d="M1220.21 -7.28857H-23.2231V733.376H1220.21V-7.28857Z" fill="white"/>
</mask>
<g mask="url(#mask4_739_8890)">
<g opacity="0.05">
<path d="M940.476 146.96H893.354V64.9783H810.938V17.9121H940.476V146.96Z" fill="#15345A" fill-opacity="0.4"/>
</g>
</g>
<mask id="mask5_739_8890" style="mask-type:luminance" maskUnits="userSpaceOnUse" x="-24" y="-8" width="1245" height="742">
<path d="M1220.21 -7.28857H-23.2231V733.376H1220.21V-7.28857Z" fill="white"/>
</mask>
<g mask="url(#mask5_739_8890)">
<path d="M530.233 358.542V487.59H483.111V405.608H343.424V358.542H530.233Z" stroke="#E3EDFB" stroke-opacity="0.4" stroke-width="1.4173" stroke-miterlimit="10"/>
<path d="M-103.566 423.062V294.014H-56.4446V375.995H83.2418V423.062H-103.566Z" stroke="#E3EDFB" stroke-opacity="0.4" stroke-width="1.4173" stroke-miterlimit="10"/>
<path d="M432.041 257.861H390.499C315.68 257.861 254.809 197.061 254.809 122.331V22.9709H301.93V122.34C301.93 171.121 341.661 210.805 390.499 210.805H432.041V257.861Z" stroke="#E3EDFB" stroke-opacity="0.4" stroke-width="1.4173" stroke-miterlimit="10"/>
<path d="M470.467 -138.266H512.008C586.827 -138.266 647.699 -77.4663 647.699 -2.73565V140.411H600.577V-2.73565C600.577 -51.5162 560.847 -91.2002 512.008 -91.2002H470.467V-138.266Z" stroke="#E3EDFB" stroke-opacity="0.4" stroke-width="1.4173" stroke-miterlimit="10"/>
<path d="M652.53 194.56H759.295C879.819 194.56 977.871 290.444 977.871 408.306V475.233H930.749V408.306C930.749 316.394 853.838 241.626 759.295 241.626H652.53V194.56Z" stroke="#E3EDFB" stroke-opacity="0.4" stroke-width="1.4173" stroke-miterlimit="10"/>
<path d="M1363.59 498.879H1256.82C1136.3 498.879 1038.25 402.995 1038.25 285.132V218.206H1085.37V285.132C1085.37 377.045 1162.28 451.813 1256.82 451.813H1363.59V498.879Z" stroke="#E3EDFB" stroke-opacity="0.4" stroke-width="1.4173" stroke-miterlimit="10"/>
<path d="M1439.97 -167.739H1333.21C1212.68 -167.739 1114.63 -71.8546 1114.63 46.0076V112.934H1161.75V46.0076C1161.75 -45.9045 1238.66 -120.673 1333.21 -120.673H1439.97V-167.739Z" stroke="#E3EDFB" stroke-opacity="0.4" stroke-width="1.4173" stroke-miterlimit="10"/>
<path d="M59.0993 81.2978H-47.6657C-168.19 81.2978 -266.242 -14.5864 -266.242 -132.449V-199.375H-219.12V-132.449C-219.12 -40.5365 -142.209 34.2316 -47.6657 34.2316H59.0993V81.2978Z" stroke="#E3EDFB" stroke-opacity="0.4" stroke-width="1.4173" stroke-miterlimit="10"/>
</g>
<mask id="mask6_739_8890" style="mask-type:luminance" maskUnits="userSpaceOnUse" x="-24" y="-8" width="1245" height="742">
<path d="M1220.21 -7.28857H-23.2231V733.376H1220.21V-7.28857Z" fill="white"/>
</mask>
<g mask="url(#mask6_739_8890)">
<path opacity="0.05" d="M503.267 -77.2415V-30.1753H421.189V52.1437H374.067V-77.2415H503.267Z" fill="#15345A" fill-opacity="0.4"/>
</g>
</g>
</g>
<defs>
<clipPath id="clip0_739_8890">
<rect width="1197" height="713" fill="white"/>
</clipPath>
</defs>
</svg>
