<svg width="24" height="24" viewBox="0 0 24 24" fill="none" xmlns="http://www.w3.org/2000/svg">
<path d="M8.59493 10.3682C5.4216 10.5886 2.69775 12.8499 2.69775 16.3159C2.69775 19.6105 5.33803 22.2812 8.59493 22.2812C11.8518 22.2812 14.4921 19.6105 14.4921 16.3159L14.3217 8.8791C15.8038 10.0224 18.1709 10.7139 20.3614 10.8244C20.7533 10.8442 21.1292 10.6662 21.2207 10.2846C21.2674 10.0902 21.3019 9.83727 21.3019 9.51448C21.3019 9.1917 21.2674 8.93878 21.2207 8.74442C21.1292 8.36274 20.7525 8.19706 20.3619 8.15799C17.4002 7.8615 14.6109 5.46529 14.2121 2.63565C14.1615 2.2775 13.9609 1.94723 13.6109 1.85615C13.3326 1.78373 12.9616 1.71875 12.5264 1.71875C12.0907 1.71875 11.7193 1.78388 11.4409 1.8564C11.0914 1.94744 10.8831 2.27559 10.8748 2.63666L10.5607 16.3159C10.5607 17.4141 9.68058 18.3043 8.59493 18.3043C7.50928 18.3043 6.62921 17.4141 6.62921 16.3159C6.62921 15.1742 7.5834 14.4393 8.59493 14.251" stroke="black" stroke-linecap="round" stroke-linejoin="round"/>
</svg>
