<svg width="250" height="250" viewBox="0 0 250 250" fill="none" xmlns="http://www.w3.org/2000/svg">
<g clip-path="url(#clip0_766_3140)">
<path d="M134.965 153.812L135.051 153.721L135.084 153.601L165.918 42.3608L199.269 52.2797C215.944 57.239 225.442 74.7772 220.482 91.4523L192.355 186.025C187.461 202.48 170.292 211.987 153.748 207.401L104.337 193.705L102.158 188.436L134.965 153.812Z" fill="#144E8F" stroke="#144E8F"/>
<mask id="path-3-inside-1_766_3140" fill="white">
<path fill-rule="evenodd" clip-rule="evenodd" d="M189.245 180.944C184.193 197.88 166.369 207.514 149.433 202.462L101.609 188.196L108.581 164.823C109.004 164.997 109.439 165.152 109.887 165.285C117.065 167.426 124.619 163.343 126.76 156.166C128.901 148.988 124.818 141.433 117.641 139.292C117.193 139.159 116.744 139.049 116.295 138.964L125.022 109.707L203.511 133.12L189.245 180.944Z"/>
</mask>
<path fill-rule="evenodd" clip-rule="evenodd" d="M189.245 180.944C184.193 197.88 166.369 207.514 149.433 202.462L101.609 188.196L108.581 164.823C109.004 164.997 109.439 165.152 109.887 165.285C117.065 167.426 124.619 163.343 126.76 156.166C128.901 148.988 124.818 141.433 117.641 139.292C117.193 139.159 116.744 139.049 116.295 138.964L125.022 109.707L203.511 133.12L189.245 180.944Z" fill="#4E9AE2"/>
<path d="M149.433 202.462L149.147 203.42L149.433 202.462ZM189.245 180.944L188.287 180.658L189.245 180.944ZM101.609 188.196L100.651 187.91L100.365 188.868L101.323 189.154L101.609 188.196ZM108.581 164.823L108.962 163.898L107.939 163.477L107.623 164.537L108.581 164.823ZM109.887 165.285L109.601 166.243L109.601 166.243L109.887 165.285ZM126.76 156.166L125.802 155.88L126.76 156.166ZM117.641 139.292L117.355 140.25L117.355 140.25L117.641 139.292ZM116.295 138.964L115.337 138.678L115.021 139.738L116.107 139.946L116.295 138.964ZM125.022 109.707L125.308 108.749L124.35 108.463L124.064 109.421L125.022 109.707ZM203.511 133.12L204.469 133.406L204.755 132.448L203.797 132.162L203.511 133.12ZM149.147 203.42C166.612 208.63 184.994 198.695 190.203 181.23L188.287 180.658C183.393 197.065 166.125 206.397 149.719 201.503L149.147 203.42ZM101.323 189.154L149.147 203.42L149.719 201.503L101.895 187.238L101.323 189.154ZM107.623 164.537L100.651 187.91L102.567 188.482L109.54 165.109L107.623 164.537ZM110.173 164.327C109.758 164.203 109.354 164.06 108.962 163.898L108.2 165.748C108.654 165.935 109.121 166.1 109.601 166.243L110.173 164.327ZM125.802 155.88C123.819 162.528 116.821 166.31 110.173 164.327L109.601 166.243C117.308 168.542 125.419 164.158 127.718 156.451L125.802 155.88ZM117.355 140.25C124.003 142.234 127.785 149.231 125.802 155.88L127.718 156.451C130.017 148.744 125.633 140.633 117.926 138.334L117.355 140.25ZM116.107 139.946C116.523 140.025 116.94 140.127 117.355 140.25L117.926 138.334C117.447 138.191 116.965 138.074 116.483 137.981L116.107 139.946ZM124.064 109.421L115.337 138.678L117.253 139.249L125.981 109.993L124.064 109.421ZM203.797 132.162L125.308 108.749L124.736 110.666L203.225 134.079L203.797 132.162ZM190.203 181.23L204.469 133.406L202.553 132.835L188.287 180.658L190.203 181.23Z" fill="#144E8F" mask="url(#path-3-inside-1_766_3140)"/>
<mask id="path-5-inside-2_766_3140" fill="white">
<path fill-rule="evenodd" clip-rule="evenodd" d="M133.36 86.1263C140.542 88.254 148.089 84.1569 150.217 76.9752C152.344 69.7934 148.247 62.2466 141.066 60.1189C140.635 59.9914 140.204 59.8863 139.772 59.8028L147.496 33.7338L195.346 47.9105C212.291 52.9308 221.958 70.7373 216.938 87.6823L202.761 135.533L174.889 127.275C175.658 129.749 175.728 132.471 174.936 135.142C172.809 142.324 165.262 146.421 158.08 144.293C150.898 142.165 146.801 134.619 148.929 127.437C149.72 124.766 151.261 122.521 153.254 120.865L124.229 112.266L132.104 85.6868C132.511 85.8519 132.93 85.9988 133.36 86.1263Z"/>
</mask>
<path fill-rule="evenodd" clip-rule="evenodd" d="M133.36 86.1263C140.542 88.254 148.089 84.1569 150.217 76.9752C152.344 69.7934 148.247 62.2466 141.066 60.1189C140.635 59.9914 140.204 59.8863 139.772 59.8028L147.496 33.7338L195.346 47.9105C212.291 52.9308 221.958 70.7373 216.938 87.6823L202.761 135.533L174.889 127.275C175.658 129.749 175.728 132.471 174.936 135.142C172.809 142.324 165.262 146.421 158.08 144.293C150.898 142.165 146.801 134.619 148.929 127.437C149.72 124.766 151.261 122.521 153.254 120.865L124.229 112.266L132.104 85.6868C132.511 85.8519 132.93 85.9988 133.36 86.1263Z" fill="#8BBCEE"/>
<path d="M139.772 59.8028L139.582 60.7846L138.5 60.5754L138.814 59.5188L139.772 59.8028ZM147.496 33.7338L146.537 33.4497L146.821 32.4909L147.78 32.775L147.496 33.7338ZM216.938 87.6823L217.897 87.9664L216.938 87.6823ZM202.761 135.533L203.72 135.817L203.436 136.776L202.477 136.492L202.761 135.533ZM174.889 127.275L173.934 127.572L173.378 125.784L175.173 126.316L174.889 127.275ZM153.254 120.865L153.539 119.906L155.333 120.438L153.894 121.634L153.254 120.865ZM124.229 112.266L123.945 113.225L122.986 112.941L123.27 111.982L124.229 112.266ZM132.104 85.6868L131.145 85.4028L131.458 84.3461L132.479 84.76L132.104 85.6868ZM151.175 77.2592C148.891 84.9705 140.787 89.3697 133.076 87.0851L133.644 85.1675C140.297 87.1383 147.287 83.3433 149.258 76.6911L151.175 77.2592ZM141.35 59.1601C149.061 61.4447 153.46 69.548 151.175 77.2592L149.258 76.6911C151.229 70.0389 147.434 63.0485 140.781 61.0777L141.35 59.1601ZM139.962 58.821C140.425 58.9106 140.888 59.0234 141.35 59.1601L140.781 61.0777C140.382 60.9594 139.982 60.862 139.582 60.7846L139.962 58.821ZM148.455 34.0178L140.731 60.0869L138.814 59.5188L146.537 33.4497L148.455 34.0178ZM195.062 48.8693L147.212 34.6926L147.78 32.775L195.63 46.9517L195.062 48.8693ZM215.979 87.3983C220.843 70.9827 211.478 53.7327 195.062 48.8693L195.63 46.9517C213.105 52.1289 223.074 70.4918 217.897 87.9664L215.979 87.3983ZM201.802 135.249L215.979 87.3983L217.897 87.9664L203.72 135.817L201.802 135.249ZM175.173 126.316L203.045 134.574L202.477 136.492L174.605 128.234L175.173 126.316ZM173.978 134.858C174.711 132.383 174.646 129.863 173.934 127.572L175.844 126.978C176.67 129.636 176.745 132.56 175.895 135.426L173.978 134.858ZM158.364 143.334C165.016 145.305 172.007 141.51 173.978 134.858L175.895 135.426C173.611 143.137 165.507 147.537 157.796 145.252L158.364 143.334ZM149.888 127.721C147.917 134.373 151.712 141.364 158.364 143.334L157.796 145.252C150.085 142.967 145.686 134.864 147.97 127.153L149.888 127.721ZM153.894 121.634C152.048 123.168 150.621 125.245 149.888 127.721L147.97 127.153C148.82 124.286 150.475 121.875 152.615 120.096L153.894 121.634ZM124.513 111.307L153.539 119.906L152.97 121.824L123.945 113.225L124.513 111.307ZM133.062 85.9709L125.188 112.55L123.27 111.982L131.145 85.4028L133.062 85.9709ZM133.076 87.0851C132.615 86.9484 132.165 86.7908 131.728 86.6136L132.479 84.76C132.857 84.913 133.245 85.0492 133.644 85.1675L133.076 87.0851Z" fill="#144E8F" mask="url(#path-5-inside-2_766_3140)"/>
<mask id="path-7-inside-3_766_3140" fill="white">
<path fill-rule="evenodd" clip-rule="evenodd" d="M71.6337 114.914C72.5929 121.613 67.9404 127.82 61.2421 128.779C54.5438 129.739 48.3361 125.086 47.3769 118.388C47.2276 117.345 47.2142 116.314 47.3234 115.313L35.735 116.973L29.0971 117.923L25.697 120.279L30.7993 155.909C33.7743 176.684 53.0274 191.113 73.8023 188.138L106.685 183.429L109.692 178.327L106.312 156.726C108.176 157.426 110.237 157.681 112.347 157.379C119.045 156.42 123.698 150.212 122.739 143.514C121.779 136.815 115.572 132.163 108.873 133.122C106.651 133.44 104.654 134.336 103.012 135.637L98.6808 107.959L70.8221 111.948C71.2079 112.878 71.4844 113.872 71.6337 114.914Z"/>
</mask>
<path fill-rule="evenodd" clip-rule="evenodd" d="M71.6337 114.914C72.5929 121.613 67.9404 127.82 61.2421 128.779C54.5438 129.739 48.3361 125.086 47.3769 118.388C47.2276 117.345 47.2142 116.314 47.3234 115.313L35.735 116.973L29.0971 117.923L25.697 120.279L30.7993 155.909C33.7743 176.684 53.0274 191.113 73.8023 188.138L106.685 183.429L109.692 178.327L106.312 156.726C108.176 157.426 110.237 157.681 112.347 157.379C119.045 156.42 123.698 150.212 122.739 143.514C121.779 136.815 115.572 132.163 108.873 133.122C106.651 133.44 104.654 134.336 103.012 135.637L98.6808 107.959L70.8221 111.948C71.2079 112.878 71.4844 113.872 71.6337 114.914Z" fill="#144E8F"/>
<path d="M47.3234 115.313L48.3175 115.422L48.4573 114.141L47.1817 114.323L47.3234 115.313ZM35.735 116.973L35.8768 117.963L35.735 116.973ZM29.0971 117.923L28.9554 116.934L28.7217 116.967L28.5276 117.101L29.0971 117.923ZM25.697 120.279L25.1276 119.457L24.6195 119.809L24.7071 120.421L25.697 120.279ZM30.7993 155.909L31.7892 155.767L30.7993 155.909ZM73.8023 188.138L73.6605 187.148L73.8023 188.138ZM106.685 183.429L106.827 184.419L107.303 184.351L107.547 183.937L106.685 183.429ZM109.692 178.327L110.554 178.835L110.735 178.526L110.68 178.172L109.692 178.327ZM106.312 156.726L106.664 155.79L105.059 155.188L105.324 156.881L106.312 156.726ZM103.012 135.637L102.024 135.791L102.289 137.485L103.633 136.42L103.012 135.637ZM98.6808 107.959L99.6688 107.804L99.5162 106.829L98.539 106.969L98.6808 107.959ZM70.8221 111.948L70.6804 110.958L69.4048 111.141L69.8984 112.331L70.8221 111.948ZM61.3839 129.769C68.6289 128.732 73.6611 122.017 72.6236 114.772L70.6438 115.056C71.5247 121.208 67.252 126.909 61.1003 127.79L61.3839 129.769ZM46.387 118.53C47.4245 125.775 54.1388 130.807 61.3839 129.769L61.1003 127.79C54.9487 128.67 49.2477 124.398 48.3668 118.246L46.387 118.53ZM46.3293 115.205C46.2111 116.288 46.2257 117.403 46.387 118.53L48.3668 118.246C48.2294 117.287 48.2173 116.34 48.3175 115.422L46.3293 115.205ZM35.8768 117.963L47.4652 116.303L47.1817 114.323L35.5933 115.983L35.8768 117.963ZM29.2389 118.913L35.8768 117.963L35.5933 115.983L28.9554 116.934L29.2389 118.913ZM26.2665 121.101L29.6666 118.745L28.5276 117.101L25.1276 119.457L26.2665 121.101ZM31.7892 155.767L26.6869 120.137L24.7071 120.421L29.8094 156.05L31.7892 155.767ZM73.6605 187.148C53.4324 190.045 34.6859 175.995 31.7892 155.767L29.8094 156.05C32.8627 177.372 52.6225 192.181 73.9441 189.128L73.6605 187.148ZM106.544 182.439L73.6605 187.148L73.9441 189.128L106.827 184.419L106.544 182.439ZM108.83 177.819L105.824 182.922L107.547 183.937L110.554 178.835L108.83 177.819ZM105.324 156.881L108.704 178.482L110.68 178.172L107.3 156.572L105.324 156.881ZM112.205 156.389C110.266 156.667 108.374 156.433 106.664 155.79L105.96 157.663C107.978 158.42 110.208 158.695 112.489 158.369L112.205 156.389ZM121.749 143.655C122.63 149.807 118.357 155.508 112.205 156.389L112.489 158.369C119.734 157.331 124.766 150.617 123.728 143.372L121.749 143.655ZM109.015 134.112C115.167 133.231 120.868 137.504 121.749 143.655L123.728 143.372C122.691 136.127 115.977 131.095 108.732 132.132L109.015 134.112ZM103.633 136.42C105.139 135.227 106.972 134.405 109.015 134.112L108.732 132.132C106.329 132.476 104.168 133.446 102.391 134.853L103.633 136.42ZM97.6928 108.113L102.024 135.791L104 135.482L99.6688 107.804L97.6928 108.113ZM70.9639 112.938L98.8226 108.949L98.539 106.969L70.6804 110.958L70.9639 112.938ZM72.6236 114.772C72.4623 113.646 72.1634 112.572 71.7459 111.565L69.8984 112.331C70.2523 113.185 70.5064 114.097 70.6438 115.056L72.6236 114.772Z" fill="#144E8F" mask="url(#path-7-inside-3_766_3140)"/>
<mask id="path-9-inside-4_766_3140" fill="white">
<path fill-rule="evenodd" clip-rule="evenodd" d="M76.0211 112.372C76.9443 118.819 72.4663 124.794 66.0192 125.717C59.572 126.64 53.5972 122.162 52.6739 115.715C52.6186 115.329 52.5827 114.945 52.5654 114.563L29.1628 117.914L34.7223 156.736C37.2276 174.231 53.4407 186.382 70.9354 183.877L109.758 178.318L106.005 152.109C108.187 153.335 110.776 153.879 113.445 153.496C119.892 152.573 124.37 146.598 123.447 140.151C122.524 133.704 116.549 129.226 110.102 130.149C107.432 130.532 105.1 131.78 103.35 133.569L99.6621 107.818L75.8018 111.235C75.8923 111.607 75.9658 111.986 76.0211 112.372Z"/>
</mask>
<path fill-rule="evenodd" clip-rule="evenodd" d="M76.0211 112.372C76.9443 118.819 72.4663 124.794 66.0192 125.717C59.572 126.64 53.5972 122.162 52.6739 115.715C52.6186 115.329 52.5827 114.945 52.5654 114.563L29.1628 117.914L34.7223 156.736C37.2276 174.231 53.4407 186.382 70.9354 183.877L109.758 178.318L106.005 152.109C108.187 153.335 110.776 153.879 113.445 153.496C119.892 152.573 124.37 146.598 123.447 140.151C122.524 133.704 116.549 129.226 110.102 130.149C107.432 130.532 105.1 131.78 103.35 133.569L99.6621 107.818L75.8018 111.235C75.8923 111.607 75.9658 111.986 76.0211 112.372Z" fill="#8BBCEE"/>
<path d="M52.5654 114.563L53.5644 114.518L53.5146 113.417L52.4237 113.573L52.5654 114.563ZM29.1628 117.914L29.0211 116.924L28.0312 117.066L28.1729 118.056L29.1628 117.914ZM34.7223 156.736L35.7122 156.595L34.7223 156.736ZM109.758 178.318L109.9 179.308L110.889 179.166L110.748 178.176L109.758 178.318ZM106.005 152.109L106.494 151.237L104.727 150.244L105.015 152.251L106.005 152.109ZM103.35 133.569L102.36 133.711L102.647 135.717L104.064 134.269L103.35 133.569ZM99.6621 107.818L100.652 107.677L100.51 106.687L99.5203 106.828L99.6621 107.818ZM75.8018 111.235L75.66 110.245L74.5691 110.402L74.8303 111.472L75.8018 111.235ZM66.1609 126.707C73.1548 125.705 78.0125 119.224 77.011 112.23L75.0312 112.514C75.8761 118.414 71.7778 123.882 65.8774 124.727L66.1609 126.707ZM51.684 115.857C52.6855 122.851 59.1671 127.709 66.1609 126.707L65.8774 124.727C59.977 125.572 54.5088 121.474 53.6638 115.573L51.684 115.857ZM51.5664 114.608C51.5852 115.022 51.6241 115.439 51.684 115.857L53.6638 115.573C53.6131 115.219 53.5802 114.867 53.5644 114.518L51.5664 114.608ZM29.3046 118.904L52.7072 115.553L52.4237 113.573L29.0211 116.924L29.3046 118.904ZM35.7122 156.595L30.1527 117.772L28.1729 118.056L33.7324 156.878L35.7122 156.595ZM70.7936 182.887C53.8457 185.314 38.1392 173.543 35.7122 156.595L33.7324 156.878C36.316 174.92 53.0358 187.451 71.0771 184.867L70.7936 182.887ZM109.616 177.328L70.7936 182.887L71.0771 184.867L109.9 179.308L109.616 177.328ZM105.015 152.251L108.768 178.459L110.748 178.176L106.995 151.967L105.015 152.251ZM113.303 152.507C110.859 152.857 108.492 152.359 106.494 151.237L105.515 152.981C107.882 154.311 110.692 154.901 113.587 154.486L113.303 152.507ZM122.457 140.293C123.302 146.193 119.204 151.662 113.303 152.507L113.587 154.486C120.581 153.485 125.438 147.003 124.437 140.009L122.457 140.293ZM110.243 131.139C116.144 130.294 121.612 134.393 122.457 140.293L124.437 140.009C123.435 133.016 116.954 128.158 109.96 129.159L110.243 131.139ZM104.064 134.269C105.667 132.631 107.799 131.489 110.243 131.139L109.96 129.159C107.065 129.574 104.534 130.929 102.635 132.87L104.064 134.269ZM98.6722 107.96L102.36 133.711L104.34 133.428L100.652 107.677L98.6722 107.96ZM75.9435 112.225L99.8039 108.808L99.5203 106.828L75.66 110.245L75.9435 112.225ZM77.011 112.23C76.9511 111.812 76.8715 111.401 76.7733 110.998L74.8303 111.472C74.9132 111.812 74.9805 112.159 75.0312 112.514L77.011 112.23Z" fill="#144E8F" mask="url(#path-9-inside-4_766_3140)"/>
<path d="M31.8672 202.907C47.4975 218.629 70.195 221.123 82.5809 208.809C94.9668 196.495 92.605 173.783 76.9746 158.062C61.3442 142.34 38.6468 139.846 26.2609 152.16C13.875 164.474 16.2368 187.185 31.8672 202.907Z" fill="#D1B052" stroke="#BD9435"/>
<path d="M37.0091 195.813C52.4318 211.326 75.0458 213.593 87.5333 201.178C100.021 188.763 97.8858 166.136 82.4631 150.623C67.0404 135.11 44.4264 132.844 31.9389 145.259C19.4515 157.674 21.5864 180.3 37.0091 195.813Z" fill="#F2EDCF" stroke="#BD9435"/>
<g filter="url(#filter0_i_766_3140)">
<ellipse cx="23.1493" cy="28.8675" rx="23.1493" ry="28.8675" transform="matrix(-0.709163 0.705044 0.705044 0.709163 56.1182 136.468)" fill="#E7DBA1"/>
</g>
<path d="M93.9752 186.467C94.3238 181.77 91.3058 177.552 86.9849 175.678L36.3001 153.688C33.1063 152.302 29.265 153.078 27.4854 156.07C27.1372 156.655 26.8278 157.242 26.5973 157.797C26.4082 158.252 26.2398 158.763 26.0904 159.297C25.1694 162.592 27.2021 165.861 30.3284 167.252L84.8987 191.534C90.0061 193.806 93.5614 192.042 93.9752 186.467Z" fill="url(#paint0_linear_766_3140)" fill-opacity="0.4"/>
<g filter="url(#filter1_d_766_3140)">
<path d="M52.1982 167.383L48.2229 171.042L45.0415 167.585L56.7945 156.768L59.976 160.225L56.0007 163.883L75.0896 184.624L71.2872 188.124L52.1982 167.383Z" fill="white"/>
</g>
<mask id="path-16-inside-5_766_3140" fill="white">
<path fill-rule="evenodd" clip-rule="evenodd" d="M50.9277 52.295C55.4842 35.2194 73.0205 25.0706 90.0962 29.6271L134.494 41.4742L127.61 67.2711C129.154 67.0995 130.755 67.2065 132.347 67.6312C139.214 69.4637 143.296 76.5162 141.463 83.3835C139.631 90.2508 132.578 94.3324 125.711 92.4999C124.119 92.0752 122.678 91.3702 121.424 90.4522L115.871 111.263L110.134 115.653L88.1471 109.786C88.2441 111.169 88.1176 112.591 87.7401 114.006C85.9077 120.873 78.8551 124.954 71.9878 123.122C65.1205 121.289 61.039 114.237 62.8715 107.37C63.2489 105.955 63.8479 104.659 64.621 103.508L39.0806 96.6926L50.9277 52.295Z"/>
</mask>
<path fill-rule="evenodd" clip-rule="evenodd" d="M50.9277 52.295C55.4842 35.2194 73.0205 25.0706 90.0962 29.6271L134.494 41.4742L127.61 67.2711C129.154 67.0995 130.755 67.2065 132.347 67.6312C139.214 69.4637 143.296 76.5162 141.463 83.3835C139.631 90.2508 132.578 94.3324 125.711 92.4999C124.119 92.0752 122.678 91.3702 121.424 90.4522L115.871 111.263L110.134 115.653L88.1471 109.786C88.2441 111.169 88.1176 112.591 87.7401 114.006C85.9077 120.873 78.8551 124.954 71.9878 123.122C65.1205 121.289 61.039 114.237 62.8715 107.37C63.2489 105.955 63.8479 104.659 64.621 103.508L39.0806 96.6926L50.9277 52.295Z" fill="#144E8F"/>
<path d="M134.494 41.4742L135.46 41.732L135.718 40.7658L134.752 40.508L134.494 41.4742ZM127.61 67.2711L126.644 67.0133L126.267 68.4265L127.721 68.265L127.61 67.2711ZM121.424 90.4522L122.015 89.6455L120.835 88.7811L120.458 90.1944L121.424 90.4522ZM115.871 111.263L116.479 112.057L116.75 111.85L116.838 111.52L115.871 111.263ZM110.134 115.653L109.876 116.619L110.351 116.746L110.742 116.447L110.134 115.653ZM88.1471 109.786L88.4049 108.819L87.0515 108.458L87.1495 109.856L88.1471 109.786ZM64.621 103.508L65.4511 104.066L66.2323 102.903L64.8789 102.542L64.621 103.508ZM39.0806 96.6926L38.1144 96.4348L37.8566 97.401L38.8228 97.6588L39.0806 96.6926ZM90.354 28.6609C72.7447 23.962 54.6604 34.4279 49.9615 52.0372L51.8939 52.5528C56.308 36.0108 73.2963 26.1792 89.8383 30.5933L90.354 28.6609ZM134.752 40.508L90.354 28.6609L89.8383 30.5933L134.236 42.4404L134.752 40.508ZM128.576 67.5289L135.46 41.732L133.528 41.2164L126.644 67.0133L128.576 67.5289ZM132.605 66.665C130.891 66.2078 129.165 66.0921 127.5 66.2772L127.721 68.265C129.143 68.1069 130.62 68.2053 132.089 68.5974L132.605 66.665ZM142.429 83.6414C144.404 76.2404 140.006 68.6399 132.605 66.665L132.089 68.5974C138.423 70.2875 142.187 76.792 140.497 83.1257L142.429 83.6414ZM125.453 93.4661C132.854 95.4409 140.455 91.0423 142.429 83.6414L140.497 83.1257C138.807 89.4594 132.302 93.2238 125.969 91.5337L125.453 93.4661ZM120.833 91.2589C122.185 92.2492 123.74 93.0089 125.453 93.4661L125.969 91.5337C124.499 91.1416 123.17 90.4913 122.015 89.6455L120.833 91.2589ZM116.838 111.52L122.391 90.71L120.458 90.1944L114.905 111.005L116.838 111.52ZM110.742 116.447L116.479 112.057L115.264 110.468L109.526 114.858L110.742 116.447ZM87.8893 110.752L109.876 116.619L110.392 114.686L88.4049 108.819L87.8893 110.752ZM87.1495 109.856C87.239 111.13 87.1225 112.441 86.7739 113.748L88.7063 114.263C89.1127 112.741 89.2493 111.207 89.1446 109.716L87.1495 109.856ZM86.7739 113.748C85.0839 120.081 78.5793 123.846 72.2456 122.156L71.73 124.088C79.1309 126.063 86.7315 121.664 88.7063 114.263L86.7739 113.748ZM72.2456 122.156C65.9119 120.466 62.1476 113.961 63.8376 107.627L61.9053 107.112C59.9304 114.513 64.3291 122.113 71.73 124.088L72.2456 122.156ZM63.8376 107.627C64.1862 106.321 64.7387 105.126 65.4511 104.066L63.791 102.95C62.957 104.192 62.3116 105.589 61.9053 107.112L63.8376 107.627ZM38.8228 97.6588L64.3632 104.474L64.8789 102.542L39.3384 95.7264L38.8228 97.6588ZM49.9615 52.0372L38.1144 96.4348L40.0468 96.9504L51.8939 52.5528L49.9615 52.0372Z" fill="#144E8F" mask="url(#path-16-inside-5_766_3140)"/>
<mask id="path-18-inside-6_766_3140" fill="white">
<path fill-rule="evenodd" clip-rule="evenodd" d="M48.762 54.7425C53.3184 37.6669 70.8547 27.5181 87.9304 32.0746L129.504 43.168L122.438 69.6464C124.874 68.6358 127.649 68.3895 130.394 69.1219C137.023 70.8909 140.964 77.6991 139.195 84.3284C137.426 90.9577 130.617 94.8978 123.988 93.1288C121.243 92.3964 118.96 90.8001 117.351 88.7103L110.16 115.659L84.6211 108.845C84.9008 110.534 84.8339 112.308 84.3638 114.07C82.5948 120.7 75.7866 124.64 69.1573 122.871C62.528 121.102 58.5879 114.294 60.3569 107.664C60.827 105.902 61.6531 104.33 62.7372 103.005L37.6685 96.3158L48.762 54.7425Z"/>
</mask>
<g filter="url(#filter2_i_766_3140)">
<path fill-rule="evenodd" clip-rule="evenodd" d="M48.762 54.7425C53.3184 37.6669 70.8547 27.5181 87.9304 32.0746L129.504 43.168L122.438 69.6464C124.874 68.6358 127.649 68.3895 130.394 69.1219C137.023 70.8909 140.964 77.6991 139.195 84.3284C137.426 90.9577 130.617 94.8978 123.988 93.1288C121.243 92.3964 118.96 90.8001 117.351 88.7103L110.16 115.659L84.6211 108.845C84.9008 110.534 84.8339 112.308 84.3638 114.07C82.5948 120.7 75.7866 124.64 69.1573 122.871C62.528 121.102 58.5879 114.294 60.3569 107.664C60.827 105.902 61.6531 104.33 62.7372 103.005L37.6685 96.3158L48.762 54.7425Z" fill="#4E9AE2"/>
</g>
<path d="M129.504 43.168L130.47 43.4259L130.728 42.4597L129.761 42.2019L129.504 43.168ZM122.438 69.6464L121.472 69.3886L120.949 71.3467L122.821 70.57L122.438 69.6464ZM117.351 88.7103L118.144 88.1004L116.907 86.4943L116.385 88.4525L117.351 88.7103ZM110.16 115.659L109.902 116.626L110.868 116.883L111.126 115.917L110.16 115.659ZM84.6211 108.845L84.8789 107.878L83.3813 107.479L83.6345 109.008L84.6211 108.845ZM62.7372 103.005L63.5113 103.638L64.4927 102.439L62.9951 102.039L62.7372 103.005ZM37.6685 96.3158L36.7023 96.058L36.4445 97.0241L37.4107 97.282L37.6685 96.3158ZM88.1882 31.1084C70.579 26.4095 52.4946 36.8754 47.7958 54.4847L49.7282 55.0003C54.1423 38.4583 71.1305 28.6267 87.6726 33.0408L88.1882 31.1084ZM129.761 42.2019L88.1882 31.1084L87.6726 33.0408L129.246 44.1342L129.761 42.2019ZM123.404 69.9042L130.47 43.4259L128.537 42.9102L121.472 69.3886L123.404 69.9042ZM130.652 68.1557C127.687 67.3646 124.687 67.6308 122.055 68.7227L122.821 70.57C125.061 69.6408 127.611 69.4143 130.136 70.0881L130.652 68.1557ZM140.161 84.5862C142.072 77.4233 137.815 70.0671 130.652 68.1557L130.136 70.0881C136.232 71.7147 139.855 77.9748 138.228 84.0706L140.161 84.5862ZM123.73 94.095C130.893 96.0064 138.249 91.7491 140.161 84.5862L138.228 84.0706C136.602 90.1663 130.342 93.7892 124.246 92.1626L123.73 94.095ZM116.559 89.3202C118.297 91.5782 120.766 93.3039 123.73 94.095L124.246 92.1626C121.721 91.4889 119.623 90.0219 118.144 88.1004L116.559 89.3202ZM111.126 115.917L118.317 88.9681L116.385 88.4525L109.194 115.402L111.126 115.917ZM84.3633 109.811L109.902 116.626L110.418 114.693L84.8789 107.878L84.3633 109.811ZM83.6345 109.008C83.8915 110.56 83.8304 112.191 83.3976 113.813L85.33 114.328C85.8375 112.426 85.9101 110.508 85.6076 108.681L83.6345 109.008ZM83.3976 113.813C81.771 119.908 75.5108 123.531 69.4151 121.905L68.8995 123.837C76.0624 125.748 83.4186 121.491 85.33 114.328L83.3976 113.813ZM69.4151 121.905C63.3194 120.278 59.6965 114.018 61.323 107.922L59.3907 107.407C57.4793 114.569 61.7365 121.926 68.8995 123.837L69.4151 121.905ZM61.323 107.922C61.7558 106.3 62.5154 104.856 63.5113 103.638L61.9632 102.372C60.7909 103.805 59.8982 105.505 59.3907 107.407L61.323 107.922ZM37.4107 97.282L62.4794 103.971L62.9951 102.039L37.9263 95.3496L37.4107 97.282ZM47.7958 54.4847L36.7023 96.058L38.6347 96.5736L49.7282 55.0003L47.7958 54.4847Z" fill="#144E8F" mask="url(#path-18-inside-6_766_3140)"/>
<mask id="path-20-inside-7_766_3140" fill="white">
<path fill-rule="evenodd" clip-rule="evenodd" d="M48.762 54.7425C53.3184 37.6669 70.8547 27.5181 87.9304 32.0746L129.504 43.168L122.438 69.6464C124.874 68.6358 127.649 68.3895 130.394 69.1219C137.023 70.8909 140.964 77.6991 139.195 84.3284C137.426 90.9577 130.617 94.8978 123.988 93.1288C121.243 92.3964 118.96 90.8001 117.351 88.7103L110.16 115.659L84.6211 108.845C84.9008 110.534 84.8339 112.308 84.3638 114.07C82.5948 120.7 75.7866 124.64 69.1573 122.871C62.528 121.102 58.5879 114.294 60.3569 107.664C60.827 105.902 61.6531 104.33 62.7372 103.005L37.6685 96.3158L48.762 54.7425Z"/>
</mask>
<path d="M129.504 43.168L130.47 43.4259L130.728 42.4597L129.761 42.2019L129.504 43.168ZM122.438 69.6464L121.472 69.3886L120.949 71.3467L122.821 70.57L122.438 69.6464ZM117.351 88.7103L118.144 88.1004L116.907 86.4943L116.385 88.4525L117.351 88.7103ZM110.16 115.659L109.902 116.626L110.868 116.883L111.126 115.917L110.16 115.659ZM84.6211 108.845L84.8789 107.878L83.3813 107.479L83.6345 109.008L84.6211 108.845ZM62.7372 103.005L63.5113 103.638L64.4927 102.439L62.9951 102.039L62.7372 103.005ZM37.6685 96.3158L36.7023 96.058L36.4445 97.0241L37.4107 97.282L37.6685 96.3158ZM88.1882 31.1084C70.579 26.4095 52.4946 36.8754 47.7958 54.4847L49.7282 55.0003C54.1423 38.4583 71.1305 28.6267 87.6726 33.0408L88.1882 31.1084ZM129.761 42.2019L88.1882 31.1084L87.6726 33.0408L129.246 44.1342L129.761 42.2019ZM123.404 69.9042L130.47 43.4259L128.537 42.9102L121.472 69.3886L123.404 69.9042ZM130.652 68.1557C127.687 67.3646 124.687 67.6308 122.055 68.7227L122.821 70.57C125.061 69.6408 127.611 69.4143 130.136 70.0881L130.652 68.1557ZM140.161 84.5862C142.072 77.4233 137.815 70.0671 130.652 68.1557L130.136 70.0881C136.232 71.7147 139.855 77.9748 138.228 84.0706L140.161 84.5862ZM123.73 94.095C130.893 96.0064 138.249 91.7491 140.161 84.5862L138.228 84.0706C136.602 90.1663 130.342 93.7892 124.246 92.1626L123.73 94.095ZM116.559 89.3202C118.297 91.5782 120.766 93.3039 123.73 94.095L124.246 92.1626C121.721 91.4889 119.623 90.0219 118.144 88.1004L116.559 89.3202ZM111.126 115.917L118.317 88.9681L116.385 88.4525L109.194 115.402L111.126 115.917ZM84.3633 109.811L109.902 116.626L110.418 114.693L84.8789 107.878L84.3633 109.811ZM83.6345 109.008C83.8915 110.56 83.8304 112.191 83.3976 113.813L85.33 114.328C85.8375 112.426 85.9101 110.508 85.6076 108.681L83.6345 109.008ZM83.3976 113.813C81.771 119.908 75.5108 123.531 69.4151 121.905L68.8995 123.837C76.0624 125.748 83.4186 121.491 85.33 114.328L83.3976 113.813ZM69.4151 121.905C63.3194 120.278 59.6965 114.018 61.323 107.922L59.3907 107.407C57.4793 114.569 61.7365 121.926 68.8995 123.837L69.4151 121.905ZM61.323 107.922C61.7558 106.3 62.5154 104.856 63.5113 103.638L61.9632 102.372C60.7909 103.805 59.8982 105.505 59.3907 107.407L61.323 107.922ZM37.4107 97.282L62.4794 103.971L62.9951 102.039L37.9263 95.3496L37.4107 97.282ZM47.7958 54.4847L36.7023 96.058L38.6347 96.5736L49.7282 55.0003L47.7958 54.4847Z" fill="#144E8F" mask="url(#path-20-inside-7_766_3140)"/>
<path d="M235.836 118.734C222.251 132.399 202.543 134.55 191.8 123.869C181.058 113.189 183.093 93.469 196.679 79.8044C210.264 66.1397 229.972 63.9889 240.714 74.6693C251.457 85.3497 249.421 105.069 235.836 118.734Z" fill="#D1B052" stroke="#BD9435"/>
<path d="M231.362 112.561C217.958 126.043 198.323 127.998 187.491 117.229C176.659 106.46 178.499 86.8139 191.903 73.3319C205.307 59.8499 224.942 57.8953 235.774 68.6643C246.606 79.4333 244.765 99.0795 231.362 112.561Z" fill="#F2EDCF" stroke="#BD9435"/>
<g filter="url(#filter3_i_766_3140)">
<ellipse cx="211.355" cy="92.9841" rx="20.1428" ry="25.1185" transform="rotate(44.8331 211.355 92.9841)" fill="#E7DBA1"/>
</g>
<g filter="url(#filter4_d_766_3140)">
<path d="M204.752 104.039C203.03 103.091 201.995 101.889 201.646 100.435C201.309 98.9583 201.644 97.3054 202.652 95.4758L203.363 94.1843L206.721 96.0338L205.867 97.5836C205.061 99.0473 205.271 100.117 206.498 100.793C207.101 101.125 207.648 101.202 208.139 101.023C208.663 100.835 209.145 100.343 209.584 99.5464C210.105 98.5993 210.346 97.652 210.307 96.7046C210.28 95.7356 209.963 94.4252 209.358 92.7733C208.606 90.6756 208.224 88.9501 208.212 87.5968C208.211 86.222 208.573 84.8781 209.296 83.5651C210.28 81.7785 211.491 80.6499 212.929 80.1792C214.378 79.687 215.964 79.9151 217.686 80.8636C219.386 81.8002 220.394 83.0007 220.71 84.4651C221.059 85.9198 220.729 87.5619 219.722 89.3916L219.206 90.3279L215.848 88.4784L216.488 87.316C216.915 86.5411 217.073 85.8985 216.961 85.3881C216.861 84.8562 216.521 84.4302 215.94 84.1101C214.756 83.458 213.767 83.8531 212.972 85.2953C212.522 86.1132 212.316 86.9959 212.355 87.9433C212.416 88.9026 212.749 90.2082 213.354 91.8601C214.128 93.9696 214.504 95.7059 214.483 97.0689C214.462 98.4318 214.06 99.8236 213.277 101.244C212.258 103.095 211.013 104.261 209.542 104.741C208.092 105.234 206.496 105 204.752 104.039Z" fill="white"/>
</g>
<path d="M181.84 104.475C181.537 100.388 184.163 96.7181 187.923 95.0869L231.329 76.2552C234.522 74.8696 238.44 75.6097 240.068 78.6872C240.219 78.973 240.354 79.2552 240.468 79.5282C240.546 79.7165 240.62 79.9158 240.69 80.1232C241.789 83.3638 239.669 86.6667 236.542 88.0577L189.738 108.884C185.294 110.861 182.2 109.326 181.84 104.475Z" fill="url(#paint1_linear_766_3140)" fill-opacity="0.4"/>
<path fill-rule="evenodd" clip-rule="evenodd" d="M67.2001 68.9108C68.9525 66.1139 69.9426 62.9371 69.9426 59.569C69.9426 48.3452 58.9484 39.2466 45.3863 39.2466C31.8243 39.2466 20.8301 48.3452 20.8301 59.569C20.8301 70.7928 31.8243 79.8914 45.3863 79.8914C50.407 79.8914 55.0757 78.6445 58.965 76.5044H69.6605L73.8944 72.8351L67.2001 68.9108Z" fill="#389181"/>
<path d="M67.2001 68.9108L66.7764 68.6454L66.503 69.0818L66.9472 69.3422L67.2001 68.9108ZM58.965 76.5044V76.0044H58.8365L58.7239 76.0663L58.965 76.5044ZM69.6605 76.5044V77.0044H69.847L69.988 76.8823L69.6605 76.5044ZM73.8944 72.8351L74.2218 73.2129L74.7487 72.7563L74.1472 72.4037L73.8944 72.8351ZM69.4426 59.569C69.4426 62.8365 68.4827 65.9221 66.7764 68.6454L67.6238 69.1763C69.4224 66.3057 70.4426 63.0378 70.4426 59.569H69.4426ZM45.3863 39.7466C58.765 39.7466 69.4426 48.7058 69.4426 59.569H70.4426C70.4426 47.9847 59.1318 38.7466 45.3863 38.7466V39.7466ZM21.3301 59.569C21.3301 48.7058 32.0077 39.7466 45.3863 39.7466V38.7466C31.6409 38.7466 20.3301 47.9847 20.3301 59.569H21.3301ZM45.3863 79.3914C32.0077 79.3914 21.3301 70.4322 21.3301 59.569H20.3301C20.3301 71.1533 31.6409 80.3914 45.3863 80.3914V79.3914ZM58.7239 76.0663C54.9102 78.1649 50.3246 79.3914 45.3863 79.3914V80.3914C50.4893 80.3914 55.2412 79.1241 59.206 76.9425L58.7239 76.0663ZM69.6605 76.0044H58.965V77.0044H69.6605V76.0044ZM73.5669 72.4572L69.3331 76.1266L69.988 76.8823L74.2218 73.2129L73.5669 72.4572ZM66.9472 69.3422L73.6415 73.2664L74.1472 72.4037L67.4529 68.4795L66.9472 69.3422Z" fill="#277467"/>
<path fill-rule="evenodd" clip-rule="evenodd" d="M70.2323 66.6342C72.2054 63.7077 73.3298 60.3357 73.3298 56.7464C73.3298 45.5226 62.3356 36.424 48.7735 36.424C35.2115 36.424 24.2173 45.5226 24.2173 56.7464C24.2173 67.9701 35.2115 77.0688 48.7735 77.0688C55.1347 77.0688 60.931 75.0671 65.2928 71.7832L70.6281 72.7408C72.4462 73.0671 73.6971 70.9652 72.5432 69.5229L70.2323 66.6342Z" fill="#DBF0E8"/>
<path d="M70.2323 66.6342L69.8177 66.3547L69.6122 66.6595L69.8418 66.9466L70.2323 66.6342ZM65.2928 71.7832L65.3812 71.2911L65.1664 71.2525L64.9921 71.3838L65.2928 71.7832ZM70.6281 72.7408L70.7165 72.2487L70.6281 72.7408ZM72.5432 69.5229L72.1528 69.8352L72.5432 69.5229ZM72.8298 56.7464C72.8298 60.2281 71.7398 63.5039 69.8177 66.3547L70.6468 66.9137C72.6711 63.9114 73.8298 60.4432 73.8298 56.7464H72.8298ZM48.7735 36.924C62.1522 36.924 72.8298 45.8831 72.8298 56.7464H73.8298C73.8298 45.1621 62.519 35.924 48.7735 35.924V36.924ZM24.7173 56.7464C24.7173 45.8831 35.3949 36.924 48.7735 36.924V35.924C35.0281 35.924 23.7173 45.1621 23.7173 56.7464H24.7173ZM48.7735 76.5688C35.3949 76.5688 24.7173 67.6096 24.7173 56.7464H23.7173C23.7173 68.3307 35.0281 77.5688 48.7735 77.5688V76.5688ZM64.9921 71.3838C60.7209 74.5994 55.0312 76.5688 48.7735 76.5688V77.5688C55.2383 77.5688 61.1412 75.5347 65.5936 72.1827L64.9921 71.3838ZM70.7165 72.2487L65.3812 71.2911L65.2045 72.2753L70.5398 73.233L70.7165 72.2487ZM72.1528 69.8352C73.0182 70.917 72.08 72.4934 70.7165 72.2487L70.5398 73.233C72.8124 73.6409 74.376 71.0135 72.9336 69.2105L72.1528 69.8352ZM69.8418 66.9466L72.1528 69.8352L72.9336 69.2105L70.6227 66.3219L69.8418 66.9466Z" fill="#277467"/>
<circle cx="43.4107" cy="59.0044" r="2.32256" fill="#A8DACA" stroke="#1F5D54"/>
<circle cx="50.1846" cy="56.7464" r="2.32256" fill="#A8DACA" stroke="#1F5D54"/>
<circle cx="57.5235" cy="54.4883" r="2.32256" fill="#A8DACA" stroke="#1F5D54"/>
<ellipse cx="158.025" cy="171.95" rx="13.6712" ry="18.0099" transform="rotate(39.3891 158.025 171.95)" fill="#144E8F"/>
<path d="M160.83 179.038C153.217 186.695 142.241 187.843 136.297 181.934C130.353 176.024 131.438 165.042 139.05 157.385C146.663 149.728 157.638 148.58 163.582 154.489C169.527 160.399 168.442 171.381 160.83 179.038Z" fill="#D1B052" stroke="#BD9435"/>
<path d="M158.306 175.556C150.799 183.107 139.864 184.15 133.867 178.188C127.87 172.226 128.849 161.285 136.356 153.734C143.863 146.183 154.799 145.14 160.796 151.102C166.793 157.064 165.813 168.005 158.306 175.556Z" fill="#F2EDCF" stroke="#BD9435"/>
<g filter="url(#filter5_i_766_3140)">
<ellipse cx="147.175" cy="164.666" rx="11.3626" ry="14.1693" transform="rotate(44.8331 147.175 164.666)" fill="#E7DBA1"/>
</g>
<path d="M130.525 171.148C130.354 168.843 131.835 166.772 133.956 165.852L157.959 155.439C160.048 154.532 162.723 154.973 163.597 157.076C164.42 159.056 163.014 161.161 161.055 162.033L134.98 173.635C132.473 174.75 130.728 173.884 130.525 171.148Z" fill="url(#paint2_linear_766_3140)" fill-opacity="0.4"/>
<path d="M120.014 36.0069L121.9 41.1181L127.007 43.0138L121.896 44.8994L120 50.0069L118.115 44.8957L113.007 43L118.118 41.1144L120.014 36.0069Z" fill="white"/>
<path d="M158.018 193.009L160.442 199.58L167.009 202.018L160.437 204.442L158 211.009L155.576 204.437L149.009 202L155.581 199.576L158.018 193.009Z" fill="white"/>
<ellipse cx="125" cy="233.5" rx="51" ry="9.5" fill="#144E8F"/>
</g>
<defs>
<filter id="filter0_i_766_3140" x="33.905" y="147.078" width="52.2988" height="52.3652" filterUnits="userSpaceOnUse" color-interpolation-filters="sRGB">
<feFlood flood-opacity="0" result="BackgroundImageFix"/>
<feBlend mode="normal" in="SourceGraphic" in2="BackgroundImageFix" result="shape"/>
<feColorMatrix in="SourceAlpha" type="matrix" values="0 0 0 0 0 0 0 0 0 0 0 0 0 0 0 0 0 0 127 0" result="hardAlpha"/>
<feOffset dy="4"/>
<feComposite in2="hardAlpha" operator="arithmetic" k2="-1" k3="1"/>
<feColorMatrix type="matrix" values="0 0 0 0 0.819608 0 0 0 0 0.690196 0 0 0 0 0.321569 0 0 0 1 0"/>
<feBlend mode="normal" in2="shape" result="effect1_innerShadow_766_3140"/>
</filter>
<filter id="filter1_d_766_3140" x="45.0415" y="156.768" width="30.0481" height="33.3557" filterUnits="userSpaceOnUse" color-interpolation-filters="sRGB">
<feFlood flood-opacity="0" result="BackgroundImageFix"/>
<feColorMatrix in="SourceAlpha" type="matrix" values="0 0 0 0 0 0 0 0 0 0 0 0 0 0 0 0 0 0 127 0" result="hardAlpha"/>
<feOffset dy="2"/>
<feComposite in2="hardAlpha" operator="out"/>
<feColorMatrix type="matrix" values="0 0 0 0 0.819608 0 0 0 0 0.690196 0 0 0 0 0.321569 0 0 0 1 0"/>
<feBlend mode="normal" in2="BackgroundImageFix" result="effect1_dropShadow_766_3140"/>
<feBlend mode="normal" in="SourceGraphic" in2="effect1_dropShadow_766_3140" result="shape"/>
</filter>
<filter id="filter2_i_766_3140" x="37.6685" y="30.9849" width="101.949" height="92.3091" filterUnits="userSpaceOnUse" color-interpolation-filters="sRGB">
<feFlood flood-opacity="0" result="BackgroundImageFix"/>
<feBlend mode="normal" in="SourceGraphic" in2="BackgroundImageFix" result="shape"/>
<feColorMatrix in="SourceAlpha" type="matrix" values="0 0 0 0 0 0 0 0 0 0 0 0 0 0 0 0 0 0 127 0" result="hardAlpha"/>
<feOffset/>
<feGaussianBlur stdDeviation="2"/>
<feComposite in2="hardAlpha" operator="arithmetic" k2="-1" k3="1"/>
<feColorMatrix type="matrix" values="0 0 0 0 0 0 0 0 0 0 0 0 0 0 0 0 0 0 0.25 0"/>
<feBlend mode="normal" in2="shape" result="effect1_innerShadow_766_3140"/>
</filter>
<filter id="filter3_i_766_3140" x="188.602" y="70.2018" width="45.5068" height="45.5646" filterUnits="userSpaceOnUse" color-interpolation-filters="sRGB">
<feFlood flood-opacity="0" result="BackgroundImageFix"/>
<feBlend mode="normal" in="SourceGraphic" in2="BackgroundImageFix" result="shape"/>
<feColorMatrix in="SourceAlpha" type="matrix" values="0 0 0 0 0 0 0 0 0 0 0 0 0 0 0 0 0 0 127 0" result="hardAlpha"/>
<feOffset dy="4"/>
<feComposite in2="hardAlpha" operator="arithmetic" k2="-1" k3="1"/>
<feColorMatrix type="matrix" values="0 0 0 0 0.819608 0 0 0 0 0.690196 0 0 0 0 0.321569 0 0 0 1 0"/>
<feBlend mode="normal" in2="shape" result="effect1_innerShadow_766_3140"/>
</filter>
<filter id="filter4_d_766_3140" x="201.519" y="79.927" width="19.3257" height="27.0647" filterUnits="userSpaceOnUse" color-interpolation-filters="sRGB">
<feFlood flood-opacity="0" result="BackgroundImageFix"/>
<feColorMatrix in="SourceAlpha" type="matrix" values="0 0 0 0 0 0 0 0 0 0 0 0 0 0 0 0 0 0 127 0" result="hardAlpha"/>
<feOffset dy="2"/>
<feComposite in2="hardAlpha" operator="out"/>
<feColorMatrix type="matrix" values="0 0 0 0 0.819608 0 0 0 0 0.690196 0 0 0 0 0.321569 0 0 0 1 0"/>
<feBlend mode="normal" in2="BackgroundImageFix" result="effect1_dropShadow_766_3140"/>
<feBlend mode="normal" in="SourceGraphic" in2="effect1_dropShadow_766_3140" result="shape"/>
</filter>
<filter id="filter5_i_766_3140" x="134.34" y="151.814" width="25.6704" height="25.703" filterUnits="userSpaceOnUse" color-interpolation-filters="sRGB">
<feFlood flood-opacity="0" result="BackgroundImageFix"/>
<feBlend mode="normal" in="SourceGraphic" in2="BackgroundImageFix" result="shape"/>
<feColorMatrix in="SourceAlpha" type="matrix" values="0 0 0 0 0 0 0 0 0 0 0 0 0 0 0 0 0 0 127 0" result="hardAlpha"/>
<feOffset dy="4"/>
<feComposite in2="hardAlpha" operator="arithmetic" k2="-1" k3="1"/>
<feColorMatrix type="matrix" values="0 0 0 0 0.819608 0 0 0 0 0.690196 0 0 0 0 0.321569 0 0 0 1 0"/>
<feBlend mode="normal" in2="shape" result="effect1_innerShadow_766_3140"/>
</filter>
<linearGradient id="paint0_linear_766_3140" x1="90.5602" y1="185.518" x2="30.3119" y2="158.344" gradientUnits="userSpaceOnUse">
<stop stop-color="#F2EDCF"/>
<stop offset="0.545" stop-color="#FAF7EC"/>
<stop offset="1" stop-color="#F2EDCF"/>
</linearGradient>
<linearGradient id="paint1_linear_766_3140" x1="184.812" y1="103.649" x2="237.236" y2="80.0041" gradientUnits="userSpaceOnUse">
<stop stop-color="#F2EDCF"/>
<stop offset="0.545" stop-color="#FAF7EC"/>
<stop offset="1" stop-color="#F2EDCF"/>
</linearGradient>
<linearGradient id="paint2_linear_766_3140" x1="132.201" y1="170.682" x2="161.773" y2="157.344" gradientUnits="userSpaceOnUse">
<stop stop-color="#F2EDCF"/>
<stop offset="0.545" stop-color="#FAF7EC"/>
<stop offset="1" stop-color="#F2EDCF"/>
</linearGradient>
<clipPath id="clip0_766_3140">
<rect width="250" height="250" rx="32" fill="white"/>
</clipPath>
</defs>
</svg>
