<svg width="250" height="250" viewBox="0 0 250 250" fill="none" xmlns="http://www.w3.org/2000/svg">
<path d="M132.5 144L236.996 152.863C239.039 153.037 239.529 155.807 237.669 156.67L144.842 199.753C141.699 201.211 138.168 201.61 134.778 200.889L14.7755 175.366C12.6846 174.922 12.6555 171.948 14.7373 171.462L132.5 144Z" fill="#144E8F"/>
<path d="M8.18729 104.839L121.2 70.765L237.358 91.1635C237.555 91.1981 237.585 91.4686 237.4 91.5452L137.905 132.813L8.19121 104.936C8.17669 104.933 8.16977 104.929 8.1674 104.927C8.16488 104.926 8.16333 104.924 8.16192 104.923C8.15848 104.918 8.15248 104.907 8.15176 104.889C8.15104 104.871 8.1561 104.859 8.15917 104.855C8.16044 104.853 8.16186 104.851 8.16425 104.849C8.16649 104.848 8.17307 104.843 8.18729 104.839Z" fill="#154377" stroke="#144E8F"/>
<path d="M88.1812 50.0212V70.5992V102.177C88.1812 103.131 88.8557 103.953 89.792 104.138L225.847 131.125C227.084 131.37 228.236 130.424 228.236 129.163V78.1401C228.236 77.1974 227.578 76.3827 226.656 76.1847L152.803 60.3239C152.066 60.1658 151.481 59.6074 151.289 58.8792L148.617 48.7609C148.422 48.0245 147.826 47.4624 147.08 47.3113L107.554 39.3109C106.652 39.1283 105.742 39.5849 105.349 40.4171L101.407 48.7639C101.012 49.6009 100.094 50.0573 99.1883 49.8673L90.5918 48.0638C89.3491 47.8031 88.1812 48.7515 88.1812 50.0212Z" fill="#277DD0"/>
<path d="M88.1812 50.0212V70.5992V102.177C88.1812 103.131 88.8557 103.953 89.792 104.138L225.847 131.125C227.084 131.37 228.236 130.424 228.236 129.163V78.1401C228.236 77.1974 227.578 76.3827 226.656 76.1847L152.803 60.3239C152.066 60.1658 151.481 59.6074 151.289 58.8792L148.617 48.7609C148.422 48.0245 147.826 47.4624 147.08 47.3113L107.554 39.3109C106.652 39.1283 105.742 39.5849 105.349 40.4171L101.407 48.7639C101.012 49.6009 100.094 50.0573 99.1883 49.8673L90.5918 48.0638C89.3491 47.8031 88.1812 48.7515 88.1812 50.0212Z" stroke="#144E8F"/>
<path d="M82.3936 67.4909V88.3507V110.745C82.3936 111.679 83.0404 112.489 83.9517 112.695L221.164 143.778C222.415 144.061 223.606 143.11 223.606 141.827V95.9633C223.606 95.0212 222.949 94.2068 222.028 94.0082L147.539 77.9467C146.803 77.7879 146.218 77.2289 146.027 76.5004L143.325 66.2291C143.131 65.4924 142.536 64.9297 141.789 64.7779L101.918 56.675C101.014 56.4914 100.102 56.9493 99.7095 57.7837L95.7229 66.2595C95.3282 67.0987 94.4084 67.5564 93.5009 67.3653L84.8058 65.5338C83.5626 65.272 82.3936 66.2205 82.3936 67.4909Z" fill="#4E9AE2"/>
<path d="M82.3936 67.4909V88.3507V110.745C82.3936 111.679 83.0404 112.489 83.9517 112.695L221.164 143.778C222.415 144.061 223.606 143.11 223.606 141.827V95.9633C223.606 95.0212 222.949 94.2068 222.028 94.0082L147.539 77.9467C146.803 77.7879 146.218 77.2289 146.027 76.5004L143.325 66.2291C143.131 65.4924 142.536 64.9297 141.789 64.7779L101.918 56.675C101.014 56.4914 100.102 56.9493 99.7095 57.7837L95.7229 66.2595C95.3282 67.0987 94.4084 67.5564 93.5009 67.3653L84.8058 65.5338C83.5626 65.272 82.3936 66.2205 82.3936 67.4909Z" stroke="#144E8F"/>
<path d="M73.134 74.4358V95.2956V117.689C73.134 118.624 73.7809 119.434 74.6922 119.64L211.905 150.722C213.156 151.006 214.347 150.055 214.347 148.772V102.908C214.347 101.966 213.689 101.152 212.768 100.953L138.28 84.8916C137.543 84.7328 136.959 84.1738 136.767 83.4453L134.065 73.174C133.872 72.4372 133.276 71.8745 132.529 71.7228L92.6581 63.6199C91.7545 63.4363 90.8425 63.8942 90.45 64.7286L86.4634 73.2044C86.0687 74.0436 85.1489 74.5013 84.2414 74.3102L75.5463 72.4787C74.3031 72.2169 73.134 73.1653 73.134 74.4358Z" fill="#8BBCEE"/>
<path d="M73.134 74.4358V95.2956V117.689C73.134 118.624 73.7809 119.434 74.6922 119.64L211.905 150.722C213.156 151.006 214.347 150.055 214.347 148.772V102.908C214.347 101.966 213.689 101.152 212.768 100.953L138.28 84.8916C137.543 84.7328 136.959 84.1738 136.767 83.4453L134.065 73.174C133.872 72.4372 133.276 71.8745 132.529 71.7228L92.6581 63.6199C91.7545 63.4363 90.8425 63.8942 90.45 64.7286L86.4634 73.2044C86.0687 74.0436 85.1489 74.5013 84.2414 74.3102L75.5463 72.4787C74.3031 72.2169 73.134 73.1653 73.134 74.4358Z" stroke="#144E8F"/>
<path d="M159.138 154.391C145.58 168.028 125.913 170.174 115.192 159.515C104.472 148.857 106.503 129.178 120.061 115.541C133.619 101.904 153.286 99.7578 164.007 110.416C174.727 121.074 172.696 140.754 159.138 154.391Z" fill="#D1B052" stroke="#BD9435"/>
<path d="M154.673 148.231C141.296 161.685 121.702 163.636 110.892 152.889C100.082 142.142 101.919 122.536 115.295 109.082C128.671 95.627 148.266 93.6765 159.076 104.423C169.885 115.17 168.049 134.776 154.673 148.231Z" fill="#F2EDCF" stroke="#BD9435"/>
<g filter="url(#filter0_i_770_3527)">
<ellipse cx="134.708" cy="128.693" rx="20.1022" ry="25.0678" transform="rotate(44.8331 134.708 128.693)" fill="#E7DBA1"/>
</g>
<g filter="url(#filter1_d_770_3527)">
<path d="M128.117 139.726C126.399 138.78 125.365 137.581 125.017 136.129C124.68 134.656 125.015 133.006 126.021 131.18L126.731 129.891L130.082 131.737L129.23 133.284C128.425 134.744 128.635 135.812 129.86 136.486C130.461 136.818 131.007 136.894 131.497 136.716C132.02 136.528 132.501 136.037 132.939 135.242C133.459 134.297 133.7 133.352 133.661 132.406C133.633 131.439 133.318 130.132 132.714 128.483C131.963 126.39 131.582 124.668 131.57 123.317C131.569 121.945 131.93 120.604 132.652 119.293C133.634 117.51 134.842 116.384 136.277 115.914C137.723 115.423 139.306 115.651 141.024 116.597C142.721 117.532 143.727 118.73 144.042 120.192C144.391 121.643 144.062 123.282 143.056 125.108L142.542 126.043L139.191 124.197L139.829 123.037C140.255 122.263 140.413 121.622 140.301 121.113C140.202 120.582 139.862 120.157 139.282 119.837C138.1 119.187 137.113 119.581 136.321 121.02C135.871 121.836 135.666 122.717 135.705 123.663C135.766 124.62 136.098 125.923 136.702 127.572C137.474 129.677 137.85 131.41 137.828 132.77C137.807 134.13 137.406 135.519 136.625 136.937C135.608 138.784 134.365 139.948 132.897 140.427C131.45 140.918 129.857 140.685 128.117 139.726Z" fill="white"/>
</g>
<path d="M105.252 140.161C104.949 136.082 107.57 132.42 111.322 130.792L154.63 112.003C157.824 110.617 161.743 111.357 163.367 114.436C163.516 114.717 163.649 114.995 163.761 115.264C163.838 115.449 163.911 115.644 163.98 115.847C165.082 119.087 162.96 122.39 159.833 123.782L113.134 144.561C108.699 146.534 105.611 145.002 105.252 140.161V140.161V140.161Z" fill="url(#paint0_linear_770_3527)" fill-opacity="0.4"/>
<path d="M111.583 151.168C95.0626 167.785 71.0639 170.428 57.963 157.403C44.862 144.379 47.3656 120.365 63.886 103.748C80.4064 87.131 104.405 84.4875 117.506 97.5124C130.607 110.537 128.103 134.551 111.583 151.168Z" fill="#D1B052" stroke="#BD9435"/>
<path d="M106.151 143.673C89.8492 160.07 65.9388 162.472 52.7309 149.341C39.5229 136.21 41.7861 112.286 58.0875 95.889C74.3889 79.4924 98.2993 77.0898 111.507 90.2211C124.715 103.352 122.452 127.276 106.151 143.673Z" fill="#F2EDCF" stroke="#BD9435"/>
<g filter="url(#filter2_i_770_3527)">
<ellipse cx="81.7831" cy="119.826" rx="24.4577" ry="30.4991" transform="rotate(44.8331 81.7831 119.826)" fill="#E7DBA1"/>
</g>
<g filter="url(#filter3_d_770_3527)">
<path d="M73.7643 133.25C71.6735 132.098 70.4162 130.639 69.9924 128.873C69.583 127.08 69.9901 125.073 71.2138 122.852L72.0775 121.284L76.1547 123.529L75.1182 125.411C74.1393 127.188 74.3947 128.487 75.8845 129.308C76.6163 129.711 77.2803 129.804 77.8765 129.587C78.5132 129.359 79.0979 128.761 79.6306 127.794C80.264 126.644 80.5568 125.494 80.5092 124.344C80.4759 123.167 80.0919 121.576 79.3572 119.57C78.4437 117.023 77.9796 114.928 77.9649 113.285C77.9646 111.616 78.4035 109.984 79.2816 108.39C80.4765 106.22 81.9466 104.85 83.6921 104.279C85.452 103.681 87.3774 103.958 89.4682 105.11C91.533 106.247 92.7569 107.704 93.1402 109.483C93.564 111.249 93.164 113.243 91.9404 115.464L91.3142 116.601L87.237 114.356L88.0144 112.944C88.5326 112.003 88.724 111.223 88.5884 110.603C88.4672 109.957 88.0538 109.44 87.3481 109.052C85.9107 108.26 84.7097 108.739 83.7452 110.491C83.1982 111.484 82.9485 112.555 82.9961 113.706C83.0699 114.871 83.4742 116.456 84.209 118.462C85.1486 121.023 85.6055 123.131 85.5796 124.786C85.5538 126.441 85.0658 128.131 84.1157 129.856C82.8777 132.104 81.3657 133.519 79.5797 134.102C77.8198 134.7 75.8813 134.416 73.7643 133.25Z" fill="white"/>
</g>
<path d="M45.9453 133.779C45.577 128.816 48.7655 124.36 53.3307 122.38L107.183 99.0156C110.377 97.63 114.199 98.415 116.022 101.381C116.459 102.092 116.851 102.813 117.131 103.488C117.368 104.057 117.574 104.708 117.752 105.385C118.621 108.695 116.611 111.955 113.485 113.346L55.5348 139.132C50.1388 141.533 46.3824 139.669 45.9453 133.779V133.779V133.779Z" fill="url(#paint1_linear_770_3527)" fill-opacity="0.4"/>
<path d="M7.73633 151.276V105.218L139.689 130.441L237.496 91.6653V137.386L234.024 142.016L141.425 185.421H137.953L14.1025 158.799L9.67198 157.092L7.73633 151.276Z" fill="#4E9AE2"/>
<path d="M139.11 186L138.531 130.441L238.075 91.3321V135.65L237.486 138.959L234.602 142.016L139.11 186Z" fill="#1761B1"/>
<path d="M7.73633 151.178V105.615C7.73633 104.985 8.31245 104.512 8.93078 104.634L137.952 130.211C138.708 130.361 139.491 130.289 140.208 130.005L237.39 91.3589C237.718 91.2284 238.075 91.4702 238.075 91.8235V135.176C238.075 138.288 236.269 141.119 233.446 142.43L142.12 184.87C140.543 185.603 138.769 185.802 137.068 185.437L14.0554 159C10.3691 158.208 7.73633 154.949 7.73633 151.178Z" stroke="#144E8F"/>
<path d="M76.0353 80.4546L77.4451 84.2761L77.4968 84.4163L77.6369 84.4683L81.4556 85.8856L77.6341 87.2954L77.4939 87.3471L77.4419 87.4872L76.0246 91.3059L74.6148 87.4844L74.5631 87.3442L74.423 87.2922L70.6043 85.8749L74.4258 84.4651L74.566 84.4134L74.618 84.2733L76.0353 80.4546Z" fill="white" stroke="#BD9435" stroke-width="0.65"/>
<path d="M153.007 109.246L153.997 111.928L154.041 112.047L154.159 112.091L156.84 113.086L154.157 114.076L154.039 114.119L153.995 114.238L153 116.918L152.01 114.236L151.966 114.117L151.848 114.073L149.167 113.078L151.85 112.089L151.968 112.045L152.012 111.926L153.007 109.246Z" fill="white" stroke="#BD9435" stroke-width="0.55"/>
<defs>
<filter id="filter0_i_770_3527" x="112" y="105.957" width="45.415" height="45.4727" filterUnits="userSpaceOnUse" color-interpolation-filters="sRGB">
<feFlood flood-opacity="0" result="BackgroundImageFix"/>
<feBlend mode="normal" in="SourceGraphic" in2="BackgroundImageFix" result="shape"/>
<feColorMatrix in="SourceAlpha" type="matrix" values="0 0 0 0 0 0 0 0 0 0 0 0 0 0 0 0 0 0 127 0" result="hardAlpha"/>
<feOffset dy="4"/>
<feComposite in2="hardAlpha" operator="arithmetic" k2="-1" k3="1"/>
<feColorMatrix type="matrix" values="0 0 0 0 0.819608 0 0 0 0 0.690196 0 0 0 0 0.321569 0 0 0 1 0"/>
<feBlend mode="normal" in2="shape" result="effect1_innerShadow_770_3527"/>
</filter>
<filter id="filter1_d_770_3527" x="124.89" y="115.663" width="19.2864" height="27.0142" filterUnits="userSpaceOnUse" color-interpolation-filters="sRGB">
<feFlood flood-opacity="0" result="BackgroundImageFix"/>
<feColorMatrix in="SourceAlpha" type="matrix" values="0 0 0 0 0 0 0 0 0 0 0 0 0 0 0 0 0 0 127 0" result="hardAlpha"/>
<feOffset dy="2"/>
<feComposite in2="hardAlpha" operator="out"/>
<feColorMatrix type="matrix" values="0 0 0 0 0.819608 0 0 0 0 0.690196 0 0 0 0 0.321569 0 0 0 1 0"/>
<feBlend mode="normal" in2="BackgroundImageFix" result="effect1_dropShadow_770_3527"/>
<feBlend mode="normal" in="SourceGraphic" in2="effect1_dropShadow_770_3527" result="shape"/>
</filter>
<filter id="filter2_i_770_3527" x="54.1558" y="92.1639" width="55.2546" height="55.325" filterUnits="userSpaceOnUse" color-interpolation-filters="sRGB">
<feFlood flood-opacity="0" result="BackgroundImageFix"/>
<feBlend mode="normal" in="SourceGraphic" in2="BackgroundImageFix" result="shape"/>
<feColorMatrix in="SourceAlpha" type="matrix" values="0 0 0 0 0 0 0 0 0 0 0 0 0 0 0 0 0 0 127 0" result="hardAlpha"/>
<feOffset dy="4"/>
<feComposite in2="hardAlpha" operator="arithmetic" k2="-1" k3="1"/>
<feColorMatrix type="matrix" values="0 0 0 0 0.819608 0 0 0 0 0.690196 0 0 0 0 0.321569 0 0 0 1 0"/>
<feBlend mode="normal" in2="shape" result="effect1_innerShadow_770_3527"/>
</filter>
<filter id="filter3_d_770_3527" x="69.8384" y="103.972" width="23.4653" height="32.4338" filterUnits="userSpaceOnUse" color-interpolation-filters="sRGB">
<feFlood flood-opacity="0" result="BackgroundImageFix"/>
<feColorMatrix in="SourceAlpha" type="matrix" values="0 0 0 0 0 0 0 0 0 0 0 0 0 0 0 0 0 0 127 0" result="hardAlpha"/>
<feOffset dy="2"/>
<feComposite in2="hardAlpha" operator="out"/>
<feColorMatrix type="matrix" values="0 0 0 0 0.819608 0 0 0 0 0.690196 0 0 0 0 0.321569 0 0 0 1 0"/>
<feBlend mode="normal" in2="BackgroundImageFix" result="effect1_dropShadow_770_3527"/>
<feBlend mode="normal" in="SourceGraphic" in2="effect1_dropShadow_770_3527" result="shape"/>
</filter>
<linearGradient id="paint0_linear_770_3527" x1="108.218" y1="139.337" x2="160.536" y2="115.739" gradientUnits="userSpaceOnUse">
<stop stop-color="#F2EDCF"/>
<stop offset="0.545" stop-color="#FAF7EC"/>
<stop offset="1" stop-color="#F2EDCF"/>
</linearGradient>
<linearGradient id="paint1_linear_770_3527" x1="49.5533" y1="132.776" x2="113.207" y2="104.066" gradientUnits="userSpaceOnUse">
<stop stop-color="#F2EDCF"/>
<stop offset="0.545" stop-color="#FAF7EC"/>
<stop offset="1" stop-color="#F2EDCF"/>
</linearGradient>
</defs>
</svg>
