<svg width="190" height="179" viewBox="0 0 190 179" fill="none" xmlns="http://www.w3.org/2000/svg">
<ellipse cx="94.007" cy="135.778" rx="90.7653" ry="43.2215" fill="#144E8F"/>
<path d="M3.2417 111.523V89.3152L184.772 91.2853V110.415C184.772 114.181 184.137 117.925 182.234 121.174C175.403 132.845 153.081 160.631 95.4033 160.631C29.7341 160.631 9.8147 130.51 4.75358 119.6C3.58298 117.076 3.2417 114.305 3.2417 111.523Z" fill="url(#paint0_linear_826_4395)"/>
<path d="M3.2417 111.537V89.3152L95.0875 136.99V160.631C29.6205 160.631 9.77839 130.489 4.74315 119.589C3.58047 117.072 3.2417 114.31 3.2417 111.537Z" fill="#1761B1"/>
<path d="M3.78198 111.775V88.775L184.772 90.9999V110.415C184.772 114.181 184.137 117.925 182.234 121.174C175.403 132.845 153.081 160.631 95.4034 160.631C29.4391 160.631 10.0022 130.289 5.18157 119.522C4.09239 117.09 3.78198 114.44 3.78198 111.775Z" stroke="#144E8F"/>
<g filter="url(#filter0_d_826_4395)">
<ellipse cx="94.5472" cy="86.6139" rx="91.3055" ry="53.4867" fill="url(#paint1_linear_826_4395)"/>
</g>
<path d="M60.5103 37.4494L129.665 135.778" stroke="#144E8F"/>
<path d="M10.8054 107.684L178.289 66.624" stroke="#144E8F"/>
<g filter="url(#filter1_d_826_4395)">
<path d="M185.353 86.6139C185.353 101.133 175.303 114.369 158.857 124.003C142.423 133.63 119.688 139.601 94.5472 139.601C69.4069 139.601 46.671 133.63 30.2372 124.003C13.7915 114.369 3.7417 101.133 3.7417 86.6139C3.7417 72.0946 13.7915 58.8584 30.2372 49.2246C46.671 39.5977 69.4069 33.6273 94.5472 33.6273C119.688 33.6273 142.423 39.5977 158.857 49.2246C175.303 58.8584 185.353 72.0946 185.353 86.6139Z" stroke="#144E8F" shape-rendering="crispEdges"/>
</g>
<g filter="url(#filter2_d_826_4395)">
<path d="M157.259 86.6139C157.259 96.6592 150.351 105.843 138.991 112.543C127.641 119.236 111.929 123.392 94.5472 123.392C77.1654 123.392 61.4534 119.236 50.1039 112.543C38.743 105.843 31.8357 96.6592 31.8357 86.6139C31.8357 76.5686 38.743 67.3847 50.1039 60.6847C61.4534 53.9913 77.1654 49.8353 94.5472 49.8353C111.929 49.8353 127.641 53.9913 138.991 60.6847C150.351 67.3847 157.259 76.5686 157.259 86.6139Z" stroke="#144E8F" shape-rendering="crispEdges"/>
</g>
<g filter="url(#filter3_d_826_4395)">
<path d="M134.567 86.0736C134.567 92.3878 130.201 98.1952 122.946 102.452C115.703 106.701 105.663 109.345 94.5471 109.345C83.4308 109.345 73.3913 106.701 66.148 102.452C58.8928 98.1952 54.5269 92.3878 54.5269 86.0736C54.5269 79.7594 58.8928 73.952 66.148 69.6956C73.3913 65.4462 83.4308 62.8018 94.5471 62.8018C105.663 62.8018 115.703 65.4462 122.946 69.6956C130.201 73.952 134.567 79.7594 134.567 86.0736Z" stroke="#144E8F" shape-rendering="crispEdges"/>
</g>
<g filter="url(#filter4_d_826_4395)">
<ellipse cx="94.0069" cy="86.6139" rx="7.56377" ry="4.86242" fill="url(#paint2_linear_826_4395)"/>
</g>
<g filter="url(#filter5_d_826_4395)">
<path d="M25.8108 79.7384C27.3234 74.3505 30.5992 69.1931 35.451 64.5608C40.3029 59.9285 46.6358 55.912 54.0881 52.7406C61.5405 49.5692 69.9664 47.305 78.8847 46.0773C87.8031 44.8496 97.0392 44.6824 106.066 45.5853L94.547 86.6139L25.8108 79.7384Z" fill="url(#paint3_linear_826_4395)" fill-opacity="0.4" shape-rendering="crispEdges"/>
</g>
<g filter="url(#filter6_d_826_4395)">
<path d="M7.2907 110.203C12.0717 116.948 19.0629 123.071 27.8651 128.226C36.6672 133.38 47.108 137.463 58.5912 140.242C70.0744 143.021 82.3752 144.442 94.7913 144.423C107.207 144.404 119.496 142.946 130.954 140.132L94.5471 88.7751L7.2907 110.203Z" fill="url(#paint4_linear_826_4395)" fill-opacity="0.4" shape-rendering="crispEdges"/>
</g>
<ellipse cx="109.168" cy="85.1468" rx="34.9371" ry="21.8188" transform="rotate(-23.6665 109.168 85.1468)" fill="#1761B1"/>
<g filter="url(#filter7_d_826_4395)">
<path d="M139.497 54.8219C153.089 61.6687 161.781 71.358 163.794 81.9057C165.807 92.4533 160.988 103.061 150.324 111.557L94.547 86.6139L139.497 54.8219Z" fill="url(#paint5_linear_826_4395)" fill-opacity="0.4" shape-rendering="crispEdges"/>
</g>
<path d="M126.862 81.726C115.137 104.81 90.7902 115.761 72.5674 106.505C54.3447 97.2494 48.8267 71.13 60.5518 48.0456C72.2769 24.9612 96.6235 14.0106 114.846 23.2664C133.069 32.5222 138.587 58.6416 126.862 81.726Z" fill="#D1B052" stroke="#BD9435"/>
<path d="M118.61 75.6948C107.039 98.4744 82.7034 109.14 64.3329 99.8096C45.9623 90.4788 40.221 64.5359 51.7913 41.7563C63.3615 18.9767 87.6974 8.31067 106.068 17.6415C124.439 26.9723 130.18 52.9153 118.61 75.6948Z" fill="#F2EDCF" stroke="#BD9435"/>
<g filter="url(#filter8_i_826_4395)">
<ellipse cx="84.8626" cy="58.8873" rx="27.0071" ry="33.6784" transform="rotate(26.9271 84.8626 58.8873)" fill="#E7DBA1"/>
</g>
<g filter="url(#filter9_d_826_4395)">
<path d="M81.7674 45.0298L75.3687 44.2182L76.0745 38.654L94.9925 41.0537L94.2867 46.6178L87.8879 45.8062L83.6532 79.1909L77.5327 78.4145L81.7674 45.0298Z" fill="white"/>
</g>
<path d="M51.9426 85.7151C49.8707 80.6257 51.7082 74.8611 55.8326 71.2301L104.943 27.9944C107.556 25.6939 111.414 25.287 114.109 27.4906C114.982 28.2047 115.818 28.9698 116.458 29.7189C117.012 30.3686 117.56 31.1725 118.069 32.0082C119.849 34.931 118.964 38.6325 116.417 40.9174L63.8361 88.0842C58.9814 92.439 54.4015 91.7555 51.9426 85.7151Z" fill="url(#paint6_linear_826_4395)" fill-opacity="0.4"/>
<defs>
<filter id="filter0_d_826_4395" x="3.2417" y="33.1273" width="182.611" height="106.973" filterUnits="userSpaceOnUse" color-interpolation-filters="sRGB">
<feFlood flood-opacity="0" result="BackgroundImageFix"/>
<feColorMatrix in="SourceAlpha" type="matrix" values="0 0 0 0 0 0 0 0 0 0 0 0 0 0 0 0 0 0 127 0" result="hardAlpha"/>
<feOffset/>
<feComposite in2="hardAlpha" operator="out"/>
<feColorMatrix type="matrix" values="0 0 0 0 0 0 0 0 0 0 0 0 0 0 0 0 0 0 1 0"/>
<feBlend mode="normal" in2="BackgroundImageFix" result="effect1_dropShadow_826_4395"/>
<feBlend mode="normal" in="SourceGraphic" in2="effect1_dropShadow_826_4395" result="shape"/>
</filter>
<filter id="filter1_d_826_4395" x="3.2417" y="33.1273" width="182.611" height="106.973" filterUnits="userSpaceOnUse" color-interpolation-filters="sRGB">
<feFlood flood-opacity="0" result="BackgroundImageFix"/>
<feColorMatrix in="SourceAlpha" type="matrix" values="0 0 0 0 0 0 0 0 0 0 0 0 0 0 0 0 0 0 127 0" result="hardAlpha"/>
<feOffset/>
<feComposite in2="hardAlpha" operator="out"/>
<feColorMatrix type="matrix" values="0 0 0 0 0 0 0 0 0 0 0 0 0 0 0 0 0 0 1 0"/>
<feBlend mode="normal" in2="BackgroundImageFix" result="effect1_dropShadow_826_4395"/>
<feBlend mode="normal" in="SourceGraphic" in2="effect1_dropShadow_826_4395" result="shape"/>
</filter>
<filter id="filter2_d_826_4395" x="31.3357" y="49.3353" width="126.423" height="74.5572" filterUnits="userSpaceOnUse" color-interpolation-filters="sRGB">
<feFlood flood-opacity="0" result="BackgroundImageFix"/>
<feColorMatrix in="SourceAlpha" type="matrix" values="0 0 0 0 0 0 0 0 0 0 0 0 0 0 0 0 0 0 127 0" result="hardAlpha"/>
<feOffset/>
<feComposite in2="hardAlpha" operator="out"/>
<feColorMatrix type="matrix" values="0 0 0 0 0 0 0 0 0 0 0 0 0 0 0 0 0 0 1 0"/>
<feBlend mode="normal" in2="BackgroundImageFix" result="effect1_dropShadow_826_4395"/>
<feBlend mode="normal" in="SourceGraphic" in2="effect1_dropShadow_826_4395" result="shape"/>
</filter>
<filter id="filter3_d_826_4395" x="54.0269" y="62.3018" width="81.0405" height="47.5437" filterUnits="userSpaceOnUse" color-interpolation-filters="sRGB">
<feFlood flood-opacity="0" result="BackgroundImageFix"/>
<feColorMatrix in="SourceAlpha" type="matrix" values="0 0 0 0 0 0 0 0 0 0 0 0 0 0 0 0 0 0 127 0" result="hardAlpha"/>
<feOffset/>
<feComposite in2="hardAlpha" operator="out"/>
<feColorMatrix type="matrix" values="0 0 0 0 0 0 0 0 0 0 0 0 0 0 0 0 0 0 1 0"/>
<feBlend mode="normal" in2="BackgroundImageFix" result="effect1_dropShadow_826_4395"/>
<feBlend mode="normal" in="SourceGraphic" in2="effect1_dropShadow_826_4395" result="shape"/>
</filter>
<filter id="filter4_d_826_4395" x="86.4431" y="81.7515" width="15.1274" height="9.72485" filterUnits="userSpaceOnUse" color-interpolation-filters="sRGB">
<feFlood flood-opacity="0" result="BackgroundImageFix"/>
<feColorMatrix in="SourceAlpha" type="matrix" values="0 0 0 0 0 0 0 0 0 0 0 0 0 0 0 0 0 0 127 0" result="hardAlpha"/>
<feOffset/>
<feComposite in2="hardAlpha" operator="out"/>
<feColorMatrix type="matrix" values="0 0 0 0 0 0 0 0 0 0 0 0 0 0 0 0 0 0 1 0"/>
<feBlend mode="normal" in2="BackgroundImageFix" result="effect1_dropShadow_826_4395"/>
<feBlend mode="normal" in="SourceGraphic" in2="effect1_dropShadow_826_4395" result="shape"/>
</filter>
<filter id="filter5_d_826_4395" x="25.8108" y="45.0132" width="80.2551" height="41.6007" filterUnits="userSpaceOnUse" color-interpolation-filters="sRGB">
<feFlood flood-opacity="0" result="BackgroundImageFix"/>
<feColorMatrix in="SourceAlpha" type="matrix" values="0 0 0 0 0 0 0 0 0 0 0 0 0 0 0 0 0 0 127 0" result="hardAlpha"/>
<feOffset/>
<feComposite in2="hardAlpha" operator="out"/>
<feColorMatrix type="matrix" values="0 0 0 0 0 0 0 0 0 0 0 0 0 0 0 0 0 0 1 0"/>
<feBlend mode="normal" in2="BackgroundImageFix" result="effect1_dropShadow_826_4395"/>
<feBlend mode="normal" in="SourceGraphic" in2="effect1_dropShadow_826_4395" result="shape"/>
</filter>
<filter id="filter6_d_826_4395" x="7.29077" y="88.7751" width="123.663" height="55.6477" filterUnits="userSpaceOnUse" color-interpolation-filters="sRGB">
<feFlood flood-opacity="0" result="BackgroundImageFix"/>
<feColorMatrix in="SourceAlpha" type="matrix" values="0 0 0 0 0 0 0 0 0 0 0 0 0 0 0 0 0 0 127 0" result="hardAlpha"/>
<feOffset/>
<feComposite in2="hardAlpha" operator="out"/>
<feColorMatrix type="matrix" values="0 0 0 0 0 0 0 0 0 0 0 0 0 0 0 0 0 0 1 0"/>
<feBlend mode="normal" in2="BackgroundImageFix" result="effect1_dropShadow_826_4395"/>
<feBlend mode="normal" in="SourceGraphic" in2="effect1_dropShadow_826_4395" result="shape"/>
</filter>
<filter id="filter7_d_826_4395" x="94.5471" y="54.822" width="69.6948" height="56.7353" filterUnits="userSpaceOnUse" color-interpolation-filters="sRGB">
<feFlood flood-opacity="0" result="BackgroundImageFix"/>
<feColorMatrix in="SourceAlpha" type="matrix" values="0 0 0 0 0 0 0 0 0 0 0 0 0 0 0 0 0 0 127 0" result="hardAlpha"/>
<feOffset/>
<feComposite in2="hardAlpha" operator="out"/>
<feColorMatrix type="matrix" values="0 0 0 0 0 0 0 0 0 0 0 0 0 0 0 0 0 0 1 0"/>
<feBlend mode="normal" in2="BackgroundImageFix" result="effect1_dropShadow_826_4395"/>
<feBlend mode="normal" in="SourceGraphic" in2="effect1_dropShadow_826_4395" result="shape"/>
</filter>
<filter id="filter8_i_826_4395" x="56.3562" y="26.4564" width="57.0129" height="64.8618" filterUnits="userSpaceOnUse" color-interpolation-filters="sRGB">
<feFlood flood-opacity="0" result="BackgroundImageFix"/>
<feBlend mode="normal" in="SourceGraphic" in2="BackgroundImageFix" result="shape"/>
<feColorMatrix in="SourceAlpha" type="matrix" values="0 0 0 0 0 0 0 0 0 0 0 0 0 0 0 0 0 0 127 0" result="hardAlpha"/>
<feOffset dy="4"/>
<feComposite in2="hardAlpha" operator="arithmetic" k2="-1" k3="1"/>
<feColorMatrix type="matrix" values="0 0 0 0 0.819608 0 0 0 0 0.690196 0 0 0 0 0.321569 0 0 0 1 0"/>
<feBlend mode="normal" in2="shape" result="effect1_innerShadow_826_4395"/>
</filter>
<filter id="filter9_d_826_4395" x="75.3687" y="38.6541" width="19.6238" height="42.5368" filterUnits="userSpaceOnUse" color-interpolation-filters="sRGB">
<feFlood flood-opacity="0" result="BackgroundImageFix"/>
<feColorMatrix in="SourceAlpha" type="matrix" values="0 0 0 0 0 0 0 0 0 0 0 0 0 0 0 0 0 0 127 0" result="hardAlpha"/>
<feOffset dy="2"/>
<feComposite in2="hardAlpha" operator="out"/>
<feColorMatrix type="matrix" values="0 0 0 0 0.741176 0 0 0 0 0.580392 0 0 0 0 0.207843 0 0 0 1 0"/>
<feBlend mode="normal" in2="BackgroundImageFix" result="effect1_dropShadow_826_4395"/>
<feBlend mode="normal" in="SourceGraphic" in2="effect1_dropShadow_826_4395" result="shape"/>
</filter>
<linearGradient id="paint0_linear_826_4395" x1="80.6415" y1="151.175" x2="184.453" y2="112.108" gradientUnits="userSpaceOnUse">
<stop stop-color="#4E9AE2"/>
<stop offset="1" stop-color="#1761B1"/>
</linearGradient>
<linearGradient id="paint1_linear_826_4395" x1="8.8237" y1="100.481" x2="175.371" y2="60.3838" gradientUnits="userSpaceOnUse">
<stop stop-color="#8BBCEE"/>
<stop offset="1" stop-color="#277DD0"/>
</linearGradient>
<linearGradient id="paint2_linear_826_4395" x1="86.4431" y1="86.6139" x2="101.571" y2="86.6139" gradientUnits="userSpaceOnUse">
<stop stop-color="#5396D7"/>
<stop offset="1" stop-color="#3683CE"/>
</linearGradient>
<linearGradient id="paint3_linear_826_4395" x1="62.2883" y1="48.2132" x2="89.5282" y2="86.5012" gradientUnits="userSpaceOnUse">
<stop stop-color="#F9FBFE"/>
<stop offset="0.882918" stop-color="#61A2E2"/>
</linearGradient>
<linearGradient id="paint4_linear_826_4395" x1="61.4357" y1="139.256" x2="95.573" y2="88.6598" gradientUnits="userSpaceOnUse">
<stop stop-color="#EAF3FF"/>
<stop offset="1" stop-color="#5E9FE1"/>
</linearGradient>
<linearGradient id="paint5_linear_826_4395" x1="159.861" y1="68.6136" x2="89.7304" y2="86.4662" gradientUnits="userSpaceOnUse">
<stop stop-color="#E3EDFB"/>
<stop offset="0.87602" stop-color="#5EA0E1"/>
</linearGradient>
<linearGradient id="paint6_linear_826_4395" x1="55.3931" y1="83.4363" x2="112.53" y2="31.6585" gradientUnits="userSpaceOnUse">
<stop stop-color="#F2EDCF"/>
<stop offset="0.545" stop-color="#FAF7EC"/>
<stop offset="1" stop-color="#F2EDCF"/>
</linearGradient>
</defs>
</svg>
