<svg width="217" height="216" viewBox="0 0 217 216" fill="none" xmlns="http://www.w3.org/2000/svg">
<path d="M5.22626 129.397C4.01329 128.675 3.90903 126.958 5.0258 126.095L90.7126 59.8829C91.3491 59.3911 92.2184 59.3284 92.9188 59.7239L210.626 126.179C211.972 126.938 211.985 128.871 210.65 129.649L108.074 189.376C107.446 189.742 106.67 189.738 106.045 189.367L5.22626 129.397Z" fill="#144E8F"/>
<path d="M3.53284 106.939L108.341 168.175" stroke="#144E8F"/>
<path d="M2.5 114.217V97.0002L213.148 96.3408V115.028C213.148 116.45 212.394 117.765 211.166 118.482L109.993 177.589C108.741 178.32 107.191 178.317 105.942 177.579L4.46621 117.661C3.24768 116.942 2.5 115.632 2.5 114.217Z" fill="#4E9AE2"/>
<path d="M2.5 114.708V97.0002L213.737 96.3408V114.654C213.737 116.075 212.983 117.39 211.756 118.107L109.986 177.593C108.737 178.322 107.193 178.322 105.945 177.591L4.47836 118.159C3.25296 117.441 2.5 116.128 2.5 114.708Z" stroke="#144E8F"/>
<path d="M2.97179 97.8458C1.64647 97.0727 1.64935 95.1568 2.97698 94.3877L106.703 34.2979C107.947 33.5773 109.482 33.5796 110.724 34.304L213.709 94.3788C215.035 95.1519 215.032 97.0678 213.704 97.8369L109.978 157.927C108.734 158.647 107.199 158.645 105.957 157.921L2.97179 97.8458Z" fill="#C2DBF5"/>
<path d="M3.22268 97.4142C2.22895 96.8343 2.23126 95.3976 3.22686 94.8208L106.954 34.7306C108.042 34.1 109.386 34.102 110.472 34.7358L213.468 94.8171C214.461 95.3958 214.461 96.8293 213.469 97.4082L110.105 157.735C109.015 158.371 107.666 158.371 106.576 157.735L3.22268 97.4142Z" stroke="#144E8F"/>
<path d="M15.4335 95.4681C15.1035 95.2756 15.1026 94.7991 15.4318 94.6053L106.958 40.7444C108.046 40.1046 109.393 40.0994 110.485 40.7308L202.93 94.1756C203.264 94.3685 203.263 94.8507 202.928 95.0423L109.701 148.429C108.615 149.05 107.28 149.045 106.199 148.415L15.4335 95.4681Z" fill="#277DD0" stroke="#144E8F"/>
<path d="M19.3915 97.3555C19.0612 97.1633 19.0598 96.6867 19.3889 96.4926L107.116 44.7553C108.21 44.1103 109.567 44.1082 110.663 44.7496L199.028 96.481C199.361 96.676 199.357 97.1587 199.021 97.3481L109.502 147.774C108.42 148.383 107.097 148.374 106.024 147.75L19.3915 97.3555Z" fill="#144E8F" stroke="#144E8F"/>
<path d="M106.703 48.5621C107.947 47.8304 109.488 47.825 110.736 48.5478L148.385 70.3445C149.733 71.1246 149.711 73.0774 148.347 73.8278L108.511 95.7377C107.247 96.4325 105.708 96.3937 104.481 95.636L69.3575 73.9427C68.0761 73.1513 68.0961 71.2812 69.3941 70.5174L106.703 48.5621Z" fill="#E3EDFB"/>
<path d="M155.71 69.4514C156.325 69.1123 157.072 69.12 157.679 69.4715L196.434 91.9085C197.767 92.6805 197.763 94.6072 196.427 95.3741L109.944 144.995C108.718 145.699 107.211 145.703 105.981 145.006L66.0911 122.402C64.7304 121.63 64.7414 119.666 66.1106 118.911L155.71 69.4514Z" fill="#4E9AE2"/>
<path d="M155.657 66.8349C156.259 66.5088 156.985 66.5125 157.583 66.8449L196.342 88.3933C197.702 89.1496 197.715 91.1015 196.365 91.8761L109.944 141.462C108.718 142.166 107.211 142.17 105.981 141.473L66.1181 118.884C64.7517 118.109 64.77 116.134 66.1506 115.386L155.657 66.8349Z" fill="#E3EDFB"/>
<path d="M57.992 69.3468C59.2221 68.6098 60.7526 68.5876 62.0035 69.2888L103.37 92.4747C104.73 93.2365 104.734 95.1912 103.379 95.9594L63.4525 118.584C62.2292 119.277 60.7317 119.277 59.5084 118.584L19.4804 95.9017C18.1472 95.1462 18.124 93.2335 19.4385 92.446L57.992 69.3468Z" fill="#4E9AE2"/>
<path d="M154.962 66.9024C156.037 66.309 157.344 66.3224 158.407 66.9376L196.183 88.808C197.183 89.387 197.18 90.832 196.178 91.4072L109.695 141.029C108.622 141.644 107.304 141.648 106.228 141.038L66.3376 118.433C65.3171 117.855 65.3253 116.382 66.3522 115.815L154.962 66.9024Z" stroke="#144E8F"/>
<path d="M58.1316 66.8266C59.33 66.1401 60.7977 66.1204 62.0141 66.7745L103.276 88.9614C104.662 89.7068 104.684 91.6871 103.314 92.463L63.4525 115.052C62.2292 115.745 60.7317 115.745 59.5084 115.052L19.5488 92.4077C18.2004 91.6436 18.1959 89.7025 19.5407 88.9322L58.1316 66.8266Z" fill="#E3EDFB"/>
<path d="M58.3801 67.2604C59.4287 66.6598 60.713 66.6425 61.7773 67.2148L103.039 89.4018C104.078 89.9608 104.095 91.446 103.068 92.028L63.206 114.617C62.1356 115.223 60.8253 115.223 59.7549 114.617L19.7953 91.9727C18.784 91.3996 18.7807 89.9438 19.7893 89.3661L58.3801 67.2604Z" stroke="#144E8F"/>
<path d="M108.341 158.268V178.037" stroke="#144E8F"/>
<path d="M108.341 168.175L213.5 106.5" stroke="#144E8F"/>
<g filter="url(#filter0_i_739_6452)">
<rect x="146.953" y="140.922" width="34.489" height="8.99714" rx="4.49857" transform="rotate(-31.1071 146.953 140.922)" fill="#1761B1"/>
</g>
<rect x="147.64" y="141.092" width="33.489" height="7.99714" rx="3.99857" transform="rotate(-31.1071 147.64 141.092)" stroke="#144E8F"/>
<path d="M108.341 168.175L2.5 107" stroke="#144E8F"/>
<g filter="url(#filter1_i_739_6452)">
<rect x="14.2911" y="108.117" width="30.2335" height="9.7402" rx="4.8701" transform="rotate(30.0007 14.2911 108.117)" fill="#1761B1"/>
</g>
<rect x="14.4741" y="108.8" width="29.2335" height="8.7402" rx="4.3701" transform="rotate(30.0007 14.4741 108.8)" stroke="#144E8F"/>
<ellipse cx="16.4228" cy="114.793" rx="3.64878" ry="4.64656" transform="rotate(-13.3468 16.4228 114.793)" fill="#389181"/>
<ellipse cx="15.2197" cy="114.826" rx="3.47864" ry="4.42989" transform="rotate(-13.3468 15.2197 114.826)" fill="#59AE9B"/>
<ellipse cx="32.4132" cy="123.418" rx="1.417" ry="1.80448" transform="rotate(-13.3468 32.4132 123.418)" fill="#D1B052"/>
<path d="M105.623 124.708C105.188 124.962 104.8 125.164 104.456 125.314L102.994 124.258C103.265 124.151 103.545 124.012 103.835 123.843C104.313 123.563 104.59 123.299 104.665 123.051C104.731 122.796 104.599 122.549 104.267 122.31L96.4133 116.641L98.8034 115.244L106.613 120.88C107.452 121.486 107.786 122.105 107.616 122.74C107.461 123.366 106.796 124.022 105.623 124.708Z" fill="#8BBCEE"/>
<path d="M114.351 119.719C113.178 120.405 112.055 120.768 110.984 120.809C109.913 120.849 108.967 120.574 108.148 119.983L102.766 116.098C101.947 115.507 101.625 114.868 101.799 114.18C101.974 113.492 102.647 112.805 103.821 112.118C104.994 111.432 106.116 111.069 107.188 111.029C108.259 110.988 109.204 111.263 110.023 111.855L115.405 115.739C116.224 116.33 116.547 116.97 116.372 117.658C116.198 118.346 115.524 119.033 114.351 119.719ZM112.888 118.663C113.714 118.18 113.791 117.696 113.118 117.211L107.531 113.178C106.858 112.693 106.109 112.691 105.283 113.174C104.458 113.657 104.381 114.141 105.054 114.627L110.641 118.659C111.314 119.145 112.063 119.146 112.888 118.663Z" fill="#8BBCEE"/>
<path d="M109.212 109.157L111.602 107.759L121.84 115.149L119.45 116.546L109.212 109.157Z" fill="#8BBCEE"/>
<path d="M113.392 106.713L116.391 104.959L124.843 108.023L124.887 107.997L118.759 103.574L120.888 102.329L131.126 109.718L128.671 111.154L118.329 107.437L118.286 107.463L125.759 112.857L123.63 114.102L113.392 106.713Z" fill="#8BBCEE"/>
<path d="M126.145 99.2556L129.143 97.5022L137.596 100.566L137.639 100.54L131.511 96.1173L133.641 94.8721L143.878 102.261L141.423 103.697L131.081 99.9801L131.038 100.006L138.512 105.4L136.382 106.645L126.145 99.2556Z" fill="#8BBCEE"/>
<path d="M149.256 99.3079C148.082 99.994 146.96 100.357 145.889 100.398C144.817 100.438 143.872 100.163 143.053 99.5719L137.671 95.6873C136.852 95.0962 136.53 94.4566 136.704 93.7687C136.878 93.0807 137.552 92.3937 138.726 91.7076C139.899 91.0215 141.021 90.6582 142.093 90.6177C143.164 90.5772 144.109 90.8525 144.928 91.4436L150.31 95.3282C151.129 95.9193 151.452 96.5589 151.277 97.2468C151.103 97.9348 150.429 98.6218 149.256 99.3079ZM147.793 98.2523C148.619 97.7695 148.695 97.2853 148.023 96.7997L142.436 92.7673C141.763 92.2818 141.014 92.2804 140.188 92.7632C139.362 93.246 139.286 93.7302 139.959 94.2158L145.546 98.2482C146.218 98.7337 146.968 98.7351 147.793 98.2523Z" fill="#8BBCEE"/>
<path d="M143.552 89.0765L145.855 87.7297L154.788 92.7862L154.832 92.7608L148.093 86.421L150.7 84.8964L159.699 89.9148L159.742 89.8894L152.938 83.5877L155.003 82.3806L163.698 90.6719L160.721 92.4126L152.731 88.0654L152.688 88.0909L158.505 93.7086L155.332 95.5636L143.552 89.0765Z" fill="#8BBCEE"/>
<path d="M160.678 84.6417L156.407 81.5593L158.797 80.1617L163.068 83.2441L166.025 85.7759L164.243 86.8178L160.678 84.6417ZM165.138 87.8042L167.441 86.4574L168.991 87.5763L166.688 88.9231L165.138 87.8042Z" fill="#8BBCEE"/>
<path d="M62.0268 86.1991L59.7652 87.3067L55.8306 84.6247L51.8744 86.5623L49.6161 85.0229L55.8339 81.9777L62.0268 86.1991Z" fill="#8BBCEE"/>
<path d="M54.0399 90.0295L47.8391 93.0664L45.5808 91.527L49.52 89.5978L42.8249 85.0341L45.0865 83.9265L54.0399 90.0295Z" fill="#8BBCEE"/>
<path d="M75.4582 92.6682L73.4638 93.645C69.873 95.4036 64.034 94.846 60.4485 92.4019L53.5795 87.7197L55.8411 86.6121L62.7101 91.2943C65.0508 92.8898 68.8614 93.2537 71.2055 92.1056L73.2 91.1288L75.4582 92.6682Z" fill="#8BBCEE"/>
<path d="M82.5608 93.828L77.4365 96.3377C71.6522 99.1707 62.344 98.3392 56.6898 94.485L53.4783 92.2959L55.7399 91.1882L58.9514 93.3774C63.3621 96.3839 70.6406 97.0208 75.1782 94.7984L80.3025 92.2887L82.5608 93.828Z" fill="#8BBCEE"/>
<defs>
<filter id="filter0_i_739_6452" x="148.63" y="124.78" width="30.8247" height="22.1685" filterUnits="userSpaceOnUse" color-interpolation-filters="sRGB">
<feFlood flood-opacity="0" result="BackgroundImageFix"/>
<feBlend mode="normal" in="SourceGraphic" in2="BackgroundImageFix" result="shape"/>
<feColorMatrix in="SourceAlpha" type="matrix" values="0 0 0 0 0 0 0 0 0 0 0 0 0 0 0 0 0 0 127 0" result="hardAlpha"/>
<feOffset dx="-6"/>
<feComposite in2="hardAlpha" operator="arithmetic" k2="-1" k3="1"/>
<feColorMatrix type="matrix" values="0 0 0 0 0.545098 0 0 0 0 0.737255 0 0 0 0 0.933333 0 0 0 1 0"/>
<feBlend mode="normal" in2="shape" result="effect1_innerShadow_739_6452"/>
</filter>
<filter id="filter1_i_739_6452" x="11.2028" y="109.898" width="27.4894" height="19.9888" filterUnits="userSpaceOnUse" color-interpolation-filters="sRGB">
<feFlood flood-opacity="0" result="BackgroundImageFix"/>
<feBlend mode="normal" in="SourceGraphic" in2="BackgroundImageFix" result="shape"/>
<feColorMatrix in="SourceAlpha" type="matrix" values="0 0 0 0 0 0 0 0 0 0 0 0 0 0 0 0 0 0 127 0" result="hardAlpha"/>
<feOffset dx="4"/>
<feComposite in2="hardAlpha" operator="arithmetic" k2="-1" k3="1"/>
<feColorMatrix type="matrix" values="0 0 0 0 0.545098 0 0 0 0 0.737255 0 0 0 0 0.933333 0 0 0 1 0"/>
<feBlend mode="normal" in2="shape" result="effect1_innerShadow_739_6452"/>
</filter>
</defs>
</svg>
